M48
;GenerationSoftware,Autodesk,EAGLE,9.5.2*%
;CreationDate,2020-01-27T14:53:27Z*%
FMAT,2
ICI,OFF
METRIC,TZ,000.000
T6C0.700
T5C0.800
T4C1.000
T3C1.110
T2C2.000
T1C2.800
%
G90
M71
T1
X56462Y53664
X56462Y30664
X114462Y30664
X114462Y53664
T2
X58293Y47625
X79121Y47625
X79121Y24511
X58293Y24511
T3
X109592Y49544
X68952Y52084
X107052Y49544
X107052Y47004
X61332Y52084
X61332Y54624
X63872Y52084
X63872Y54624
X66412Y52084
X66412Y54624
X109592Y47004
X68952Y54624
X71492Y52084
X71492Y54624
X74032Y52084
X74032Y54624
X76572Y52084
X76572Y54624
X79112Y52084
X79112Y54624
X81652Y52084
X81652Y54624
X84192Y52084
X84192Y54624
X86732Y52084
X86732Y54624
X89272Y52084
X89272Y54624
X91812Y52084
X91812Y54624
X94352Y52084
X94352Y54624
X96892Y52084
X96892Y54624
X99432Y52084
X99432Y54624
X101972Y52084
X101972Y54624
X104512Y52084
X104512Y54624
X107052Y52084
X107052Y54624
X109592Y52084
X109592Y54624
T4
X64897Y48768
X69977Y48768
X72517Y48768
X67437Y48768
X89380Y32258
X85880Y32258
X97254Y32258
X93754Y32258
T5
X105156Y37465
X107696Y37465
X110236Y37465
X112776Y37465
T6
X85027Y42979
X87027Y42979
X89027Y42979
X91027Y42979
X93027Y42979
X97727Y42979
X99727Y42979
X101727Y42979
X103727Y42979
X105727Y42979
M30