G04 EAGLE Gerber RS-274X export*
G75*
%MOMM*%
%FSLAX34Y34*%
%LPD*%
%INTop Copper*%
%IPPOS*%
%AMOC8*
5,1,8,0,0,1.08239X$1,22.5*%
G01*
%ADD10R,1.508000X1.508000*%
%ADD11C,1.508000*%
%ADD12C,1.665000*%
%ADD13R,1.308000X1.308000*%
%ADD14C,1.308000*%
%ADD15C,0.222250*%
%ADD16R,1.850000X1.850000*%
%ADD17C,1.850000*%
%ADD18C,1.600000*%
%ADD19C,0.304800*%
%ADD20C,0.254000*%
%ADD21C,0.406400*%

G36*
X1132963Y282711D02*
X1132963Y282711D01*
X1133033Y282710D01*
X1133120Y282731D01*
X1133209Y282743D01*
X1133274Y282768D01*
X1133342Y282785D01*
X1133421Y282827D01*
X1133505Y282860D01*
X1133561Y282901D01*
X1133623Y282933D01*
X1133690Y282994D01*
X1133762Y283046D01*
X1133807Y283100D01*
X1133858Y283147D01*
X1133908Y283222D01*
X1133965Y283291D01*
X1133995Y283355D01*
X1134033Y283413D01*
X1134062Y283498D01*
X1134101Y283579D01*
X1134114Y283648D01*
X1134136Y283714D01*
X1134144Y283803D01*
X1134160Y283891D01*
X1134156Y283961D01*
X1134162Y284031D01*
X1134146Y284119D01*
X1134141Y284209D01*
X1134119Y284275D01*
X1134107Y284344D01*
X1134070Y284426D01*
X1134043Y284511D01*
X1134005Y284570D01*
X1133977Y284634D01*
X1133921Y284704D01*
X1133872Y284780D01*
X1133822Y284828D01*
X1133778Y284882D01*
X1133706Y284937D01*
X1133641Y284998D01*
X1133580Y285032D01*
X1133524Y285074D01*
X1133379Y285145D01*
X1130934Y286157D01*
X1124137Y292954D01*
X1120459Y301834D01*
X1120459Y311446D01*
X1124137Y320326D01*
X1130934Y327123D01*
X1139814Y330801D01*
X1149426Y330801D01*
X1158306Y327123D01*
X1165103Y320326D01*
X1166465Y317036D01*
X1166500Y316975D01*
X1166526Y316910D01*
X1166578Y316837D01*
X1166623Y316759D01*
X1166671Y316709D01*
X1166712Y316653D01*
X1166782Y316595D01*
X1166844Y316531D01*
X1166904Y316494D01*
X1166957Y316450D01*
X1167039Y316412D01*
X1167115Y316365D01*
X1167182Y316344D01*
X1167245Y316314D01*
X1167333Y316298D01*
X1167419Y316271D01*
X1167489Y316268D01*
X1167558Y316255D01*
X1167647Y316260D01*
X1167737Y316256D01*
X1167805Y316270D01*
X1167875Y316274D01*
X1167960Y316302D01*
X1168048Y316320D01*
X1168111Y316351D01*
X1168177Y316372D01*
X1168253Y316420D01*
X1168334Y316460D01*
X1168387Y316505D01*
X1168446Y316543D01*
X1168508Y316608D01*
X1168576Y316666D01*
X1168616Y316723D01*
X1168664Y316774D01*
X1168707Y316853D01*
X1168759Y316926D01*
X1168784Y316992D01*
X1168818Y317053D01*
X1168840Y317140D01*
X1168872Y317224D01*
X1168880Y317293D01*
X1168897Y317361D01*
X1168907Y317521D01*
X1168907Y525759D01*
X1168899Y525828D01*
X1168900Y525898D01*
X1168879Y525985D01*
X1168867Y526074D01*
X1168842Y526139D01*
X1168825Y526207D01*
X1168783Y526286D01*
X1168750Y526370D01*
X1168709Y526426D01*
X1168677Y526488D01*
X1168616Y526555D01*
X1168564Y526627D01*
X1168510Y526672D01*
X1168463Y526723D01*
X1168388Y526773D01*
X1168319Y526830D01*
X1168255Y526860D01*
X1168197Y526898D01*
X1168112Y526927D01*
X1168031Y526966D01*
X1167962Y526979D01*
X1167896Y527001D01*
X1167807Y527009D01*
X1167719Y527025D01*
X1167649Y527021D01*
X1167579Y527027D01*
X1167491Y527011D01*
X1167401Y527006D01*
X1167335Y526984D01*
X1167266Y526972D01*
X1167184Y526935D01*
X1167099Y526908D01*
X1167040Y526870D01*
X1166976Y526842D01*
X1166906Y526786D01*
X1166830Y526737D01*
X1166782Y526687D01*
X1166728Y526643D01*
X1166673Y526571D01*
X1166612Y526506D01*
X1166578Y526445D01*
X1166536Y526389D01*
X1166465Y526244D01*
X1165103Y522954D01*
X1158306Y516157D01*
X1149426Y512479D01*
X1139814Y512479D01*
X1130934Y516157D01*
X1124137Y522954D01*
X1120459Y531834D01*
X1120459Y541446D01*
X1124137Y550326D01*
X1130934Y557123D01*
X1133379Y558135D01*
X1133440Y558170D01*
X1133505Y558196D01*
X1133578Y558248D01*
X1133656Y558293D01*
X1133706Y558341D01*
X1133762Y558382D01*
X1133820Y558452D01*
X1133884Y558514D01*
X1133921Y558574D01*
X1133965Y558627D01*
X1134003Y558709D01*
X1134050Y558785D01*
X1134071Y558852D01*
X1134101Y558915D01*
X1134117Y559003D01*
X1134144Y559089D01*
X1134147Y559159D01*
X1134160Y559228D01*
X1134155Y559317D01*
X1134159Y559407D01*
X1134145Y559475D01*
X1134141Y559545D01*
X1134113Y559630D01*
X1134095Y559718D01*
X1134064Y559781D01*
X1134043Y559847D01*
X1133995Y559923D01*
X1133955Y560004D01*
X1133910Y560057D01*
X1133872Y560116D01*
X1133807Y560178D01*
X1133749Y560246D01*
X1133692Y560286D01*
X1133641Y560334D01*
X1133562Y560377D01*
X1133489Y560429D01*
X1133423Y560454D01*
X1133362Y560488D01*
X1133275Y560510D01*
X1133191Y560542D01*
X1133122Y560550D01*
X1133054Y560567D01*
X1132894Y560577D01*
X576346Y560577D01*
X576277Y560569D01*
X576207Y560570D01*
X576120Y560549D01*
X576031Y560537D01*
X575966Y560512D01*
X575898Y560495D01*
X575819Y560453D01*
X575735Y560420D01*
X575679Y560379D01*
X575617Y560347D01*
X575550Y560286D01*
X575478Y560234D01*
X575433Y560180D01*
X575382Y560133D01*
X575332Y560058D01*
X575275Y559989D01*
X575245Y559925D01*
X575207Y559867D01*
X575178Y559782D01*
X575139Y559701D01*
X575126Y559632D01*
X575104Y559566D01*
X575096Y559477D01*
X575080Y559389D01*
X575084Y559319D01*
X575078Y559249D01*
X575094Y559161D01*
X575099Y559071D01*
X575121Y559005D01*
X575133Y558936D01*
X575170Y558854D01*
X575197Y558769D01*
X575235Y558710D01*
X575263Y558646D01*
X575319Y558576D01*
X575368Y558500D01*
X575418Y558452D01*
X575462Y558398D01*
X575534Y558343D01*
X575599Y558282D01*
X575660Y558248D01*
X575716Y558206D01*
X575861Y558135D01*
X578306Y557123D01*
X585103Y550326D01*
X588824Y541341D01*
X588849Y541298D01*
X588865Y541251D01*
X588927Y541160D01*
X588982Y541065D01*
X589016Y541029D01*
X589044Y540988D01*
X589126Y540916D01*
X589203Y540837D01*
X589245Y540811D01*
X589283Y540778D01*
X589380Y540728D01*
X589474Y540670D01*
X589521Y540656D01*
X589566Y540633D01*
X589673Y540609D01*
X589778Y540577D01*
X589828Y540574D01*
X589876Y540563D01*
X589986Y540567D01*
X590096Y540562D01*
X590144Y540572D01*
X590194Y540573D01*
X590299Y540604D01*
X590407Y540626D01*
X590452Y540648D01*
X590499Y540662D01*
X590594Y540717D01*
X590693Y540766D01*
X590731Y540798D01*
X590773Y540823D01*
X590894Y540929D01*
X600512Y550547D01*
X602425Y551340D01*
X602452Y551344D01*
X602581Y551361D01*
X602609Y551371D01*
X602638Y551376D01*
X602756Y551430D01*
X602877Y551478D01*
X602901Y551495D01*
X602928Y551507D01*
X603029Y551588D01*
X603134Y551664D01*
X603153Y551687D01*
X603176Y551706D01*
X603254Y551809D01*
X603337Y551909D01*
X603350Y551936D01*
X603367Y551960D01*
X603438Y552104D01*
X603678Y552683D01*
X606877Y555882D01*
X611058Y557614D01*
X615582Y557614D01*
X619763Y555882D01*
X622962Y552683D01*
X623202Y552104D01*
X623216Y552079D01*
X623225Y552051D01*
X623295Y551941D01*
X623359Y551828D01*
X623380Y551807D01*
X623396Y551782D01*
X623490Y551693D01*
X623581Y551600D01*
X623606Y551584D01*
X623627Y551564D01*
X623741Y551501D01*
X623852Y551433D01*
X623880Y551425D01*
X623906Y551410D01*
X624031Y551378D01*
X624156Y551340D01*
X624185Y551338D01*
X624214Y551331D01*
X624374Y551321D01*
X627666Y551321D01*
X627695Y551324D01*
X627724Y551322D01*
X627852Y551344D01*
X627981Y551361D01*
X628009Y551371D01*
X628038Y551376D01*
X628156Y551430D01*
X628277Y551478D01*
X628301Y551495D01*
X628328Y551507D01*
X628429Y551588D01*
X628534Y551664D01*
X628553Y551687D01*
X628576Y551706D01*
X628654Y551809D01*
X628737Y551909D01*
X628750Y551936D01*
X628767Y551960D01*
X628838Y552104D01*
X629078Y552683D01*
X632277Y555882D01*
X636458Y557614D01*
X640982Y557614D01*
X645163Y555882D01*
X648362Y552683D01*
X650094Y548502D01*
X650094Y543978D01*
X648362Y539797D01*
X645163Y536598D01*
X640982Y534866D01*
X636458Y534866D01*
X632277Y536598D01*
X629078Y539797D01*
X628838Y540376D01*
X628824Y540401D01*
X628815Y540429D01*
X628745Y540539D01*
X628681Y540652D01*
X628660Y540673D01*
X628644Y540698D01*
X628550Y540787D01*
X628459Y540880D01*
X628434Y540896D01*
X628413Y540916D01*
X628299Y540979D01*
X628188Y541047D01*
X628160Y541055D01*
X628134Y541070D01*
X628009Y541102D01*
X627884Y541140D01*
X627855Y541142D01*
X627826Y541149D01*
X627666Y541159D01*
X624374Y541159D01*
X624345Y541156D01*
X624316Y541158D01*
X624188Y541136D01*
X624059Y541119D01*
X624031Y541109D01*
X624002Y541104D01*
X623884Y541050D01*
X623763Y541002D01*
X623739Y540985D01*
X623712Y540973D01*
X623611Y540892D01*
X623506Y540816D01*
X623487Y540793D01*
X623464Y540774D01*
X623386Y540671D01*
X623303Y540571D01*
X623290Y540544D01*
X623273Y540520D01*
X623202Y540376D01*
X622962Y539797D01*
X619763Y536598D01*
X615582Y534866D01*
X611058Y534866D01*
X606877Y536598D01*
X604803Y538672D01*
X604709Y538746D01*
X604619Y538824D01*
X604583Y538843D01*
X604551Y538867D01*
X604442Y538915D01*
X604336Y538969D01*
X604297Y538978D01*
X604260Y538994D01*
X604142Y539012D01*
X604026Y539038D01*
X603986Y539037D01*
X603945Y539044D01*
X603827Y539032D01*
X603708Y539029D01*
X603669Y539018D01*
X603629Y539014D01*
X603517Y538973D01*
X603402Y538940D01*
X603368Y538920D01*
X603330Y538906D01*
X603231Y538839D01*
X603129Y538779D01*
X603083Y538739D01*
X603066Y538728D01*
X603053Y538712D01*
X603008Y538672D01*
X598995Y534659D01*
X598934Y534581D01*
X598866Y534509D01*
X598837Y534456D01*
X598800Y534408D01*
X598760Y534317D01*
X598713Y534230D01*
X598697Y534172D01*
X598673Y534116D01*
X598658Y534018D01*
X598633Y533923D01*
X598627Y533823D01*
X598623Y533802D01*
X598625Y533790D01*
X598623Y533762D01*
X598623Y499652D01*
X598635Y499554D01*
X598638Y499455D01*
X598655Y499397D01*
X598663Y499337D01*
X598699Y499245D01*
X598727Y499150D01*
X598757Y499097D01*
X598780Y499041D01*
X598838Y498961D01*
X598888Y498876D01*
X598955Y498800D01*
X598967Y498784D01*
X598976Y498776D01*
X598995Y498755D01*
X662507Y435242D01*
X662585Y435182D01*
X662657Y435114D01*
X662710Y435085D01*
X662758Y435048D01*
X662849Y435008D01*
X662936Y434960D01*
X662994Y434945D01*
X663050Y434921D01*
X663148Y434906D01*
X663244Y434881D01*
X663344Y434875D01*
X663364Y434871D01*
X663377Y434873D01*
X663405Y434871D01*
X839567Y434871D01*
X839597Y434874D01*
X839626Y434872D01*
X839754Y434894D01*
X839883Y434911D01*
X839910Y434921D01*
X839939Y434926D01*
X840058Y434980D01*
X840179Y435028D01*
X840202Y435045D01*
X840229Y435057D01*
X840331Y435138D01*
X840436Y435214D01*
X840455Y435237D01*
X840478Y435256D01*
X840556Y435359D01*
X840639Y435459D01*
X840651Y435486D01*
X840669Y435510D01*
X840740Y435654D01*
X840903Y436049D01*
X844011Y439157D01*
X848072Y440839D01*
X852468Y440839D01*
X856529Y439157D01*
X859372Y436313D01*
X859467Y436240D01*
X859556Y436161D01*
X859592Y436143D01*
X859624Y436118D01*
X859733Y436070D01*
X859839Y436016D01*
X859878Y436008D01*
X859916Y435991D01*
X860033Y435973D01*
X860149Y435947D01*
X860190Y435948D01*
X860230Y435942D01*
X860348Y435953D01*
X860467Y435956D01*
X860506Y435968D01*
X860546Y435971D01*
X860658Y436012D01*
X860773Y436045D01*
X860808Y436065D01*
X860846Y436079D01*
X860944Y436146D01*
X861047Y436206D01*
X861092Y436246D01*
X861109Y436258D01*
X861122Y436273D01*
X861167Y436313D01*
X861987Y437132D01*
X862060Y437226D01*
X862139Y437316D01*
X862157Y437352D01*
X862182Y437384D01*
X862229Y437493D01*
X862284Y437599D01*
X862292Y437638D01*
X862309Y437676D01*
X862327Y437793D01*
X862353Y437909D01*
X862352Y437950D01*
X862358Y437990D01*
X862347Y438108D01*
X862344Y438227D01*
X862332Y438266D01*
X862329Y438306D01*
X862288Y438418D01*
X862255Y438533D01*
X862235Y438568D01*
X862221Y438606D01*
X862154Y438704D01*
X862094Y438807D01*
X862054Y438852D01*
X862042Y438869D01*
X862027Y438882D01*
X861987Y438927D01*
X812213Y488702D01*
X811439Y490569D01*
X811439Y494030D01*
X811424Y494148D01*
X811417Y494267D01*
X811404Y494305D01*
X811399Y494346D01*
X811356Y494456D01*
X811319Y494569D01*
X811297Y494604D01*
X811282Y494641D01*
X811213Y494737D01*
X811149Y494838D01*
X811119Y494866D01*
X811096Y494899D01*
X811004Y494975D01*
X810917Y495056D01*
X810882Y495076D01*
X810851Y495101D01*
X810743Y495152D01*
X810639Y495210D01*
X810599Y495220D01*
X810563Y495237D01*
X810446Y495259D01*
X810331Y495289D01*
X810271Y495293D01*
X810251Y495297D01*
X810230Y495295D01*
X810170Y495299D01*
X803737Y495299D01*
X803599Y495282D01*
X803460Y495269D01*
X803441Y495262D01*
X803421Y495259D01*
X803292Y495208D01*
X803161Y495161D01*
X803144Y495150D01*
X803125Y495142D01*
X803013Y495061D01*
X802898Y494983D01*
X802884Y494967D01*
X802868Y494956D01*
X802779Y494848D01*
X802687Y494744D01*
X802678Y494726D01*
X802665Y494711D01*
X802606Y494585D01*
X802543Y494461D01*
X802538Y494441D01*
X802530Y494423D01*
X802504Y494287D01*
X802473Y494151D01*
X802474Y494130D01*
X802470Y494111D01*
X802478Y493972D01*
X802483Y493833D01*
X802488Y493813D01*
X802490Y493793D01*
X802532Y493661D01*
X802571Y493527D01*
X802581Y493510D01*
X802588Y493491D01*
X802662Y493373D01*
X802733Y493253D01*
X802751Y493232D01*
X802758Y493222D01*
X802773Y493208D01*
X802839Y493133D01*
X808301Y487670D01*
X811371Y480260D01*
X811371Y472240D01*
X808301Y464830D01*
X802630Y459159D01*
X795220Y456089D01*
X787200Y456089D01*
X779790Y459159D01*
X774119Y464830D01*
X771049Y472240D01*
X771049Y478860D01*
X771032Y478997D01*
X771019Y479136D01*
X771012Y479155D01*
X771009Y479175D01*
X770958Y479304D01*
X770911Y479435D01*
X770900Y479452D01*
X770892Y479471D01*
X770811Y479583D01*
X770733Y479699D01*
X770717Y479712D01*
X770706Y479728D01*
X770598Y479817D01*
X770494Y479909D01*
X770476Y479918D01*
X770461Y479931D01*
X770335Y479990D01*
X770211Y480054D01*
X770191Y480058D01*
X770173Y480067D01*
X770037Y480093D01*
X769901Y480123D01*
X769880Y480123D01*
X769861Y480126D01*
X769722Y480118D01*
X769583Y480114D01*
X769563Y480108D01*
X769543Y480107D01*
X769411Y480064D01*
X769277Y480025D01*
X769260Y480015D01*
X769241Y480009D01*
X769123Y479934D01*
X769003Y479864D01*
X768982Y479845D01*
X768972Y479839D01*
X768958Y479824D01*
X768883Y479757D01*
X755988Y466863D01*
X754121Y466089D01*
X689869Y466089D01*
X688002Y466863D01*
X677993Y476872D01*
X677970Y476890D01*
X677951Y476912D01*
X677845Y476987D01*
X677742Y477066D01*
X677715Y477078D01*
X677691Y477095D01*
X677569Y477141D01*
X677450Y477193D01*
X677421Y477197D01*
X677393Y477208D01*
X677264Y477222D01*
X677136Y477243D01*
X677107Y477240D01*
X677077Y477243D01*
X676949Y477225D01*
X676819Y477213D01*
X676792Y477203D01*
X676762Y477199D01*
X676610Y477147D01*
X676476Y477091D01*
X672264Y477091D01*
X668372Y478703D01*
X665393Y481682D01*
X663781Y485574D01*
X663781Y486748D01*
X663769Y486846D01*
X663766Y486945D01*
X663749Y487003D01*
X663741Y487063D01*
X663705Y487155D01*
X663677Y487250D01*
X663647Y487303D01*
X663624Y487359D01*
X663566Y487439D01*
X663516Y487524D01*
X663450Y487600D01*
X663438Y487616D01*
X663428Y487624D01*
X663410Y487645D01*
X661217Y489837D01*
X661108Y489923D01*
X661001Y490011D01*
X660982Y490020D01*
X660966Y490032D01*
X660838Y490088D01*
X660713Y490147D01*
X660693Y490150D01*
X660674Y490159D01*
X660536Y490180D01*
X660400Y490206D01*
X660380Y490205D01*
X660360Y490208D01*
X660221Y490195D01*
X660083Y490187D01*
X660064Y490181D01*
X660051Y490179D01*
X650200Y490179D01*
X650082Y490164D01*
X649963Y490157D01*
X649925Y490144D01*
X649885Y490139D01*
X649774Y490096D01*
X649661Y490059D01*
X649627Y490037D01*
X649589Y490022D01*
X649493Y489953D01*
X649392Y489889D01*
X649364Y489859D01*
X649332Y489836D01*
X649256Y489744D01*
X649174Y489657D01*
X649155Y489622D01*
X649129Y489591D01*
X649078Y489483D01*
X649021Y489379D01*
X649011Y489339D01*
X648993Y489303D01*
X648973Y489196D01*
X648969Y489226D01*
X648925Y489336D01*
X648889Y489449D01*
X648867Y489484D01*
X648852Y489521D01*
X648782Y489617D01*
X648719Y489718D01*
X648689Y489746D01*
X648665Y489779D01*
X648574Y489855D01*
X648487Y489936D01*
X648452Y489956D01*
X648420Y489981D01*
X648313Y490032D01*
X648208Y490090D01*
X648169Y490100D01*
X648133Y490117D01*
X648016Y490139D01*
X647900Y490169D01*
X647840Y490173D01*
X647820Y490177D01*
X647800Y490175D01*
X647740Y490179D01*
X638889Y490179D01*
X638889Y495554D01*
X639073Y496241D01*
X639091Y496366D01*
X639114Y496490D01*
X639112Y496523D01*
X639117Y496557D01*
X639102Y496682D01*
X639094Y496807D01*
X639084Y496839D01*
X639080Y496872D01*
X639035Y496990D01*
X638996Y497109D01*
X638978Y497138D01*
X638966Y497169D01*
X638893Y497272D01*
X638826Y497378D01*
X638802Y497401D01*
X638782Y497429D01*
X638686Y497510D01*
X638595Y497596D01*
X638565Y497612D01*
X638539Y497634D01*
X638426Y497689D01*
X638316Y497750D01*
X638283Y497758D01*
X638253Y497773D01*
X638129Y497798D01*
X638008Y497829D01*
X637959Y497832D01*
X637941Y497836D01*
X637920Y497835D01*
X637847Y497839D01*
X630229Y497839D01*
X628362Y498613D01*
X626754Y500220D01*
X626754Y500221D01*
X617544Y509431D01*
X617521Y509449D01*
X617502Y509471D01*
X617396Y509546D01*
X617293Y509626D01*
X617266Y509637D01*
X617242Y509654D01*
X617120Y509700D01*
X617001Y509752D01*
X616972Y509757D01*
X616944Y509767D01*
X616815Y509781D01*
X616687Y509802D01*
X616657Y509799D01*
X616628Y509802D01*
X616500Y509784D01*
X616370Y509772D01*
X616342Y509762D01*
X616313Y509758D01*
X616161Y509706D01*
X615582Y509466D01*
X611058Y509466D01*
X606877Y511198D01*
X603678Y514397D01*
X601946Y518578D01*
X601946Y523102D01*
X603678Y527283D01*
X606877Y530482D01*
X611058Y532214D01*
X615582Y532214D01*
X619763Y530482D01*
X622962Y527283D01*
X624694Y523102D01*
X624694Y518578D01*
X624454Y517999D01*
X624446Y517971D01*
X624433Y517944D01*
X624428Y517925D01*
X624420Y517907D01*
X624400Y517800D01*
X624370Y517692D01*
X624370Y517663D01*
X624363Y517634D01*
X624364Y517613D01*
X624360Y517594D01*
X624367Y517488D01*
X624365Y517374D01*
X624372Y517346D01*
X624373Y517316D01*
X624379Y517296D01*
X624380Y517277D01*
X624413Y517177D01*
X624439Y517065D01*
X624453Y517039D01*
X624461Y517011D01*
X624472Y516992D01*
X624478Y516975D01*
X624534Y516887D01*
X624588Y516784D01*
X624608Y516762D01*
X624623Y516737D01*
X624643Y516713D01*
X624648Y516706D01*
X624659Y516696D01*
X624729Y516616D01*
X626072Y515273D01*
X626127Y515231D01*
X626176Y515180D01*
X626252Y515134D01*
X626323Y515078D01*
X626387Y515051D01*
X626447Y515014D01*
X626532Y514988D01*
X626615Y514952D01*
X626684Y514941D01*
X626751Y514921D01*
X626840Y514916D01*
X626929Y514902D01*
X626999Y514909D01*
X627068Y514905D01*
X627156Y514924D01*
X627246Y514932D01*
X627312Y514956D01*
X627380Y514970D01*
X627460Y515009D01*
X627545Y515040D01*
X627603Y515079D01*
X627665Y515109D01*
X627734Y515168D01*
X627808Y515218D01*
X627854Y515271D01*
X627907Y515316D01*
X627959Y515389D01*
X628019Y515457D01*
X628050Y515519D01*
X628091Y515576D01*
X628122Y515660D01*
X628163Y515740D01*
X628178Y515808D01*
X628203Y515873D01*
X628213Y515963D01*
X628233Y516050D01*
X628231Y516120D01*
X628238Y516189D01*
X628226Y516278D01*
X628223Y516368D01*
X628204Y516435D01*
X628194Y516504D01*
X628142Y516657D01*
X627346Y518578D01*
X627346Y523102D01*
X629078Y527283D01*
X632277Y530482D01*
X636458Y532214D01*
X640982Y532214D01*
X645163Y530482D01*
X648362Y527283D01*
X650094Y523102D01*
X650094Y518578D01*
X648362Y514397D01*
X645163Y511198D01*
X643339Y510443D01*
X643279Y510408D01*
X643214Y510382D01*
X643141Y510330D01*
X643063Y510285D01*
X643013Y510237D01*
X642957Y510196D01*
X642899Y510126D01*
X642835Y510064D01*
X642798Y510004D01*
X642754Y509951D01*
X642715Y509869D01*
X642669Y509793D01*
X642648Y509726D01*
X642618Y509663D01*
X642601Y509575D01*
X642575Y509489D01*
X642572Y509419D01*
X642558Y509350D01*
X642564Y509261D01*
X642560Y509171D01*
X642574Y509103D01*
X642578Y509033D01*
X642606Y508948D01*
X642624Y508860D01*
X642655Y508797D01*
X642676Y508731D01*
X642724Y508655D01*
X642764Y508574D01*
X642809Y508521D01*
X642846Y508462D01*
X642912Y508400D01*
X642970Y508332D01*
X643027Y508292D01*
X643078Y508244D01*
X643157Y508201D01*
X643230Y508149D01*
X643295Y508124D01*
X643357Y508090D01*
X643443Y508068D01*
X643528Y508036D01*
X643597Y508028D01*
X643664Y508011D01*
X643825Y508001D01*
X656331Y508001D01*
X658198Y507227D01*
X668053Y497373D01*
X668076Y497354D01*
X668095Y497332D01*
X668201Y497257D01*
X668304Y497178D01*
X668331Y497166D01*
X668355Y497149D01*
X668476Y497103D01*
X668596Y497051D01*
X668625Y497047D01*
X668653Y497036D01*
X668782Y497022D01*
X668910Y497001D01*
X668939Y497004D01*
X668969Y497001D01*
X669097Y497019D01*
X669227Y497031D01*
X669254Y497041D01*
X669284Y497045D01*
X669436Y497097D01*
X672264Y498269D01*
X676476Y498269D01*
X676980Y498060D01*
X677047Y498042D01*
X677111Y498014D01*
X677200Y498000D01*
X677286Y497976D01*
X677356Y497975D01*
X677425Y497964D01*
X677515Y497973D01*
X677604Y497971D01*
X677672Y497988D01*
X677742Y497994D01*
X677826Y498024D01*
X677914Y498045D01*
X677975Y498078D01*
X678041Y498102D01*
X678115Y498152D01*
X678195Y498194D01*
X678246Y498241D01*
X678304Y498280D01*
X678364Y498348D01*
X678430Y498408D01*
X678468Y498466D01*
X678515Y498519D01*
X678555Y498599D01*
X678605Y498674D01*
X678628Y498740D01*
X678659Y498802D01*
X678679Y498889D01*
X678708Y498975D01*
X678714Y499044D01*
X678729Y499112D01*
X678726Y499202D01*
X678733Y499292D01*
X678721Y499360D01*
X678719Y499430D01*
X678694Y499516D01*
X678679Y499605D01*
X678650Y499668D01*
X678631Y499736D01*
X678585Y499813D01*
X678548Y499895D01*
X678505Y499949D01*
X678469Y500009D01*
X678363Y500130D01*
X677096Y501397D01*
X677096Y501398D01*
X668852Y509641D01*
X668829Y509659D01*
X668810Y509682D01*
X668704Y509756D01*
X668601Y509836D01*
X668574Y509848D01*
X668550Y509865D01*
X668428Y509911D01*
X668309Y509962D01*
X668280Y509967D01*
X668252Y509978D01*
X668123Y509992D01*
X667995Y510012D01*
X667965Y510010D01*
X667936Y510013D01*
X667808Y509995D01*
X667678Y509982D01*
X667650Y509972D01*
X667621Y509968D01*
X667469Y509916D01*
X666382Y509466D01*
X661858Y509466D01*
X657677Y511198D01*
X654478Y514397D01*
X652746Y518578D01*
X652746Y523102D01*
X654478Y527283D01*
X657677Y530482D01*
X661858Y532214D01*
X666382Y532214D01*
X670563Y530482D01*
X673762Y527283D01*
X675494Y523102D01*
X675494Y518578D01*
X675044Y517491D01*
X675036Y517463D01*
X675022Y517436D01*
X674994Y517310D01*
X674960Y517184D01*
X674959Y517155D01*
X674953Y517126D01*
X674957Y516996D01*
X674955Y516866D01*
X674962Y516838D01*
X674962Y516808D01*
X674999Y516684D01*
X675029Y516557D01*
X675043Y516531D01*
X675051Y516503D01*
X675117Y516391D01*
X675178Y516276D01*
X675197Y516254D01*
X675212Y516229D01*
X675319Y516108D01*
X677380Y514047D01*
X677435Y514004D01*
X677484Y513954D01*
X677560Y513907D01*
X677631Y513852D01*
X677695Y513824D01*
X677755Y513788D01*
X677840Y513761D01*
X677923Y513726D01*
X677992Y513715D01*
X678059Y513694D01*
X678148Y513690D01*
X678237Y513676D01*
X678307Y513682D01*
X678376Y513679D01*
X678464Y513697D01*
X678554Y513706D01*
X678619Y513729D01*
X678688Y513743D01*
X678769Y513783D01*
X678853Y513813D01*
X678911Y513852D01*
X678973Y513883D01*
X679042Y513941D01*
X679116Y513992D01*
X679162Y514044D01*
X679215Y514089D01*
X679267Y514163D01*
X679327Y514230D01*
X679358Y514292D01*
X679399Y514349D01*
X679430Y514433D01*
X679471Y514513D01*
X679486Y514582D01*
X679511Y514647D01*
X679521Y514736D01*
X679541Y514824D01*
X679539Y514893D01*
X679546Y514963D01*
X679534Y515052D01*
X679531Y515142D01*
X679512Y515209D01*
X679512Y515211D01*
X679511Y515212D01*
X679511Y515213D01*
X679502Y515278D01*
X679450Y515430D01*
X678146Y518578D01*
X678146Y523102D01*
X679878Y527283D01*
X683077Y530482D01*
X687258Y532214D01*
X691782Y532214D01*
X695963Y530482D01*
X699162Y527283D01*
X700894Y523102D01*
X700894Y518578D01*
X699162Y514397D01*
X695963Y511198D01*
X691782Y509466D01*
X691325Y509466D01*
X691187Y509449D01*
X691048Y509436D01*
X691029Y509429D01*
X691009Y509426D01*
X690880Y509375D01*
X690749Y509328D01*
X690732Y509317D01*
X690714Y509309D01*
X690601Y509228D01*
X690486Y509150D01*
X690473Y509134D01*
X690456Y509123D01*
X690368Y509015D01*
X690276Y508911D01*
X690266Y508893D01*
X690253Y508878D01*
X690194Y508752D01*
X690131Y508628D01*
X690126Y508608D01*
X690118Y508590D01*
X690092Y508454D01*
X690061Y508318D01*
X690062Y508297D01*
X690058Y508278D01*
X690067Y508139D01*
X690071Y508000D01*
X690077Y507980D01*
X690078Y507960D01*
X690121Y507828D01*
X690159Y507694D01*
X690170Y507677D01*
X690176Y507658D01*
X690250Y507540D01*
X690321Y507420D01*
X690339Y507399D01*
X690346Y507389D01*
X690361Y507375D01*
X690427Y507300D01*
X699086Y498640D01*
X699165Y498580D01*
X699237Y498512D01*
X699290Y498483D01*
X699338Y498446D01*
X699429Y498406D01*
X699515Y498358D01*
X699574Y498343D01*
X699629Y498319D01*
X699727Y498304D01*
X699823Y498279D01*
X699923Y498273D01*
X699944Y498269D01*
X699956Y498271D01*
X699984Y498269D01*
X701876Y498269D01*
X705768Y496657D01*
X708747Y493678D01*
X710359Y489786D01*
X710359Y485574D01*
X708747Y481682D01*
X705768Y478703D01*
X705742Y478693D01*
X705682Y478658D01*
X705617Y478632D01*
X705544Y478580D01*
X705466Y478535D01*
X705416Y478487D01*
X705359Y478446D01*
X705302Y478376D01*
X705238Y478314D01*
X705201Y478254D01*
X705156Y478201D01*
X705118Y478119D01*
X705071Y478043D01*
X705051Y477976D01*
X705021Y477913D01*
X705004Y477825D01*
X704978Y477739D01*
X704974Y477669D01*
X704961Y477600D01*
X704967Y477511D01*
X704962Y477421D01*
X704977Y477353D01*
X704981Y477283D01*
X705009Y477198D01*
X705027Y477110D01*
X705057Y477047D01*
X705079Y476981D01*
X705127Y476905D01*
X705166Y476824D01*
X705212Y476771D01*
X705249Y476712D01*
X705314Y476650D01*
X705373Y476582D01*
X705430Y476542D01*
X705481Y476494D01*
X705559Y476451D01*
X705633Y476399D01*
X705698Y476374D01*
X705759Y476340D01*
X705846Y476318D01*
X705930Y476286D01*
X706000Y476278D01*
X706067Y476261D01*
X706228Y476251D01*
X718712Y476251D01*
X718781Y476259D01*
X718851Y476258D01*
X718938Y476279D01*
X719028Y476291D01*
X719093Y476316D01*
X719160Y476333D01*
X719240Y476375D01*
X719323Y476408D01*
X719380Y476449D01*
X719442Y476481D01*
X719508Y476542D01*
X719581Y476594D01*
X719625Y476648D01*
X719677Y476695D01*
X719726Y476770D01*
X719783Y476839D01*
X719813Y476903D01*
X719852Y476961D01*
X719881Y477046D01*
X719919Y477127D01*
X719932Y477196D01*
X719955Y477262D01*
X719962Y477351D01*
X719979Y477439D01*
X719974Y477509D01*
X719980Y477579D01*
X719965Y477667D01*
X719959Y477757D01*
X719938Y477823D01*
X719926Y477892D01*
X719889Y477974D01*
X719861Y478059D01*
X719824Y478118D01*
X719795Y478182D01*
X719739Y478252D01*
X719691Y478328D01*
X719640Y478376D01*
X719596Y478430D01*
X719525Y478484D01*
X719459Y478546D01*
X719398Y478580D01*
X719342Y478622D01*
X719198Y478693D01*
X719172Y478703D01*
X716193Y481682D01*
X714581Y485574D01*
X714581Y489786D01*
X716193Y493678D01*
X719172Y496657D01*
X723064Y498269D01*
X727276Y498269D01*
X731168Y496657D01*
X734147Y493678D01*
X735759Y489786D01*
X735759Y485574D01*
X734147Y481682D01*
X731168Y478703D01*
X731142Y478693D01*
X731082Y478658D01*
X731017Y478632D01*
X730944Y478580D01*
X730866Y478535D01*
X730816Y478487D01*
X730759Y478446D01*
X730702Y478376D01*
X730638Y478314D01*
X730601Y478254D01*
X730557Y478201D01*
X730518Y478119D01*
X730471Y478043D01*
X730451Y477976D01*
X730421Y477913D01*
X730404Y477825D01*
X730378Y477739D01*
X730374Y477669D01*
X730361Y477600D01*
X730367Y477511D01*
X730362Y477421D01*
X730377Y477353D01*
X730381Y477283D01*
X730409Y477198D01*
X730427Y477110D01*
X730457Y477047D01*
X730479Y476981D01*
X730527Y476905D01*
X730566Y476824D01*
X730612Y476771D01*
X730649Y476712D01*
X730715Y476650D01*
X730773Y476582D01*
X730830Y476542D01*
X730881Y476494D01*
X730959Y476451D01*
X731033Y476399D01*
X731098Y476374D01*
X731159Y476340D01*
X731246Y476318D01*
X731330Y476286D01*
X731400Y476278D01*
X731467Y476261D01*
X731628Y476251D01*
X750480Y476251D01*
X750578Y476263D01*
X750677Y476266D01*
X750735Y476283D01*
X750795Y476291D01*
X750887Y476327D01*
X750982Y476355D01*
X751035Y476385D01*
X751091Y476408D01*
X751171Y476466D01*
X751256Y476516D01*
X751332Y476582D01*
X751348Y476594D01*
X751356Y476604D01*
X751377Y476622D01*
X779442Y504687D01*
X781309Y505461D01*
X810170Y505461D01*
X810268Y505473D01*
X810367Y505476D01*
X810388Y505482D01*
X810407Y505483D01*
X810444Y505495D01*
X810485Y505501D01*
X810577Y505537D01*
X810672Y505565D01*
X810691Y505575D01*
X810709Y505581D01*
X810743Y505603D01*
X810781Y505618D01*
X810861Y505676D01*
X810946Y505726D01*
X810968Y505745D01*
X810978Y505752D01*
X810992Y505766D01*
X811022Y505792D01*
X811038Y505804D01*
X811046Y505814D01*
X811067Y505832D01*
X811068Y505833D01*
X811128Y505911D01*
X811196Y505983D01*
X811216Y506019D01*
X811241Y506049D01*
X811250Y506068D01*
X811262Y506084D01*
X811302Y506175D01*
X811350Y506262D01*
X811360Y506302D01*
X811377Y506337D01*
X811380Y506356D01*
X811389Y506376D01*
X811404Y506474D01*
X811429Y506570D01*
X811433Y506632D01*
X811436Y506649D01*
X811435Y506668D01*
X811435Y506670D01*
X811439Y506690D01*
X811437Y506702D01*
X811439Y506730D01*
X811439Y509786D01*
X811436Y509815D01*
X811438Y509844D01*
X811416Y509972D01*
X811399Y510101D01*
X811389Y510129D01*
X811384Y510158D01*
X811330Y510276D01*
X811282Y510397D01*
X811265Y510421D01*
X811253Y510448D01*
X811172Y510549D01*
X811096Y510654D01*
X811073Y510673D01*
X811054Y510696D01*
X810951Y510774D01*
X810851Y510857D01*
X810824Y510870D01*
X810800Y510887D01*
X810656Y510958D01*
X810077Y511198D01*
X806878Y514397D01*
X805146Y518578D01*
X805146Y523102D01*
X806791Y527072D01*
X806804Y527120D01*
X806825Y527165D01*
X806846Y527273D01*
X806875Y527379D01*
X806875Y527429D01*
X806885Y527478D01*
X806878Y527587D01*
X806880Y527697D01*
X806868Y527745D01*
X806865Y527795D01*
X806831Y527899D01*
X806806Y528006D01*
X806782Y528050D01*
X806767Y528097D01*
X806708Y528190D01*
X806657Y528287D01*
X806623Y528324D01*
X806597Y528366D01*
X806517Y528441D01*
X806443Y528523D01*
X806401Y528550D01*
X806365Y528584D01*
X806269Y528637D01*
X806177Y528697D01*
X806130Y528714D01*
X806087Y528738D01*
X805980Y528765D01*
X805876Y528801D01*
X805827Y528805D01*
X805779Y528817D01*
X805618Y528827D01*
X802022Y528827D01*
X801973Y528821D01*
X801923Y528823D01*
X801816Y528801D01*
X801706Y528787D01*
X801660Y528769D01*
X801612Y528759D01*
X801513Y528711D01*
X801411Y528670D01*
X801371Y528641D01*
X801326Y528619D01*
X801242Y528548D01*
X801153Y528484D01*
X801122Y528445D01*
X801084Y528413D01*
X801021Y528323D01*
X800951Y528239D01*
X800929Y528194D01*
X800901Y528153D01*
X800862Y528050D01*
X800815Y527951D01*
X800806Y527902D01*
X800788Y527856D01*
X800776Y527746D01*
X800755Y527639D01*
X800758Y527589D01*
X800753Y527540D01*
X800768Y527431D01*
X800775Y527321D01*
X800790Y527274D01*
X800797Y527225D01*
X800849Y527072D01*
X802494Y523102D01*
X802494Y518578D01*
X800762Y514397D01*
X797563Y511198D01*
X793382Y509466D01*
X788858Y509466D01*
X784677Y511198D01*
X781478Y514397D01*
X779746Y518578D01*
X779746Y523102D01*
X781478Y527283D01*
X784677Y530482D01*
X788858Y532214D01*
X793382Y532214D01*
X796530Y530910D01*
X796597Y530892D01*
X796661Y530864D01*
X796750Y530850D01*
X796837Y530826D01*
X796906Y530825D01*
X796975Y530814D01*
X797065Y530822D01*
X797155Y530821D01*
X797222Y530837D01*
X797292Y530844D01*
X797377Y530874D01*
X797464Y530895D01*
X797526Y530928D01*
X797591Y530951D01*
X797666Y531002D01*
X797745Y531044D01*
X797797Y531091D01*
X797854Y531130D01*
X797914Y531197D01*
X797980Y531258D01*
X798019Y531316D01*
X798065Y531368D01*
X798106Y531448D01*
X798155Y531523D01*
X798178Y531590D01*
X798209Y531652D01*
X798229Y531739D01*
X798258Y531824D01*
X798264Y531894D01*
X798279Y531962D01*
X798276Y532052D01*
X798284Y532141D01*
X798272Y532210D01*
X798269Y532280D01*
X798244Y532366D01*
X798229Y532455D01*
X798200Y532518D01*
X798181Y532585D01*
X798135Y532663D01*
X798099Y532745D01*
X798055Y532799D01*
X798020Y532859D01*
X797913Y532980D01*
X795852Y535041D01*
X795829Y535059D01*
X795810Y535082D01*
X795704Y535156D01*
X795601Y535236D01*
X795574Y535248D01*
X795550Y535265D01*
X795428Y535311D01*
X795309Y535362D01*
X795280Y535367D01*
X795252Y535378D01*
X795123Y535392D01*
X794995Y535412D01*
X794965Y535410D01*
X794936Y535413D01*
X794808Y535395D01*
X794678Y535382D01*
X794650Y535372D01*
X794621Y535368D01*
X794469Y535316D01*
X793382Y534866D01*
X788858Y534866D01*
X784677Y536598D01*
X781478Y539797D01*
X779746Y543978D01*
X779746Y548502D01*
X781478Y552683D01*
X784677Y555882D01*
X788858Y557614D01*
X793382Y557614D01*
X797563Y555882D01*
X800762Y552683D01*
X802494Y548502D01*
X802494Y543978D01*
X802044Y542891D01*
X802036Y542863D01*
X802022Y542836D01*
X801994Y542710D01*
X801960Y542584D01*
X801959Y542555D01*
X801953Y542526D01*
X801957Y542396D01*
X801955Y542266D01*
X801962Y542238D01*
X801962Y542208D01*
X801999Y542084D01*
X802029Y541957D01*
X802043Y541931D01*
X802051Y541903D01*
X802117Y541791D01*
X802178Y541676D01*
X802197Y541654D01*
X802212Y541629D01*
X802319Y541508D01*
X804380Y539447D01*
X804435Y539404D01*
X804484Y539354D01*
X804512Y539337D01*
X804514Y539334D01*
X804527Y539327D01*
X804560Y539307D01*
X804631Y539252D01*
X804695Y539224D01*
X804755Y539188D01*
X804840Y539161D01*
X804923Y539126D01*
X804992Y539115D01*
X805059Y539094D01*
X805148Y539090D01*
X805237Y539076D01*
X805307Y539082D01*
X805376Y539079D01*
X805464Y539097D01*
X805554Y539106D01*
X805620Y539129D01*
X805688Y539143D01*
X805768Y539183D01*
X805853Y539213D01*
X805911Y539252D01*
X805973Y539283D01*
X806042Y539341D01*
X806116Y539392D01*
X806162Y539444D01*
X806215Y539489D01*
X806267Y539563D01*
X806327Y539630D01*
X806358Y539692D01*
X806399Y539749D01*
X806430Y539833D01*
X806471Y539913D01*
X806487Y539982D01*
X806511Y540047D01*
X806521Y540136D01*
X806541Y540224D01*
X806539Y540293D01*
X806547Y540363D01*
X806534Y540452D01*
X806531Y540542D01*
X806518Y540586D01*
X806518Y540597D01*
X806510Y540620D01*
X806502Y540678D01*
X806450Y540830D01*
X805146Y543978D01*
X805146Y548502D01*
X806878Y552683D01*
X810077Y555882D01*
X814258Y557614D01*
X818782Y557614D01*
X822963Y555882D01*
X826162Y552683D01*
X827894Y548502D01*
X827894Y546862D01*
X827909Y546744D01*
X827916Y546625D01*
X827929Y546587D01*
X827934Y546546D01*
X827977Y546436D01*
X828014Y546323D01*
X828036Y546288D01*
X828051Y546251D01*
X828120Y546155D01*
X828184Y546054D01*
X828214Y546026D01*
X828237Y545993D01*
X828329Y545917D01*
X828416Y545836D01*
X828451Y545816D01*
X828482Y545791D01*
X828590Y545740D01*
X828694Y545682D01*
X828734Y545672D01*
X828770Y545655D01*
X828887Y545633D01*
X829002Y545603D01*
X829062Y545599D01*
X829082Y545595D01*
X829103Y545597D01*
X829163Y545593D01*
X829934Y545593D01*
X831454Y544073D01*
X831533Y544012D01*
X831605Y543944D01*
X831658Y543915D01*
X831706Y543878D01*
X831797Y543838D01*
X831883Y543790D01*
X831942Y543775D01*
X831997Y543751D01*
X832095Y543736D01*
X832191Y543711D01*
X832291Y543705D01*
X832312Y543701D01*
X832324Y543703D01*
X832352Y543701D01*
X840650Y543701D01*
X840768Y543716D01*
X840887Y543723D01*
X840925Y543736D01*
X840965Y543741D01*
X841076Y543784D01*
X841189Y543821D01*
X841223Y543843D01*
X841261Y543858D01*
X841357Y543928D01*
X841458Y543991D01*
X841486Y544021D01*
X841518Y544044D01*
X841594Y544136D01*
X841676Y544223D01*
X841695Y544258D01*
X841721Y544289D01*
X841772Y544397D01*
X841829Y544501D01*
X841840Y544541D01*
X841857Y544577D01*
X841879Y544694D01*
X841909Y544809D01*
X841913Y544870D01*
X841917Y544890D01*
X841915Y544910D01*
X841919Y544970D01*
X841919Y546241D01*
X841921Y546241D01*
X841921Y544970D01*
X841936Y544852D01*
X841943Y544733D01*
X841956Y544695D01*
X841961Y544654D01*
X842005Y544544D01*
X842041Y544431D01*
X842063Y544396D01*
X842078Y544359D01*
X842148Y544263D01*
X842211Y544162D01*
X842241Y544134D01*
X842265Y544101D01*
X842356Y544026D01*
X842443Y543944D01*
X842478Y543924D01*
X842510Y543899D01*
X842617Y543848D01*
X842722Y543790D01*
X842761Y543780D01*
X842797Y543763D01*
X842914Y543741D01*
X843029Y543711D01*
X843090Y543707D01*
X843110Y543703D01*
X843130Y543705D01*
X843190Y543701D01*
X852519Y543701D01*
X852518Y543696D01*
X851990Y542069D01*
X851213Y540545D01*
X850364Y539377D01*
X850355Y539360D01*
X850342Y539345D01*
X850278Y539220D01*
X850211Y539098D01*
X850206Y539079D01*
X850197Y539062D01*
X850167Y538926D01*
X850132Y538790D01*
X850132Y538770D01*
X850128Y538751D01*
X850132Y538611D01*
X850132Y538472D01*
X850137Y538453D01*
X850137Y538433D01*
X850176Y538299D01*
X850211Y538164D01*
X850220Y538147D01*
X850226Y538128D01*
X850297Y538007D01*
X850364Y537885D01*
X850377Y537871D01*
X850387Y537854D01*
X850494Y537733D01*
X858413Y529813D01*
X858508Y529740D01*
X858597Y529662D01*
X858633Y529643D01*
X858665Y529618D01*
X858774Y529571D01*
X858880Y529517D01*
X858919Y529508D01*
X858957Y529492D01*
X859074Y529473D01*
X859190Y529447D01*
X859231Y529449D01*
X859271Y529442D01*
X859389Y529453D01*
X859508Y529457D01*
X859547Y529468D01*
X859587Y529472D01*
X859699Y529512D01*
X859814Y529545D01*
X859849Y529566D01*
X859887Y529580D01*
X859985Y529646D01*
X860088Y529707D01*
X860133Y529747D01*
X860150Y529758D01*
X860163Y529774D01*
X860208Y529813D01*
X860877Y530482D01*
X865058Y532214D01*
X869582Y532214D01*
X873763Y530482D01*
X876962Y527283D01*
X878694Y523102D01*
X878694Y518578D01*
X876962Y514397D01*
X873763Y511198D01*
X869582Y509466D01*
X865058Y509466D01*
X861038Y511131D01*
X860990Y511145D01*
X860945Y511166D01*
X860837Y511186D01*
X860731Y511215D01*
X860681Y511216D01*
X860632Y511225D01*
X860523Y511219D01*
X860413Y511220D01*
X860365Y511209D01*
X860315Y511206D01*
X860211Y511172D01*
X860104Y511146D01*
X860060Y511123D01*
X860013Y511108D01*
X859920Y511049D01*
X859823Y510998D01*
X859786Y510964D01*
X859744Y510938D01*
X859669Y510858D01*
X859587Y510784D01*
X859560Y510742D01*
X859526Y510706D01*
X859473Y510610D01*
X859413Y510518D01*
X859396Y510471D01*
X859372Y510427D01*
X859345Y510321D01*
X859309Y510217D01*
X859305Y510168D01*
X859293Y510119D01*
X859283Y509959D01*
X859283Y506610D01*
X859295Y506512D01*
X859298Y506413D01*
X859315Y506354D01*
X859323Y506294D01*
X859359Y506202D01*
X859387Y506107D01*
X859417Y506055D01*
X859440Y505999D01*
X859498Y505919D01*
X859548Y505833D01*
X859614Y505758D01*
X859626Y505741D01*
X859636Y505733D01*
X859654Y505712D01*
X880362Y485004D01*
X880441Y484944D01*
X880513Y484876D01*
X880566Y484847D01*
X880614Y484810D01*
X880705Y484770D01*
X880791Y484722D01*
X880850Y484707D01*
X880905Y484683D01*
X881003Y484668D01*
X881099Y484643D01*
X881199Y484637D01*
X881220Y484633D01*
X881232Y484635D01*
X881260Y484633D01*
X934074Y484633D01*
X937124Y481583D01*
X937124Y481582D01*
X956562Y462144D01*
X959613Y459094D01*
X959613Y384690D01*
X959625Y384592D01*
X959628Y384493D01*
X959645Y384434D01*
X959653Y384374D01*
X959689Y384282D01*
X959717Y384187D01*
X959747Y384135D01*
X959770Y384079D01*
X959828Y383999D01*
X959878Y383913D01*
X959944Y383838D01*
X959956Y383821D01*
X959966Y383813D01*
X959984Y383792D01*
X990852Y352924D01*
X990931Y352864D01*
X991003Y352796D01*
X991056Y352767D01*
X991104Y352730D01*
X991195Y352690D01*
X991281Y352642D01*
X991340Y352627D01*
X991395Y352603D01*
X991493Y352588D01*
X991589Y352563D01*
X991689Y352557D01*
X991710Y352553D01*
X991722Y352555D01*
X991750Y352553D01*
X1063110Y352553D01*
X1063208Y352565D01*
X1063307Y352568D01*
X1063366Y352585D01*
X1063426Y352593D01*
X1063518Y352629D01*
X1063613Y352657D01*
X1063665Y352687D01*
X1063721Y352710D01*
X1063802Y352768D01*
X1063887Y352818D01*
X1063962Y352884D01*
X1063979Y352896D01*
X1063987Y352906D01*
X1064008Y352924D01*
X1072016Y360932D01*
X1072076Y361011D01*
X1072144Y361083D01*
X1072173Y361136D01*
X1072210Y361184D01*
X1072250Y361275D01*
X1072298Y361361D01*
X1072313Y361420D01*
X1072337Y361475D01*
X1072352Y361573D01*
X1072377Y361669D01*
X1072383Y361769D01*
X1072387Y361790D01*
X1072385Y361802D01*
X1072387Y361830D01*
X1072387Y365317D01*
X1072384Y365346D01*
X1072386Y365376D01*
X1072364Y365504D01*
X1072347Y365633D01*
X1072337Y365660D01*
X1072332Y365689D01*
X1072278Y365808D01*
X1072230Y365928D01*
X1072213Y365952D01*
X1072201Y365979D01*
X1072120Y366080D01*
X1072044Y366186D01*
X1072021Y366205D01*
X1072002Y366228D01*
X1071899Y366306D01*
X1071799Y366389D01*
X1071772Y366401D01*
X1071748Y366419D01*
X1071604Y366490D01*
X1071528Y366521D01*
X1068831Y369218D01*
X1067371Y372743D01*
X1067371Y376557D01*
X1068831Y380082D01*
X1071528Y382779D01*
X1072565Y383208D01*
X1072573Y383213D01*
X1072582Y383215D01*
X1072712Y383292D01*
X1072841Y383366D01*
X1072848Y383372D01*
X1072856Y383377D01*
X1072977Y383483D01*
X1075438Y385944D01*
X1086614Y397121D01*
X1086699Y397230D01*
X1086788Y397337D01*
X1086796Y397356D01*
X1086809Y397372D01*
X1086864Y397500D01*
X1086923Y397625D01*
X1086927Y397645D01*
X1086935Y397664D01*
X1086957Y397802D01*
X1086983Y397938D01*
X1086982Y397958D01*
X1086985Y397978D01*
X1086972Y398117D01*
X1086963Y398255D01*
X1086957Y398274D01*
X1086955Y398294D01*
X1086908Y398426D01*
X1086865Y398557D01*
X1086854Y398575D01*
X1086847Y398594D01*
X1086769Y398709D01*
X1086695Y398826D01*
X1086680Y398840D01*
X1086669Y398857D01*
X1086565Y398949D01*
X1086463Y399044D01*
X1086446Y399054D01*
X1086430Y399067D01*
X1086306Y399131D01*
X1086185Y399198D01*
X1086165Y399203D01*
X1086147Y399212D01*
X1086011Y399242D01*
X1085877Y399277D01*
X1085849Y399279D01*
X1085837Y399282D01*
X1085816Y399281D01*
X1085716Y399287D01*
X1071760Y399287D01*
X1071662Y399275D01*
X1071563Y399272D01*
X1071504Y399255D01*
X1071444Y399247D01*
X1071352Y399211D01*
X1071257Y399183D01*
X1071205Y399153D01*
X1071149Y399130D01*
X1071069Y399072D01*
X1070983Y399022D01*
X1070908Y398956D01*
X1070891Y398944D01*
X1070883Y398934D01*
X1070862Y398916D01*
X1058352Y386405D01*
X1058267Y386296D01*
X1058178Y386189D01*
X1058170Y386170D01*
X1058157Y386154D01*
X1058102Y386026D01*
X1058043Y385901D01*
X1058039Y385881D01*
X1058031Y385862D01*
X1058009Y385724D01*
X1057983Y385588D01*
X1057984Y385568D01*
X1057981Y385548D01*
X1057994Y385409D01*
X1058003Y385271D01*
X1058009Y385252D01*
X1058011Y385232D01*
X1058058Y385100D01*
X1058101Y384969D01*
X1058112Y384951D01*
X1058119Y384932D01*
X1058197Y384817D01*
X1058271Y384700D01*
X1058286Y384686D01*
X1058297Y384669D01*
X1058401Y384577D01*
X1058503Y384482D01*
X1058520Y384472D01*
X1058536Y384459D01*
X1058659Y384395D01*
X1058781Y384328D01*
X1058801Y384323D01*
X1058819Y384314D01*
X1058955Y384284D01*
X1059089Y384249D01*
X1059117Y384247D01*
X1059129Y384244D01*
X1059150Y384245D01*
X1059250Y384239D01*
X1059363Y384239D01*
X1061149Y382453D01*
X1061149Y366847D01*
X1059363Y365061D01*
X1043757Y365061D01*
X1041971Y366847D01*
X1041971Y368300D01*
X1041956Y368418D01*
X1041949Y368537D01*
X1041936Y368575D01*
X1041931Y368616D01*
X1041888Y368726D01*
X1041851Y368839D01*
X1041829Y368874D01*
X1041814Y368911D01*
X1041745Y369007D01*
X1041681Y369108D01*
X1041651Y369136D01*
X1041628Y369169D01*
X1041536Y369245D01*
X1041449Y369326D01*
X1041414Y369346D01*
X1041383Y369371D01*
X1041275Y369422D01*
X1041171Y369480D01*
X1041131Y369490D01*
X1041095Y369507D01*
X1040978Y369529D01*
X1040863Y369559D01*
X1040803Y369563D01*
X1040783Y369567D01*
X1040762Y369565D01*
X1040702Y369569D01*
X1018799Y369569D01*
X1016932Y370343D01*
X992963Y394312D01*
X992189Y396179D01*
X992189Y419087D01*
X992186Y419117D01*
X992188Y419146D01*
X992166Y419274D01*
X992149Y419403D01*
X992139Y419430D01*
X992134Y419459D01*
X992080Y419578D01*
X992032Y419699D01*
X992015Y419722D01*
X992003Y419749D01*
X991922Y419851D01*
X991846Y419956D01*
X991823Y419975D01*
X991804Y419998D01*
X991701Y420076D01*
X991601Y420159D01*
X991574Y420171D01*
X991550Y420189D01*
X991406Y420260D01*
X991011Y420423D01*
X988167Y423267D01*
X988073Y423340D01*
X988068Y423345D01*
X988067Y423346D01*
X988066Y423346D01*
X987984Y423419D01*
X987948Y423437D01*
X987916Y423462D01*
X987807Y423510D01*
X987701Y423564D01*
X987662Y423572D01*
X987624Y423589D01*
X987507Y423607D01*
X987391Y423633D01*
X987350Y423632D01*
X987310Y423638D01*
X987192Y423627D01*
X987073Y423624D01*
X987034Y423612D01*
X986994Y423609D01*
X986881Y423568D01*
X986767Y423535D01*
X986732Y423515D01*
X986694Y423501D01*
X986596Y423434D01*
X986493Y423374D01*
X986448Y423334D01*
X986431Y423322D01*
X986418Y423307D01*
X986372Y423267D01*
X983529Y420423D01*
X979468Y418741D01*
X975072Y418741D01*
X971011Y420423D01*
X967903Y423531D01*
X966221Y427592D01*
X966221Y431988D01*
X967903Y436049D01*
X971011Y439157D01*
X975072Y440839D01*
X979468Y440839D01*
X983529Y439157D01*
X986372Y436313D01*
X986467Y436240D01*
X986556Y436161D01*
X986592Y436143D01*
X986624Y436118D01*
X986733Y436070D01*
X986839Y436016D01*
X986878Y436008D01*
X986916Y435991D01*
X987033Y435973D01*
X987149Y435947D01*
X987190Y435948D01*
X987230Y435942D01*
X987348Y435953D01*
X987467Y435956D01*
X987506Y435968D01*
X987546Y435971D01*
X987659Y436012D01*
X987773Y436045D01*
X987807Y436065D01*
X987846Y436079D01*
X987944Y436146D01*
X988047Y436206D01*
X988092Y436246D01*
X988109Y436258D01*
X988122Y436273D01*
X988167Y436313D01*
X991011Y439157D01*
X995072Y440839D01*
X999468Y440839D01*
X1003529Y439157D01*
X1006372Y436313D01*
X1006467Y436240D01*
X1006556Y436161D01*
X1006592Y436143D01*
X1006624Y436118D01*
X1006733Y436070D01*
X1006839Y436016D01*
X1006878Y436008D01*
X1006916Y435991D01*
X1007033Y435973D01*
X1007149Y435947D01*
X1007190Y435948D01*
X1007230Y435942D01*
X1007348Y435953D01*
X1007467Y435956D01*
X1007506Y435968D01*
X1007546Y435971D01*
X1007659Y436012D01*
X1007773Y436045D01*
X1007807Y436065D01*
X1007846Y436079D01*
X1007944Y436146D01*
X1008047Y436206D01*
X1008092Y436246D01*
X1008109Y436258D01*
X1008122Y436273D01*
X1008167Y436313D01*
X1011011Y439157D01*
X1015072Y440839D01*
X1019468Y440839D01*
X1023529Y439157D01*
X1026372Y436313D01*
X1026467Y436240D01*
X1026556Y436161D01*
X1026592Y436143D01*
X1026624Y436118D01*
X1026733Y436070D01*
X1026839Y436016D01*
X1026878Y436008D01*
X1026916Y435991D01*
X1027033Y435973D01*
X1027149Y435947D01*
X1027190Y435948D01*
X1027230Y435942D01*
X1027348Y435953D01*
X1027467Y435956D01*
X1027506Y435968D01*
X1027546Y435971D01*
X1027659Y436012D01*
X1027773Y436045D01*
X1027807Y436065D01*
X1027846Y436079D01*
X1027944Y436146D01*
X1028047Y436206D01*
X1028092Y436246D01*
X1028109Y436258D01*
X1028122Y436273D01*
X1028167Y436313D01*
X1031011Y439157D01*
X1035072Y440839D01*
X1039468Y440839D01*
X1043529Y439157D01*
X1046804Y435882D01*
X1046812Y435873D01*
X1046914Y435765D01*
X1046922Y435759D01*
X1046929Y435752D01*
X1047057Y435674D01*
X1047182Y435594D01*
X1047192Y435591D01*
X1047201Y435586D01*
X1047344Y435542D01*
X1047484Y435496D01*
X1047495Y435495D01*
X1047505Y435492D01*
X1047654Y435485D01*
X1047802Y435475D01*
X1047812Y435477D01*
X1047822Y435477D01*
X1047968Y435507D01*
X1048114Y435535D01*
X1048123Y435539D01*
X1048134Y435541D01*
X1048268Y435607D01*
X1048402Y435670D01*
X1048410Y435676D01*
X1048419Y435681D01*
X1048533Y435777D01*
X1048647Y435872D01*
X1048656Y435883D01*
X1048661Y435887D01*
X1048670Y435899D01*
X1048750Y435996D01*
X1049230Y436657D01*
X1050403Y437830D01*
X1051746Y438805D01*
X1053224Y439558D01*
X1054802Y440071D01*
X1055521Y440185D01*
X1055521Y430270D01*
X1055536Y430152D01*
X1055543Y430033D01*
X1055555Y429995D01*
X1055561Y429955D01*
X1055604Y429844D01*
X1055620Y429796D01*
X1055610Y429778D01*
X1055600Y429739D01*
X1055583Y429703D01*
X1055561Y429586D01*
X1055531Y429470D01*
X1055527Y429410D01*
X1055523Y429390D01*
X1055525Y429370D01*
X1055521Y429310D01*
X1055521Y419395D01*
X1054802Y419509D01*
X1053224Y420022D01*
X1051746Y420775D01*
X1050403Y421750D01*
X1049230Y422923D01*
X1048750Y423584D01*
X1048649Y423692D01*
X1048548Y423802D01*
X1048539Y423808D01*
X1048532Y423816D01*
X1048408Y423895D01*
X1048282Y423977D01*
X1048272Y423981D01*
X1048264Y423986D01*
X1048123Y424032D01*
X1047982Y424080D01*
X1047971Y424081D01*
X1047961Y424084D01*
X1047813Y424094D01*
X1047665Y424106D01*
X1047654Y424104D01*
X1047644Y424105D01*
X1047498Y424077D01*
X1047351Y424051D01*
X1047342Y424047D01*
X1047332Y424045D01*
X1047197Y423982D01*
X1047061Y423921D01*
X1047053Y423914D01*
X1047044Y423910D01*
X1046929Y423815D01*
X1046813Y423722D01*
X1046807Y423714D01*
X1046799Y423707D01*
X1046761Y423656D01*
X1043529Y420423D01*
X1039468Y418741D01*
X1035072Y418741D01*
X1031011Y420423D01*
X1028167Y423267D01*
X1028073Y423340D01*
X1028068Y423345D01*
X1028067Y423346D01*
X1028066Y423346D01*
X1027984Y423419D01*
X1027948Y423437D01*
X1027916Y423462D01*
X1027807Y423510D01*
X1027701Y423564D01*
X1027662Y423572D01*
X1027624Y423589D01*
X1027507Y423607D01*
X1027391Y423633D01*
X1027350Y423632D01*
X1027310Y423638D01*
X1027192Y423627D01*
X1027073Y423624D01*
X1027034Y423612D01*
X1026994Y423609D01*
X1026881Y423568D01*
X1026767Y423535D01*
X1026732Y423515D01*
X1026694Y423501D01*
X1026596Y423434D01*
X1026493Y423374D01*
X1026448Y423334D01*
X1026431Y423322D01*
X1026418Y423307D01*
X1026372Y423267D01*
X1023529Y420423D01*
X1019468Y418741D01*
X1015072Y418741D01*
X1011011Y420423D01*
X1008167Y423267D01*
X1008073Y423340D01*
X1008068Y423345D01*
X1008067Y423346D01*
X1008066Y423346D01*
X1007984Y423419D01*
X1007948Y423437D01*
X1007916Y423462D01*
X1007807Y423510D01*
X1007701Y423564D01*
X1007662Y423572D01*
X1007624Y423589D01*
X1007507Y423607D01*
X1007391Y423633D01*
X1007350Y423632D01*
X1007310Y423638D01*
X1007192Y423627D01*
X1007073Y423624D01*
X1007034Y423612D01*
X1006994Y423609D01*
X1006881Y423568D01*
X1006767Y423535D01*
X1006732Y423515D01*
X1006694Y423501D01*
X1006596Y423434D01*
X1006493Y423374D01*
X1006448Y423334D01*
X1006431Y423322D01*
X1006418Y423307D01*
X1006372Y423267D01*
X1003529Y420423D01*
X1003134Y420260D01*
X1003109Y420245D01*
X1003081Y420236D01*
X1002971Y420167D01*
X1002858Y420102D01*
X1002837Y420082D01*
X1002812Y420066D01*
X1002723Y419971D01*
X1002630Y419881D01*
X1002614Y419856D01*
X1002594Y419835D01*
X1002531Y419721D01*
X1002463Y419610D01*
X1002455Y419582D01*
X1002440Y419556D01*
X1002408Y419430D01*
X1002370Y419306D01*
X1002368Y419277D01*
X1002361Y419248D01*
X1002351Y419087D01*
X1002351Y399820D01*
X1002363Y399722D01*
X1002366Y399623D01*
X1002383Y399565D01*
X1002391Y399505D01*
X1002427Y399413D01*
X1002455Y399318D01*
X1002485Y399265D01*
X1002508Y399209D01*
X1002566Y399129D01*
X1002616Y399044D01*
X1002682Y398968D01*
X1002694Y398952D01*
X1002704Y398944D01*
X1002722Y398923D01*
X1021543Y380102D01*
X1021621Y380042D01*
X1021693Y379974D01*
X1021746Y379945D01*
X1021794Y379908D01*
X1021885Y379868D01*
X1021972Y379820D01*
X1022030Y379805D01*
X1022086Y379781D01*
X1022184Y379766D01*
X1022280Y379741D01*
X1022380Y379735D01*
X1022400Y379731D01*
X1022412Y379733D01*
X1022440Y379731D01*
X1040702Y379731D01*
X1040820Y379746D01*
X1040939Y379753D01*
X1040977Y379766D01*
X1041018Y379771D01*
X1041128Y379814D01*
X1041241Y379851D01*
X1041276Y379873D01*
X1041313Y379888D01*
X1041409Y379957D01*
X1041510Y380021D01*
X1041538Y380051D01*
X1041571Y380074D01*
X1041647Y380166D01*
X1041728Y380253D01*
X1041748Y380288D01*
X1041773Y380319D01*
X1041824Y380427D01*
X1041882Y380531D01*
X1041892Y380571D01*
X1041909Y380607D01*
X1041931Y380724D01*
X1041961Y380839D01*
X1041965Y380899D01*
X1041969Y380919D01*
X1041967Y380940D01*
X1041971Y381000D01*
X1041971Y382453D01*
X1043757Y384239D01*
X1045718Y384239D01*
X1045836Y384254D01*
X1045955Y384261D01*
X1045993Y384274D01*
X1046034Y384279D01*
X1046144Y384322D01*
X1046257Y384359D01*
X1046292Y384381D01*
X1046329Y384396D01*
X1046425Y384465D01*
X1046526Y384529D01*
X1046554Y384559D01*
X1046587Y384582D01*
X1046663Y384674D01*
X1046744Y384761D01*
X1046764Y384796D01*
X1046789Y384827D01*
X1046840Y384935D01*
X1046898Y385039D01*
X1046908Y385079D01*
X1046925Y385115D01*
X1046947Y385232D01*
X1046977Y385347D01*
X1046981Y385407D01*
X1046985Y385427D01*
X1046985Y385431D01*
X1046984Y385450D01*
X1046987Y385508D01*
X1046987Y387974D01*
X1067446Y408433D01*
X1107560Y408433D01*
X1107658Y408445D01*
X1107757Y408448D01*
X1107816Y408465D01*
X1107876Y408473D01*
X1107968Y408509D01*
X1108063Y408537D01*
X1108115Y408567D01*
X1108171Y408590D01*
X1108252Y408648D01*
X1108337Y408698D01*
X1108412Y408764D01*
X1108429Y408776D01*
X1108437Y408786D01*
X1108458Y408804D01*
X1115196Y415542D01*
X1115256Y415621D01*
X1115324Y415693D01*
X1115353Y415746D01*
X1115390Y415794D01*
X1115430Y415885D01*
X1115478Y415971D01*
X1115493Y416030D01*
X1115517Y416085D01*
X1115532Y416183D01*
X1115557Y416279D01*
X1115563Y416379D01*
X1115567Y416400D01*
X1115565Y416412D01*
X1115567Y416440D01*
X1115567Y446394D01*
X1118617Y449444D01*
X1118618Y449444D01*
X1124596Y455423D01*
X1125606Y455423D01*
X1125705Y455435D01*
X1125804Y455438D01*
X1125862Y455455D01*
X1125922Y455463D01*
X1126014Y455499D01*
X1126109Y455527D01*
X1126161Y455557D01*
X1126218Y455580D01*
X1126298Y455638D01*
X1126383Y455688D01*
X1126458Y455754D01*
X1126475Y455766D01*
X1126483Y455776D01*
X1126504Y455794D01*
X1129053Y458344D01*
X1139167Y458344D01*
X1141716Y455794D01*
X1141794Y455734D01*
X1141866Y455666D01*
X1141919Y455637D01*
X1141967Y455600D01*
X1142058Y455560D01*
X1142145Y455512D01*
X1142204Y455497D01*
X1142259Y455473D01*
X1142357Y455458D01*
X1142453Y455433D01*
X1142553Y455427D01*
X1142573Y455423D01*
X1142586Y455425D01*
X1142614Y455423D01*
X1144656Y455423D01*
X1144755Y455435D01*
X1144854Y455438D01*
X1144912Y455455D01*
X1144972Y455463D01*
X1145064Y455499D01*
X1145159Y455527D01*
X1145211Y455557D01*
X1145268Y455580D01*
X1145348Y455638D01*
X1145433Y455688D01*
X1145508Y455754D01*
X1145525Y455766D01*
X1145533Y455776D01*
X1145554Y455794D01*
X1148103Y458344D01*
X1158217Y458344D01*
X1160654Y455907D01*
X1160654Y445793D01*
X1158629Y443768D01*
X1158556Y443674D01*
X1158477Y443585D01*
X1158459Y443549D01*
X1158434Y443517D01*
X1158387Y443408D01*
X1158333Y443302D01*
X1158324Y443262D01*
X1158308Y443225D01*
X1158289Y443107D01*
X1158263Y442991D01*
X1158264Y442951D01*
X1158258Y442911D01*
X1158269Y442792D01*
X1158273Y442674D01*
X1158284Y442635D01*
X1158288Y442594D01*
X1158328Y442482D01*
X1158361Y442368D01*
X1158381Y442333D01*
X1158395Y442295D01*
X1158462Y442197D01*
X1158522Y442094D01*
X1158562Y442049D01*
X1158574Y442032D01*
X1158589Y442019D01*
X1158629Y441973D01*
X1159416Y441186D01*
X1159897Y440353D01*
X1160146Y439425D01*
X1160146Y437832D01*
X1154113Y437832D01*
X1153994Y437817D01*
X1153876Y437809D01*
X1153837Y437797D01*
X1153797Y437792D01*
X1153686Y437748D01*
X1153573Y437711D01*
X1153539Y437690D01*
X1153501Y437675D01*
X1153405Y437605D01*
X1153305Y437541D01*
X1153277Y437512D01*
X1153244Y437488D01*
X1153168Y437396D01*
X1153164Y437392D01*
X1153157Y437398D01*
X1153133Y437431D01*
X1153041Y437507D01*
X1152954Y437589D01*
X1152919Y437608D01*
X1152888Y437634D01*
X1152780Y437685D01*
X1152676Y437742D01*
X1152637Y437752D01*
X1152600Y437769D01*
X1152483Y437792D01*
X1152368Y437822D01*
X1152308Y437825D01*
X1152288Y437829D01*
X1152267Y437828D01*
X1152207Y437832D01*
X1146174Y437832D01*
X1146174Y439425D01*
X1146423Y440353D01*
X1146904Y441186D01*
X1147691Y441973D01*
X1147764Y442067D01*
X1147843Y442157D01*
X1147861Y442193D01*
X1147886Y442225D01*
X1147933Y442334D01*
X1147987Y442440D01*
X1147996Y442479D01*
X1148012Y442516D01*
X1148031Y442634D01*
X1148057Y442750D01*
X1148056Y442790D01*
X1148062Y442831D01*
X1148051Y442949D01*
X1148047Y443068D01*
X1148036Y443107D01*
X1148032Y443147D01*
X1147992Y443259D01*
X1147959Y443374D01*
X1147939Y443408D01*
X1147925Y443446D01*
X1147858Y443545D01*
X1147798Y443647D01*
X1147758Y443693D01*
X1147746Y443710D01*
X1147731Y443723D01*
X1147691Y443768D01*
X1145554Y445906D01*
X1145476Y445966D01*
X1145404Y446034D01*
X1145351Y446063D01*
X1145303Y446100D01*
X1145212Y446140D01*
X1145125Y446188D01*
X1145066Y446203D01*
X1145011Y446227D01*
X1144913Y446242D01*
X1144817Y446267D01*
X1144717Y446273D01*
X1144697Y446277D01*
X1144684Y446275D01*
X1144656Y446277D01*
X1142614Y446277D01*
X1142515Y446265D01*
X1142416Y446262D01*
X1142358Y446245D01*
X1142298Y446237D01*
X1142206Y446201D01*
X1142111Y446173D01*
X1142059Y446143D01*
X1142002Y446120D01*
X1141922Y446062D01*
X1141837Y446012D01*
X1141762Y445946D01*
X1141745Y445934D01*
X1141737Y445924D01*
X1141716Y445906D01*
X1139938Y444127D01*
X1139865Y444033D01*
X1139786Y443944D01*
X1139768Y443908D01*
X1139743Y443876D01*
X1139696Y443767D01*
X1139642Y443661D01*
X1139633Y443622D01*
X1139617Y443584D01*
X1139598Y443467D01*
X1139572Y443351D01*
X1139573Y443310D01*
X1139567Y443270D01*
X1139578Y443152D01*
X1139582Y443033D01*
X1139593Y442994D01*
X1139597Y442954D01*
X1139637Y442842D01*
X1139670Y442727D01*
X1139691Y442692D01*
X1139704Y442654D01*
X1139771Y442556D01*
X1139832Y442453D01*
X1139871Y442408D01*
X1139883Y442391D01*
X1139898Y442378D01*
X1139938Y442332D01*
X1141604Y440667D01*
X1141604Y430553D01*
X1139054Y428004D01*
X1138994Y427926D01*
X1138926Y427854D01*
X1138897Y427801D01*
X1138860Y427753D01*
X1138820Y427662D01*
X1138772Y427575D01*
X1138757Y427516D01*
X1138733Y427461D01*
X1138718Y427363D01*
X1138693Y427267D01*
X1138687Y427167D01*
X1138683Y427147D01*
X1138685Y427134D01*
X1138683Y427106D01*
X1138683Y410856D01*
X1116954Y389127D01*
X1092080Y389127D01*
X1091982Y389115D01*
X1091883Y389112D01*
X1091824Y389095D01*
X1091764Y389087D01*
X1091672Y389051D01*
X1091577Y389023D01*
X1091525Y388993D01*
X1091469Y388970D01*
X1091389Y388912D01*
X1091303Y388862D01*
X1091228Y388796D01*
X1091211Y388784D01*
X1091203Y388774D01*
X1091182Y388756D01*
X1084696Y382269D01*
X1084623Y382175D01*
X1084544Y382086D01*
X1084526Y382050D01*
X1084501Y382018D01*
X1084454Y381909D01*
X1084400Y381803D01*
X1084391Y381763D01*
X1084375Y381726D01*
X1084356Y381609D01*
X1084330Y381492D01*
X1084331Y381452D01*
X1084325Y381412D01*
X1084336Y381293D01*
X1084340Y381175D01*
X1084351Y381136D01*
X1084355Y381095D01*
X1084395Y380983D01*
X1084428Y380869D01*
X1084449Y380834D01*
X1084462Y380796D01*
X1084529Y380698D01*
X1084590Y380595D01*
X1084630Y380550D01*
X1084641Y380533D01*
X1084656Y380520D01*
X1084696Y380474D01*
X1085089Y380082D01*
X1086549Y376557D01*
X1086549Y372743D01*
X1085089Y369218D01*
X1082392Y366521D01*
X1082316Y366490D01*
X1082291Y366475D01*
X1082263Y366466D01*
X1082153Y366396D01*
X1082040Y366332D01*
X1082019Y366312D01*
X1081994Y366296D01*
X1081905Y366201D01*
X1081812Y366111D01*
X1081796Y366086D01*
X1081776Y366064D01*
X1081713Y365951D01*
X1081645Y365840D01*
X1081637Y365812D01*
X1081622Y365786D01*
X1081590Y365660D01*
X1081552Y365536D01*
X1081550Y365507D01*
X1081543Y365478D01*
X1081533Y365317D01*
X1081533Y357516D01*
X1078482Y354466D01*
X1070474Y346458D01*
X1067424Y343407D01*
X987436Y343407D01*
X984386Y346457D01*
X984386Y346458D01*
X952889Y377954D01*
X952780Y378039D01*
X952673Y378128D01*
X952654Y378136D01*
X952638Y378149D01*
X952510Y378204D01*
X952385Y378263D01*
X952365Y378267D01*
X952346Y378275D01*
X952208Y378297D01*
X952072Y378323D01*
X952052Y378322D01*
X952032Y378325D01*
X951893Y378312D01*
X951755Y378303D01*
X951736Y378297D01*
X951716Y378295D01*
X951584Y378248D01*
X951453Y378205D01*
X951435Y378194D01*
X951416Y378187D01*
X951301Y378109D01*
X951184Y378035D01*
X951170Y378020D01*
X951153Y378009D01*
X951061Y377905D01*
X950966Y377803D01*
X950956Y377786D01*
X950943Y377770D01*
X950879Y377647D01*
X950812Y377525D01*
X950807Y377505D01*
X950798Y377487D01*
X950768Y377351D01*
X950733Y377217D01*
X950731Y377189D01*
X950728Y377177D01*
X950729Y377156D01*
X950723Y377056D01*
X950723Y375800D01*
X950735Y375702D01*
X950738Y375603D01*
X950755Y375544D01*
X950763Y375484D01*
X950799Y375392D01*
X950827Y375297D01*
X950857Y375245D01*
X950880Y375189D01*
X950938Y375109D01*
X950988Y375023D01*
X951054Y374948D01*
X951066Y374931D01*
X951076Y374923D01*
X951094Y374902D01*
X977113Y348884D01*
X977113Y336148D01*
X977128Y336030D01*
X977135Y335911D01*
X977148Y335873D01*
X977153Y335832D01*
X977196Y335722D01*
X977233Y335609D01*
X977255Y335574D01*
X977270Y335537D01*
X977339Y335441D01*
X977403Y335340D01*
X977433Y335312D01*
X977456Y335279D01*
X977548Y335203D01*
X977635Y335122D01*
X977670Y335102D01*
X977701Y335077D01*
X977809Y335026D01*
X977913Y334968D01*
X977953Y334958D01*
X977989Y334941D01*
X978106Y334919D01*
X978221Y334889D01*
X978281Y334885D01*
X978301Y334881D01*
X978322Y334883D01*
X978382Y334879D01*
X983053Y334879D01*
X984839Y333093D01*
X984839Y312067D01*
X983053Y310281D01*
X962027Y310281D01*
X960241Y312067D01*
X960241Y333093D01*
X962027Y334879D01*
X966698Y334879D01*
X966816Y334894D01*
X966935Y334901D01*
X966973Y334914D01*
X967014Y334919D01*
X967124Y334962D01*
X967237Y334999D01*
X967272Y335021D01*
X967309Y335036D01*
X967405Y335105D01*
X967506Y335169D01*
X967534Y335199D01*
X967567Y335222D01*
X967643Y335314D01*
X967724Y335401D01*
X967744Y335436D01*
X967769Y335467D01*
X967820Y335575D01*
X967878Y335679D01*
X967888Y335719D01*
X967905Y335755D01*
X967927Y335872D01*
X967957Y335987D01*
X967961Y336047D01*
X967965Y336067D01*
X967963Y336088D01*
X967967Y336148D01*
X967967Y344570D01*
X967955Y344668D01*
X967952Y344767D01*
X967935Y344826D01*
X967927Y344886D01*
X967891Y344978D01*
X967863Y345073D01*
X967833Y345125D01*
X967810Y345181D01*
X967752Y345261D01*
X967702Y345347D01*
X967636Y345422D01*
X967624Y345439D01*
X967614Y345447D01*
X967596Y345468D01*
X941577Y371486D01*
X941577Y423514D01*
X941567Y423593D01*
X941567Y423673D01*
X941547Y423750D01*
X941537Y423829D01*
X941508Y423903D01*
X941488Y423981D01*
X941450Y424051D01*
X941420Y424125D01*
X941374Y424190D01*
X941335Y424259D01*
X941281Y424318D01*
X941234Y424382D01*
X941172Y424433D01*
X941118Y424491D01*
X941050Y424534D01*
X940989Y424585D01*
X940917Y424619D01*
X940849Y424662D01*
X940773Y424687D01*
X940701Y424721D01*
X940623Y424736D01*
X940547Y424760D01*
X940467Y424765D01*
X940389Y424781D01*
X940309Y424776D01*
X940230Y424781D01*
X940151Y424766D01*
X940071Y424761D01*
X939995Y424736D01*
X939917Y424721D01*
X939845Y424687D01*
X939769Y424663D01*
X939701Y424620D01*
X939629Y424586D01*
X939567Y424535D01*
X939500Y424493D01*
X939445Y424435D01*
X939384Y424384D01*
X939283Y424262D01*
X939282Y424261D01*
X939281Y424260D01*
X938310Y422923D01*
X937137Y421750D01*
X935794Y420775D01*
X934316Y420022D01*
X932738Y419509D01*
X932019Y419395D01*
X932019Y429310D01*
X932004Y429428D01*
X931997Y429547D01*
X931984Y429585D01*
X931979Y429625D01*
X931936Y429736D01*
X931920Y429784D01*
X931930Y429802D01*
X931940Y429841D01*
X931957Y429877D01*
X931979Y429994D01*
X932009Y430110D01*
X932013Y430170D01*
X932017Y430190D01*
X932015Y430210D01*
X932019Y430270D01*
X932019Y440185D01*
X932738Y440071D01*
X934316Y439558D01*
X935794Y438805D01*
X937137Y437830D01*
X938310Y436657D01*
X939281Y435320D01*
X939336Y435262D01*
X939382Y435198D01*
X939444Y435147D01*
X939499Y435088D01*
X939566Y435046D01*
X939627Y434995D01*
X939700Y434961D01*
X939767Y434918D01*
X939843Y434893D01*
X939915Y434859D01*
X939994Y434844D01*
X940070Y434819D01*
X940149Y434814D01*
X940228Y434799D01*
X940307Y434804D01*
X940387Y434799D01*
X940465Y434814D01*
X940545Y434819D01*
X940621Y434844D01*
X940700Y434859D01*
X940772Y434893D01*
X940847Y434917D01*
X940915Y434960D01*
X940987Y434994D01*
X941049Y435045D01*
X941116Y435087D01*
X941171Y435146D01*
X941233Y435197D01*
X941279Y435261D01*
X941334Y435319D01*
X941373Y435389D01*
X941420Y435454D01*
X941449Y435528D01*
X941488Y435598D01*
X941508Y435675D01*
X941537Y435749D01*
X941547Y435828D01*
X941567Y435905D01*
X941577Y436063D01*
X941577Y436065D01*
X941577Y436066D01*
X941577Y454780D01*
X941565Y454878D01*
X941562Y454977D01*
X941545Y455036D01*
X941537Y455096D01*
X941501Y455188D01*
X941473Y455283D01*
X941443Y455335D01*
X941420Y455391D01*
X941362Y455471D01*
X941312Y455557D01*
X941246Y455632D01*
X941234Y455649D01*
X941224Y455657D01*
X941206Y455678D01*
X930658Y466226D01*
X930579Y466286D01*
X930507Y466354D01*
X930454Y466383D01*
X930406Y466420D01*
X930315Y466460D01*
X930229Y466508D01*
X930170Y466523D01*
X930115Y466547D01*
X930017Y466562D01*
X929921Y466587D01*
X929821Y466593D01*
X929800Y466597D01*
X929788Y466595D01*
X929760Y466597D01*
X869326Y466597D01*
X824742Y511182D01*
X824647Y511255D01*
X824558Y511333D01*
X824522Y511352D01*
X824490Y511377D01*
X824381Y511424D01*
X824275Y511478D01*
X824236Y511487D01*
X824198Y511503D01*
X824080Y511522D01*
X823965Y511548D01*
X823924Y511546D01*
X823884Y511553D01*
X823765Y511542D01*
X823647Y511538D01*
X823608Y511527D01*
X823568Y511523D01*
X823456Y511483D01*
X823341Y511450D01*
X823306Y511429D01*
X823268Y511415D01*
X823170Y511348D01*
X823067Y511288D01*
X823022Y511248D01*
X823005Y511237D01*
X822992Y511222D01*
X822967Y511200D01*
X822384Y510958D01*
X822359Y510944D01*
X822331Y510935D01*
X822221Y510865D01*
X822108Y510801D01*
X822087Y510780D01*
X822062Y510764D01*
X821973Y510670D01*
X821880Y510579D01*
X821864Y510554D01*
X821844Y510533D01*
X821781Y510419D01*
X821713Y510308D01*
X821705Y510280D01*
X821690Y510254D01*
X821658Y510129D01*
X821620Y510004D01*
X821618Y509975D01*
X821611Y509946D01*
X821601Y509786D01*
X821601Y494210D01*
X821613Y494112D01*
X821616Y494013D01*
X821633Y493955D01*
X821641Y493895D01*
X821677Y493803D01*
X821705Y493708D01*
X821735Y493655D01*
X821758Y493599D01*
X821816Y493519D01*
X821866Y493434D01*
X821932Y493358D01*
X821944Y493342D01*
X821954Y493334D01*
X821972Y493313D01*
X874577Y440708D01*
X874748Y440297D01*
X874797Y440211D01*
X874837Y440120D01*
X874875Y440073D01*
X874905Y440021D01*
X874974Y439949D01*
X875036Y439872D01*
X875084Y439836D01*
X875126Y439792D01*
X875211Y439740D01*
X875290Y439681D01*
X875380Y439637D01*
X875397Y439626D01*
X875409Y439622D01*
X875434Y439610D01*
X876529Y439157D01*
X879372Y436313D01*
X879467Y436240D01*
X879556Y436161D01*
X879592Y436143D01*
X879624Y436118D01*
X879733Y436070D01*
X879839Y436016D01*
X879878Y436008D01*
X879916Y435991D01*
X880033Y435973D01*
X880149Y435947D01*
X880190Y435948D01*
X880230Y435942D01*
X880348Y435953D01*
X880467Y435956D01*
X880506Y435968D01*
X880546Y435971D01*
X880659Y436012D01*
X880773Y436045D01*
X880807Y436065D01*
X880846Y436079D01*
X880944Y436146D01*
X881047Y436206D01*
X881092Y436246D01*
X881109Y436258D01*
X881122Y436273D01*
X881167Y436313D01*
X884011Y439157D01*
X888072Y440839D01*
X892468Y440839D01*
X896529Y439157D01*
X899372Y436313D01*
X899467Y436240D01*
X899556Y436161D01*
X899592Y436143D01*
X899624Y436118D01*
X899733Y436070D01*
X899839Y436016D01*
X899878Y436008D01*
X899916Y435991D01*
X900033Y435973D01*
X900149Y435947D01*
X900190Y435948D01*
X900230Y435942D01*
X900348Y435953D01*
X900467Y435956D01*
X900506Y435968D01*
X900546Y435971D01*
X900659Y436012D01*
X900773Y436045D01*
X900807Y436065D01*
X900846Y436079D01*
X900944Y436146D01*
X901047Y436206D01*
X901092Y436246D01*
X901109Y436258D01*
X901122Y436273D01*
X901167Y436313D01*
X904011Y439157D01*
X908072Y440839D01*
X912468Y440839D01*
X916529Y439157D01*
X919804Y435882D01*
X919812Y435873D01*
X919914Y435765D01*
X919922Y435759D01*
X919929Y435752D01*
X920057Y435674D01*
X920182Y435594D01*
X920192Y435591D01*
X920201Y435586D01*
X920344Y435542D01*
X920484Y435496D01*
X920495Y435495D01*
X920505Y435492D01*
X920654Y435485D01*
X920802Y435475D01*
X920812Y435477D01*
X920822Y435477D01*
X920968Y435507D01*
X921114Y435535D01*
X921123Y435539D01*
X921134Y435541D01*
X921268Y435607D01*
X921402Y435670D01*
X921410Y435676D01*
X921419Y435681D01*
X921533Y435777D01*
X921647Y435872D01*
X921656Y435883D01*
X921661Y435887D01*
X921670Y435899D01*
X921750Y435996D01*
X922230Y436657D01*
X923403Y437830D01*
X924746Y438805D01*
X926224Y439558D01*
X927802Y440071D01*
X928521Y440185D01*
X928521Y430270D01*
X928536Y430152D01*
X928543Y430033D01*
X928555Y429995D01*
X928561Y429955D01*
X928604Y429844D01*
X928620Y429796D01*
X928610Y429778D01*
X928600Y429739D01*
X928583Y429703D01*
X928561Y429586D01*
X928531Y429470D01*
X928527Y429410D01*
X928523Y429390D01*
X928525Y429370D01*
X928521Y429310D01*
X928521Y419395D01*
X927802Y419509D01*
X926224Y420022D01*
X924746Y420775D01*
X923403Y421750D01*
X922230Y422923D01*
X921750Y423584D01*
X921649Y423692D01*
X921548Y423802D01*
X921539Y423808D01*
X921532Y423816D01*
X921408Y423895D01*
X921282Y423977D01*
X921272Y423981D01*
X921264Y423986D01*
X921123Y424032D01*
X920982Y424080D01*
X920971Y424081D01*
X920961Y424084D01*
X920813Y424094D01*
X920665Y424106D01*
X920654Y424104D01*
X920644Y424105D01*
X920498Y424077D01*
X920351Y424051D01*
X920342Y424047D01*
X920332Y424045D01*
X920197Y423982D01*
X920061Y423921D01*
X920053Y423914D01*
X920044Y423910D01*
X919929Y423815D01*
X919813Y423722D01*
X919807Y423714D01*
X919799Y423707D01*
X919761Y423656D01*
X916529Y420423D01*
X912468Y418741D01*
X908072Y418741D01*
X904011Y420423D01*
X901167Y423267D01*
X901073Y423340D01*
X901068Y423345D01*
X901067Y423346D01*
X901066Y423346D01*
X900984Y423419D01*
X900948Y423437D01*
X900916Y423462D01*
X900807Y423510D01*
X900701Y423564D01*
X900662Y423572D01*
X900624Y423589D01*
X900507Y423607D01*
X900391Y423633D01*
X900350Y423632D01*
X900310Y423638D01*
X900192Y423627D01*
X900073Y423624D01*
X900034Y423612D01*
X899994Y423609D01*
X899881Y423568D01*
X899767Y423535D01*
X899732Y423515D01*
X899694Y423501D01*
X899596Y423434D01*
X899493Y423374D01*
X899448Y423334D01*
X899431Y423322D01*
X899418Y423307D01*
X899372Y423267D01*
X896529Y420423D01*
X892468Y418741D01*
X888072Y418741D01*
X884011Y420423D01*
X881167Y423267D01*
X881073Y423340D01*
X881068Y423345D01*
X881067Y423346D01*
X881066Y423346D01*
X880984Y423419D01*
X880948Y423437D01*
X880916Y423462D01*
X880807Y423510D01*
X880701Y423564D01*
X880662Y423572D01*
X880624Y423589D01*
X880507Y423607D01*
X880391Y423633D01*
X880350Y423632D01*
X880310Y423638D01*
X880192Y423627D01*
X880073Y423624D01*
X880034Y423612D01*
X879994Y423609D01*
X879881Y423568D01*
X879767Y423535D01*
X879732Y423515D01*
X879694Y423501D01*
X879596Y423434D01*
X879493Y423374D01*
X879448Y423334D01*
X879431Y423322D01*
X879418Y423307D01*
X879372Y423267D01*
X876529Y420423D01*
X872468Y418741D01*
X868072Y418741D01*
X864011Y420423D01*
X861167Y423267D01*
X861073Y423340D01*
X861068Y423345D01*
X861067Y423346D01*
X861066Y423346D01*
X860984Y423419D01*
X860948Y423437D01*
X860916Y423462D01*
X860807Y423510D01*
X860701Y423564D01*
X860662Y423572D01*
X860624Y423589D01*
X860507Y423607D01*
X860391Y423633D01*
X860350Y423632D01*
X860310Y423638D01*
X860192Y423627D01*
X860073Y423624D01*
X860034Y423612D01*
X859994Y423609D01*
X859881Y423568D01*
X859767Y423535D01*
X859732Y423515D01*
X859694Y423501D01*
X859596Y423434D01*
X859493Y423374D01*
X859448Y423334D01*
X859431Y423322D01*
X859418Y423307D01*
X859372Y423267D01*
X856529Y420423D01*
X852468Y418741D01*
X848072Y418741D01*
X844011Y420423D01*
X840903Y423531D01*
X840740Y423926D01*
X840725Y423951D01*
X840716Y423979D01*
X840647Y424089D01*
X840582Y424202D01*
X840562Y424223D01*
X840546Y424248D01*
X840451Y424337D01*
X840361Y424430D01*
X840336Y424446D01*
X840315Y424466D01*
X840201Y424529D01*
X840090Y424597D01*
X840062Y424605D01*
X840036Y424620D01*
X839910Y424652D01*
X839786Y424690D01*
X839757Y424692D01*
X839728Y424699D01*
X839567Y424709D01*
X659764Y424709D01*
X657896Y425483D01*
X656288Y427091D01*
X605257Y478122D01*
X605148Y478207D01*
X605041Y478295D01*
X605022Y478304D01*
X605006Y478316D01*
X604878Y478372D01*
X604753Y478431D01*
X604733Y478435D01*
X604714Y478443D01*
X604576Y478465D01*
X604440Y478491D01*
X604420Y478489D01*
X604400Y478493D01*
X604261Y478480D01*
X604123Y478471D01*
X604104Y478465D01*
X604084Y478463D01*
X603952Y478416D01*
X603821Y478373D01*
X603803Y478362D01*
X603784Y478355D01*
X603669Y478277D01*
X603552Y478203D01*
X603538Y478188D01*
X603521Y478177D01*
X603429Y478073D01*
X603334Y477971D01*
X603324Y477953D01*
X603311Y477938D01*
X603247Y477814D01*
X603180Y477693D01*
X603175Y477673D01*
X603166Y477655D01*
X603136Y477519D01*
X603101Y477385D01*
X603099Y477357D01*
X603096Y477345D01*
X603097Y477324D01*
X603091Y477224D01*
X603091Y472240D01*
X600021Y464830D01*
X594350Y459159D01*
X586940Y456089D01*
X578920Y456089D01*
X571510Y459159D01*
X565839Y464830D01*
X562769Y472240D01*
X562769Y480260D01*
X565839Y487670D01*
X571510Y493341D01*
X578920Y496411D01*
X587192Y496411D01*
X587310Y496426D01*
X587429Y496433D01*
X587467Y496446D01*
X587508Y496451D01*
X587618Y496494D01*
X587732Y496531D01*
X587766Y496553D01*
X587803Y496568D01*
X587900Y496637D01*
X588000Y496701D01*
X588028Y496731D01*
X588061Y496754D01*
X588137Y496846D01*
X588218Y496933D01*
X588238Y496968D01*
X588264Y496999D01*
X588314Y497107D01*
X588372Y497211D01*
X588382Y497251D01*
X588399Y497287D01*
X588421Y497404D01*
X588451Y497519D01*
X588455Y497579D01*
X588459Y497599D01*
X588458Y497620D01*
X588461Y497680D01*
X588461Y524682D01*
X588453Y524751D01*
X588454Y524821D01*
X588433Y524909D01*
X588422Y524998D01*
X588396Y525063D01*
X588380Y525131D01*
X588338Y525210D01*
X588305Y525293D01*
X588264Y525350D01*
X588231Y525412D01*
X588170Y525478D01*
X588118Y525551D01*
X588064Y525595D01*
X588017Y525647D01*
X587942Y525696D01*
X587873Y525754D01*
X587810Y525783D01*
X587751Y525822D01*
X587666Y525851D01*
X587585Y525889D01*
X587517Y525902D01*
X587450Y525925D01*
X587361Y525932D01*
X587273Y525949D01*
X587203Y525945D01*
X587133Y525950D01*
X587045Y525935D01*
X586955Y525929D01*
X586889Y525908D01*
X586820Y525896D01*
X586738Y525859D01*
X586653Y525831D01*
X586594Y525794D01*
X586530Y525765D01*
X586460Y525709D01*
X586384Y525661D01*
X586336Y525610D01*
X586282Y525567D01*
X586228Y525495D01*
X586166Y525429D01*
X586132Y525368D01*
X586090Y525312D01*
X586020Y525168D01*
X585103Y522954D01*
X578306Y516157D01*
X569426Y512479D01*
X559814Y512479D01*
X550934Y516157D01*
X544137Y522954D01*
X542955Y525810D01*
X542920Y525870D01*
X542894Y525935D01*
X542842Y526008D01*
X542797Y526086D01*
X542749Y526136D01*
X542708Y526193D01*
X542638Y526250D01*
X542576Y526314D01*
X542516Y526351D01*
X542463Y526395D01*
X542381Y526434D01*
X542305Y526481D01*
X542238Y526501D01*
X542175Y526531D01*
X542087Y526548D01*
X542001Y526574D01*
X541931Y526578D01*
X541862Y526591D01*
X541773Y526585D01*
X541683Y526589D01*
X541615Y526575D01*
X541545Y526571D01*
X541460Y526543D01*
X541372Y526525D01*
X541309Y526494D01*
X541243Y526473D01*
X541167Y526425D01*
X541086Y526385D01*
X541033Y526340D01*
X540974Y526303D01*
X540912Y526237D01*
X540844Y526179D01*
X540804Y526122D01*
X540756Y526071D01*
X540713Y525993D01*
X540661Y525919D01*
X540636Y525854D01*
X540602Y525793D01*
X540580Y525706D01*
X540548Y525622D01*
X540540Y525552D01*
X540523Y525485D01*
X540513Y525324D01*
X540513Y317956D01*
X540521Y317887D01*
X540520Y317817D01*
X540541Y317729D01*
X540553Y317640D01*
X540578Y317575D01*
X540595Y317508D01*
X540637Y317428D01*
X540670Y317345D01*
X540711Y317288D01*
X540743Y317226D01*
X540804Y317160D01*
X540856Y317087D01*
X540910Y317043D01*
X540957Y316991D01*
X541032Y316942D01*
X541101Y316885D01*
X541165Y316855D01*
X541223Y316816D01*
X541308Y316787D01*
X541389Y316749D01*
X541458Y316736D01*
X541524Y316713D01*
X541613Y316706D01*
X541701Y316689D01*
X541771Y316694D01*
X541841Y316688D01*
X541929Y316703D01*
X542019Y316709D01*
X542085Y316730D01*
X542154Y316742D01*
X542236Y316779D01*
X542321Y316807D01*
X542380Y316844D01*
X542444Y316873D01*
X542514Y316929D01*
X542590Y316977D01*
X542638Y317028D01*
X542692Y317072D01*
X542747Y317143D01*
X542808Y317209D01*
X542842Y317270D01*
X542884Y317326D01*
X542955Y317470D01*
X544137Y320326D01*
X550934Y327123D01*
X559814Y330801D01*
X569426Y330801D01*
X578306Y327123D01*
X585103Y320326D01*
X588781Y311446D01*
X588781Y301834D01*
X585103Y292954D01*
X578306Y286157D01*
X575861Y285145D01*
X575800Y285110D01*
X575735Y285084D01*
X575662Y285032D01*
X575584Y284987D01*
X575534Y284939D01*
X575478Y284898D01*
X575420Y284828D01*
X575356Y284766D01*
X575319Y284706D01*
X575275Y284653D01*
X575237Y284571D01*
X575190Y284495D01*
X575169Y284428D01*
X575139Y284365D01*
X575122Y284277D01*
X575096Y284191D01*
X575093Y284121D01*
X575080Y284052D01*
X575085Y283963D01*
X575081Y283873D01*
X575095Y283805D01*
X575099Y283735D01*
X575127Y283650D01*
X575145Y283562D01*
X575176Y283499D01*
X575197Y283433D01*
X575245Y283357D01*
X575285Y283276D01*
X575330Y283223D01*
X575368Y283164D01*
X575433Y283102D01*
X575491Y283034D01*
X575548Y282994D01*
X575599Y282946D01*
X575678Y282903D01*
X575751Y282851D01*
X575817Y282826D01*
X575878Y282792D01*
X575964Y282770D01*
X576049Y282738D01*
X576118Y282730D01*
X576186Y282713D01*
X576346Y282703D01*
X1132894Y282703D01*
X1132963Y282711D01*
G37*
%LPC*%
G36*
X883287Y310281D02*
X883287Y310281D01*
X881501Y312067D01*
X881501Y333093D01*
X883287Y334879D01*
X904313Y334879D01*
X906099Y333093D01*
X906099Y312067D01*
X904313Y310281D01*
X883287Y310281D01*
G37*
%LPD*%
%LPC*%
G36*
X992058Y534866D02*
X992058Y534866D01*
X987877Y536598D01*
X984678Y539797D01*
X982946Y543978D01*
X982946Y548502D01*
X984678Y552683D01*
X987877Y555882D01*
X992058Y557614D01*
X996582Y557614D01*
X1000763Y555882D01*
X1003962Y552683D01*
X1005694Y548502D01*
X1005694Y543978D01*
X1003962Y539797D01*
X1000763Y536598D01*
X996582Y534866D01*
X992058Y534866D01*
G37*
%LPD*%
%LPC*%
G36*
X915858Y534866D02*
X915858Y534866D01*
X911677Y536598D01*
X908478Y539797D01*
X906746Y543978D01*
X906746Y548502D01*
X908478Y552683D01*
X911677Y555882D01*
X915858Y557614D01*
X920382Y557614D01*
X924563Y555882D01*
X927762Y552683D01*
X929494Y548502D01*
X929494Y543978D01*
X927762Y539797D01*
X924563Y536598D01*
X920382Y534866D01*
X915858Y534866D01*
G37*
%LPD*%
%LPC*%
G36*
X738058Y534866D02*
X738058Y534866D01*
X733877Y536598D01*
X730678Y539797D01*
X728946Y543978D01*
X728946Y548502D01*
X730678Y552683D01*
X733877Y555882D01*
X738058Y557614D01*
X742582Y557614D01*
X746763Y555882D01*
X749962Y552683D01*
X751694Y548502D01*
X751694Y543978D01*
X749962Y539797D01*
X746763Y536598D01*
X742582Y534866D01*
X738058Y534866D01*
G37*
%LPD*%
%LPC*%
G36*
X687258Y534866D02*
X687258Y534866D01*
X683077Y536598D01*
X679878Y539797D01*
X678146Y543978D01*
X678146Y548502D01*
X679878Y552683D01*
X683077Y555882D01*
X687258Y557614D01*
X691782Y557614D01*
X695963Y555882D01*
X699162Y552683D01*
X700894Y548502D01*
X700894Y543978D01*
X699162Y539797D01*
X695963Y536598D01*
X691782Y534866D01*
X687258Y534866D01*
G37*
%LPD*%
%LPC*%
G36*
X1093658Y534866D02*
X1093658Y534866D01*
X1089477Y536598D01*
X1086278Y539797D01*
X1084546Y543978D01*
X1084546Y548502D01*
X1086278Y552683D01*
X1089477Y555882D01*
X1093658Y557614D01*
X1098182Y557614D01*
X1102363Y555882D01*
X1105562Y552683D01*
X1107294Y548502D01*
X1107294Y543978D01*
X1105562Y539797D01*
X1102363Y536598D01*
X1098182Y534866D01*
X1093658Y534866D01*
G37*
%LPD*%
%LPC*%
G36*
X1068258Y534866D02*
X1068258Y534866D01*
X1064077Y536598D01*
X1060878Y539797D01*
X1059146Y543978D01*
X1059146Y548502D01*
X1060878Y552683D01*
X1064077Y555882D01*
X1068258Y557614D01*
X1072782Y557614D01*
X1076963Y555882D01*
X1080162Y552683D01*
X1081894Y548502D01*
X1081894Y543978D01*
X1080162Y539797D01*
X1076963Y536598D01*
X1072782Y534866D01*
X1068258Y534866D01*
G37*
%LPD*%
%LPC*%
G36*
X890458Y534866D02*
X890458Y534866D01*
X886277Y536598D01*
X883078Y539797D01*
X881346Y543978D01*
X881346Y548502D01*
X883078Y552683D01*
X886277Y555882D01*
X890458Y557614D01*
X894982Y557614D01*
X899163Y555882D01*
X902362Y552683D01*
X904094Y548502D01*
X904094Y543978D01*
X902362Y539797D01*
X899163Y536598D01*
X894982Y534866D01*
X890458Y534866D01*
G37*
%LPD*%
%LPC*%
G36*
X941258Y534866D02*
X941258Y534866D01*
X937077Y536598D01*
X933878Y539797D01*
X932146Y543978D01*
X932146Y548502D01*
X933878Y552683D01*
X937077Y555882D01*
X941258Y557614D01*
X945782Y557614D01*
X949963Y555882D01*
X953162Y552683D01*
X954894Y548502D01*
X954894Y543978D01*
X953162Y539797D01*
X949963Y536598D01*
X945782Y534866D01*
X941258Y534866D01*
G37*
%LPD*%
%LPC*%
G36*
X1042858Y534866D02*
X1042858Y534866D01*
X1038677Y536598D01*
X1035478Y539797D01*
X1033746Y543978D01*
X1033746Y548502D01*
X1035478Y552683D01*
X1038677Y555882D01*
X1042858Y557614D01*
X1047382Y557614D01*
X1051563Y555882D01*
X1054762Y552683D01*
X1056494Y548502D01*
X1056494Y543978D01*
X1054762Y539797D01*
X1051563Y536598D01*
X1047382Y534866D01*
X1042858Y534866D01*
G37*
%LPD*%
%LPC*%
G36*
X712658Y534866D02*
X712658Y534866D01*
X708477Y536598D01*
X705278Y539797D01*
X703546Y543978D01*
X703546Y548502D01*
X705278Y552683D01*
X708477Y555882D01*
X712658Y557614D01*
X717182Y557614D01*
X721363Y555882D01*
X724562Y552683D01*
X726294Y548502D01*
X726294Y543978D01*
X724562Y539797D01*
X721363Y536598D01*
X717182Y534866D01*
X712658Y534866D01*
G37*
%LPD*%
%LPC*%
G36*
X966658Y509466D02*
X966658Y509466D01*
X962477Y511198D01*
X959278Y514397D01*
X957546Y518578D01*
X957546Y523102D01*
X959278Y527283D01*
X962477Y530482D01*
X966658Y532214D01*
X971182Y532214D01*
X975363Y530482D01*
X978562Y527283D01*
X980294Y523102D01*
X980294Y518578D01*
X978562Y514397D01*
X975363Y511198D01*
X971182Y509466D01*
X966658Y509466D01*
G37*
%LPD*%
%LPC*%
G36*
X763458Y509466D02*
X763458Y509466D01*
X759277Y511198D01*
X756078Y514397D01*
X754346Y518578D01*
X754346Y523102D01*
X756078Y527283D01*
X759277Y530482D01*
X763458Y532214D01*
X767982Y532214D01*
X772163Y530482D01*
X775362Y527283D01*
X777094Y523102D01*
X777094Y518578D01*
X775362Y514397D01*
X772163Y511198D01*
X767982Y509466D01*
X763458Y509466D01*
G37*
%LPD*%
%LPC*%
G36*
X1068258Y509466D02*
X1068258Y509466D01*
X1064077Y511198D01*
X1060878Y514397D01*
X1059146Y518578D01*
X1059146Y523102D01*
X1060878Y527283D01*
X1064077Y530482D01*
X1068258Y532214D01*
X1072782Y532214D01*
X1076963Y530482D01*
X1080162Y527283D01*
X1081894Y523102D01*
X1081894Y518578D01*
X1080162Y514397D01*
X1076963Y511198D01*
X1072782Y509466D01*
X1068258Y509466D01*
G37*
%LPD*%
%LPC*%
G36*
X992058Y509466D02*
X992058Y509466D01*
X987877Y511198D01*
X984678Y514397D01*
X982946Y518578D01*
X982946Y523102D01*
X984678Y527283D01*
X987877Y530482D01*
X992058Y532214D01*
X996582Y532214D01*
X1000763Y530482D01*
X1003962Y527283D01*
X1005694Y523102D01*
X1005694Y518578D01*
X1003962Y514397D01*
X1000763Y511198D01*
X996582Y509466D01*
X992058Y509466D01*
G37*
%LPD*%
%LPC*%
G36*
X1042858Y509466D02*
X1042858Y509466D01*
X1038677Y511198D01*
X1035478Y514397D01*
X1033746Y518578D01*
X1033746Y523102D01*
X1035478Y527283D01*
X1038677Y530482D01*
X1042858Y532214D01*
X1047382Y532214D01*
X1051563Y530482D01*
X1054762Y527283D01*
X1056494Y523102D01*
X1056494Y518578D01*
X1054762Y514397D01*
X1051563Y511198D01*
X1047382Y509466D01*
X1042858Y509466D01*
G37*
%LPD*%
%LPC*%
G36*
X1017458Y509466D02*
X1017458Y509466D01*
X1013277Y511198D01*
X1010078Y514397D01*
X1008346Y518578D01*
X1008346Y523102D01*
X1010078Y527283D01*
X1013277Y530482D01*
X1017458Y532214D01*
X1021982Y532214D01*
X1026163Y530482D01*
X1029362Y527283D01*
X1031094Y523102D01*
X1031094Y518578D01*
X1029362Y514397D01*
X1026163Y511198D01*
X1021982Y509466D01*
X1017458Y509466D01*
G37*
%LPD*%
%LPC*%
G36*
X865058Y534866D02*
X865058Y534866D01*
X860877Y536598D01*
X857678Y539797D01*
X855946Y543978D01*
X855946Y548502D01*
X857678Y552683D01*
X860877Y555882D01*
X865058Y557614D01*
X869582Y557614D01*
X873763Y555882D01*
X876962Y552683D01*
X878694Y548502D01*
X878694Y543978D01*
X876962Y539797D01*
X873763Y536598D01*
X869582Y534866D01*
X865058Y534866D01*
G37*
%LPD*%
%LPC*%
G36*
X1068258Y458666D02*
X1068258Y458666D01*
X1064077Y460398D01*
X1060878Y463597D01*
X1059146Y467778D01*
X1059146Y472302D01*
X1060878Y476483D01*
X1064077Y479682D01*
X1068258Y481414D01*
X1072782Y481414D01*
X1076963Y479682D01*
X1080162Y476483D01*
X1081894Y472302D01*
X1081894Y467778D01*
X1080162Y463597D01*
X1076963Y460398D01*
X1072782Y458666D01*
X1068258Y458666D01*
G37*
%LPD*%
%LPC*%
G36*
X1093658Y458666D02*
X1093658Y458666D01*
X1089477Y460398D01*
X1086278Y463597D01*
X1084546Y467778D01*
X1084546Y472302D01*
X1086278Y476483D01*
X1089477Y479682D01*
X1093658Y481414D01*
X1098182Y481414D01*
X1102363Y479682D01*
X1105562Y476483D01*
X1107294Y472302D01*
X1107294Y467778D01*
X1105562Y463597D01*
X1102363Y460398D01*
X1098182Y458666D01*
X1093658Y458666D01*
G37*
%LPD*%
%LPC*%
G36*
X1093658Y484066D02*
X1093658Y484066D01*
X1089477Y485798D01*
X1086278Y488997D01*
X1084546Y493178D01*
X1084546Y497702D01*
X1086278Y501883D01*
X1089477Y505082D01*
X1093658Y506814D01*
X1098182Y506814D01*
X1102363Y505082D01*
X1105562Y501883D01*
X1107294Y497702D01*
X1107294Y493178D01*
X1105562Y488997D01*
X1102363Y485798D01*
X1098182Y484066D01*
X1093658Y484066D01*
G37*
%LPD*%
%LPC*%
G36*
X941258Y509466D02*
X941258Y509466D01*
X937077Y511198D01*
X933878Y514397D01*
X932146Y518578D01*
X932146Y523102D01*
X933878Y527283D01*
X937077Y530482D01*
X941258Y532214D01*
X945782Y532214D01*
X949963Y530482D01*
X953162Y527283D01*
X954894Y523102D01*
X954894Y518578D01*
X953162Y514397D01*
X949963Y511198D01*
X945782Y509466D01*
X941258Y509466D01*
G37*
%LPD*%
%LPC*%
G36*
X1068258Y484066D02*
X1068258Y484066D01*
X1064077Y485798D01*
X1060878Y488997D01*
X1059146Y493178D01*
X1059146Y497702D01*
X1060878Y501883D01*
X1064077Y505082D01*
X1068258Y506814D01*
X1072782Y506814D01*
X1076963Y505082D01*
X1080162Y501883D01*
X1081894Y497702D01*
X1081894Y493178D01*
X1080162Y488997D01*
X1076963Y485798D01*
X1072782Y484066D01*
X1068258Y484066D01*
G37*
%LPD*%
%LPC*%
G36*
X890458Y509466D02*
X890458Y509466D01*
X886277Y511198D01*
X883078Y514397D01*
X881346Y518578D01*
X881346Y523102D01*
X883078Y527283D01*
X886277Y530482D01*
X890458Y532214D01*
X894982Y532214D01*
X899163Y530482D01*
X902362Y527283D01*
X904094Y523102D01*
X904094Y518578D01*
X902362Y514397D01*
X899163Y511198D01*
X894982Y509466D01*
X890458Y509466D01*
G37*
%LPD*%
%LPC*%
G36*
X738058Y509466D02*
X738058Y509466D01*
X733877Y511198D01*
X730678Y514397D01*
X728946Y518578D01*
X728946Y523102D01*
X730678Y527283D01*
X733877Y530482D01*
X738058Y532214D01*
X742582Y532214D01*
X746763Y530482D01*
X749962Y527283D01*
X751694Y523102D01*
X751694Y518578D01*
X749962Y514397D01*
X746763Y511198D01*
X742582Y509466D01*
X738058Y509466D01*
G37*
%LPD*%
%LPC*%
G36*
X1100453Y365061D02*
X1100453Y365061D01*
X1096928Y366521D01*
X1094231Y369218D01*
X1092771Y372743D01*
X1092771Y376557D01*
X1094231Y380082D01*
X1096928Y382779D01*
X1100453Y384239D01*
X1104267Y384239D01*
X1107792Y382779D01*
X1110489Y380082D01*
X1111949Y376557D01*
X1111949Y372743D01*
X1110489Y369218D01*
X1107792Y366521D01*
X1104267Y365061D01*
X1100453Y365061D01*
G37*
%LPD*%
%LPC*%
G36*
X940039Y325079D02*
X940039Y325079D01*
X940039Y334122D01*
X940301Y334080D01*
X942066Y333507D01*
X943720Y332664D01*
X945221Y331574D01*
X946534Y330261D01*
X947624Y328760D01*
X948467Y327106D01*
X949040Y325341D01*
X949082Y325079D01*
X940039Y325079D01*
G37*
%LPD*%
%LPC*%
G36*
X861299Y325079D02*
X861299Y325079D01*
X861299Y334122D01*
X861561Y334080D01*
X863326Y333507D01*
X864980Y332664D01*
X866481Y331574D01*
X867794Y330261D01*
X868884Y328760D01*
X869727Y327106D01*
X870300Y325341D01*
X870342Y325079D01*
X861299Y325079D01*
G37*
%LPD*%
%LPC*%
G36*
X940039Y320081D02*
X940039Y320081D01*
X949082Y320081D01*
X949040Y319819D01*
X948467Y318054D01*
X947624Y316400D01*
X946534Y314899D01*
X945221Y313586D01*
X943720Y312496D01*
X942066Y311653D01*
X940301Y311080D01*
X940039Y311038D01*
X940039Y320081D01*
G37*
%LPD*%
%LPC*%
G36*
X925998Y325079D02*
X925998Y325079D01*
X926040Y325341D01*
X926613Y327106D01*
X927456Y328760D01*
X928546Y330261D01*
X929859Y331574D01*
X931360Y332664D01*
X933014Y333507D01*
X934779Y334080D01*
X935041Y334122D01*
X935041Y325079D01*
X925998Y325079D01*
G37*
%LPD*%
%LPC*%
G36*
X847258Y325079D02*
X847258Y325079D01*
X847300Y325341D01*
X847873Y327106D01*
X848716Y328760D01*
X849806Y330261D01*
X851119Y331574D01*
X852620Y332664D01*
X854274Y333507D01*
X856039Y334080D01*
X856301Y334122D01*
X856301Y325079D01*
X847258Y325079D01*
G37*
%LPD*%
%LPC*%
G36*
X861299Y320081D02*
X861299Y320081D01*
X870342Y320081D01*
X870300Y319819D01*
X869727Y318054D01*
X868884Y316400D01*
X867794Y314899D01*
X866481Y313586D01*
X864980Y312496D01*
X863326Y311653D01*
X861561Y311080D01*
X861299Y311038D01*
X861299Y320081D01*
G37*
%LPD*%
%LPC*%
G36*
X934779Y311080D02*
X934779Y311080D01*
X933014Y311653D01*
X931360Y312496D01*
X929859Y313586D01*
X928546Y314899D01*
X927456Y316400D01*
X926613Y318054D01*
X926040Y319819D01*
X925998Y320081D01*
X935041Y320081D01*
X935041Y311038D01*
X934779Y311080D01*
G37*
%LPD*%
%LPC*%
G36*
X856039Y311080D02*
X856039Y311080D01*
X854274Y311653D01*
X852620Y312496D01*
X851119Y313586D01*
X849806Y314899D01*
X848716Y316400D01*
X847873Y318054D01*
X847300Y319819D01*
X847258Y320081D01*
X856301Y320081D01*
X856301Y311038D01*
X856039Y311080D01*
G37*
%LPD*%
%LPC*%
G36*
X651469Y477599D02*
X651469Y477599D01*
X651469Y485181D01*
X659051Y485181D01*
X659051Y479806D01*
X658878Y479159D01*
X658543Y478580D01*
X658070Y478107D01*
X657491Y477772D01*
X656844Y477599D01*
X651469Y477599D01*
G37*
%LPD*%
%LPC*%
G36*
X641096Y477599D02*
X641096Y477599D01*
X640449Y477772D01*
X639870Y478107D01*
X639397Y478580D01*
X639062Y479159D01*
X638889Y479806D01*
X638889Y485181D01*
X646471Y485181D01*
X646471Y477599D01*
X641096Y477599D01*
G37*
%LPD*%
%LPC*%
G36*
X1059019Y431539D02*
X1059019Y431539D01*
X1059019Y440185D01*
X1059738Y440071D01*
X1061316Y439558D01*
X1062794Y438805D01*
X1064137Y437830D01*
X1065310Y436657D01*
X1066285Y435314D01*
X1067038Y433836D01*
X1067551Y432258D01*
X1067665Y431539D01*
X1059019Y431539D01*
G37*
%LPD*%
%LPC*%
G36*
X1059019Y428041D02*
X1059019Y428041D01*
X1067665Y428041D01*
X1067551Y427322D01*
X1067038Y425744D01*
X1066285Y424266D01*
X1065310Y422923D01*
X1064137Y421750D01*
X1062794Y420775D01*
X1061316Y420022D01*
X1059738Y419509D01*
X1059019Y419395D01*
X1059019Y428041D01*
G37*
%LPD*%
%LPC*%
G36*
X666659Y548779D02*
X666659Y548779D01*
X666659Y556839D01*
X666664Y556838D01*
X668291Y556310D01*
X669815Y555533D01*
X671199Y554528D01*
X672408Y553319D01*
X673413Y551935D01*
X674190Y550411D01*
X674718Y548784D01*
X674719Y548779D01*
X666659Y548779D01*
G37*
%LPD*%
%LPC*%
G36*
X1022259Y548779D02*
X1022259Y548779D01*
X1022259Y556839D01*
X1022264Y556838D01*
X1023891Y556310D01*
X1025415Y555533D01*
X1026799Y554528D01*
X1028008Y553319D01*
X1029013Y551935D01*
X1029790Y550411D01*
X1030318Y548784D01*
X1030319Y548779D01*
X1022259Y548779D01*
G37*
%LPD*%
%LPC*%
G36*
X971459Y548779D02*
X971459Y548779D01*
X971459Y556839D01*
X971464Y556838D01*
X973091Y556310D01*
X974615Y555533D01*
X975999Y554528D01*
X977208Y553319D01*
X978213Y551935D01*
X978990Y550411D01*
X979518Y548784D01*
X979519Y548779D01*
X971459Y548779D01*
G37*
%LPD*%
%LPC*%
G36*
X844459Y548779D02*
X844459Y548779D01*
X844459Y556839D01*
X844464Y556838D01*
X846091Y556310D01*
X847615Y555533D01*
X848999Y554528D01*
X850208Y553319D01*
X851213Y551935D01*
X851990Y550411D01*
X852518Y548784D01*
X852519Y548779D01*
X844459Y548779D01*
G37*
%LPD*%
%LPC*%
G36*
X768259Y548779D02*
X768259Y548779D01*
X768259Y556839D01*
X768264Y556838D01*
X769891Y556310D01*
X771415Y555533D01*
X772799Y554528D01*
X774008Y553319D01*
X775013Y551935D01*
X775790Y550411D01*
X776318Y548784D01*
X776319Y548779D01*
X768259Y548779D01*
G37*
%LPD*%
%LPC*%
G36*
X920659Y523379D02*
X920659Y523379D01*
X920659Y531439D01*
X920664Y531438D01*
X922291Y530910D01*
X923815Y530133D01*
X925199Y529128D01*
X926408Y527919D01*
X927413Y526535D01*
X928190Y525011D01*
X928718Y523384D01*
X928719Y523379D01*
X920659Y523379D01*
G37*
%LPD*%
%LPC*%
G36*
X1098459Y523379D02*
X1098459Y523379D01*
X1098459Y531439D01*
X1098464Y531438D01*
X1100091Y530910D01*
X1101615Y530133D01*
X1102999Y529128D01*
X1104208Y527919D01*
X1105213Y526535D01*
X1105990Y525011D01*
X1106518Y523384D01*
X1106519Y523379D01*
X1098459Y523379D01*
G37*
%LPD*%
%LPC*%
G36*
X717459Y523379D02*
X717459Y523379D01*
X717459Y531439D01*
X717464Y531438D01*
X719091Y530910D01*
X720615Y530133D01*
X721999Y529128D01*
X723208Y527919D01*
X724213Y526535D01*
X724990Y525011D01*
X725518Y523384D01*
X725519Y523379D01*
X717459Y523379D01*
G37*
%LPD*%
%LPC*%
G36*
X831321Y548779D02*
X831321Y548779D01*
X831322Y548784D01*
X831850Y550411D01*
X832627Y551935D01*
X833632Y553319D01*
X834841Y554528D01*
X836225Y555533D01*
X837749Y556310D01*
X839376Y556838D01*
X839381Y556839D01*
X839381Y548779D01*
X831321Y548779D01*
G37*
%LPD*%
%LPC*%
G36*
X666659Y543701D02*
X666659Y543701D01*
X674719Y543701D01*
X674718Y543696D01*
X674190Y542069D01*
X673413Y540545D01*
X672408Y539161D01*
X671199Y537952D01*
X669815Y536947D01*
X668291Y536170D01*
X666664Y535642D01*
X666659Y535641D01*
X666659Y543701D01*
G37*
%LPD*%
%LPC*%
G36*
X704321Y523379D02*
X704321Y523379D01*
X704322Y523384D01*
X704850Y525011D01*
X705627Y526535D01*
X706632Y527919D01*
X707841Y529128D01*
X709225Y530133D01*
X710749Y530910D01*
X712376Y531438D01*
X712381Y531439D01*
X712381Y523379D01*
X704321Y523379D01*
G37*
%LPD*%
%LPC*%
G36*
X1085321Y523379D02*
X1085321Y523379D01*
X1085322Y523384D01*
X1085850Y525011D01*
X1086627Y526535D01*
X1087632Y527919D01*
X1088841Y529128D01*
X1090225Y530133D01*
X1091749Y530910D01*
X1093376Y531438D01*
X1093381Y531439D01*
X1093381Y523379D01*
X1085321Y523379D01*
G37*
%LPD*%
%LPC*%
G36*
X907521Y523379D02*
X907521Y523379D01*
X907522Y523384D01*
X908050Y525011D01*
X908827Y526535D01*
X909832Y527919D01*
X911041Y529128D01*
X912425Y530133D01*
X913949Y530910D01*
X915576Y531438D01*
X915581Y531439D01*
X915581Y523379D01*
X907521Y523379D01*
G37*
%LPD*%
%LPC*%
G36*
X755121Y548779D02*
X755121Y548779D01*
X755122Y548784D01*
X755650Y550411D01*
X756427Y551935D01*
X757432Y553319D01*
X758641Y554528D01*
X760025Y555533D01*
X761549Y556310D01*
X763176Y556838D01*
X763181Y556839D01*
X763181Y548779D01*
X755121Y548779D01*
G37*
%LPD*%
%LPC*%
G36*
X1009121Y548779D02*
X1009121Y548779D01*
X1009122Y548784D01*
X1009650Y550411D01*
X1010427Y551935D01*
X1011432Y553319D01*
X1012641Y554528D01*
X1014025Y555533D01*
X1015549Y556310D01*
X1017176Y556838D01*
X1017181Y556839D01*
X1017181Y548779D01*
X1009121Y548779D01*
G37*
%LPD*%
%LPC*%
G36*
X958321Y548779D02*
X958321Y548779D01*
X958322Y548784D01*
X958850Y550411D01*
X959627Y551935D01*
X960632Y553319D01*
X961841Y554528D01*
X963225Y555533D01*
X964749Y556310D01*
X966376Y556838D01*
X966381Y556839D01*
X966381Y548779D01*
X958321Y548779D01*
G37*
%LPD*%
%LPC*%
G36*
X717459Y518301D02*
X717459Y518301D01*
X725519Y518301D01*
X725518Y518296D01*
X724990Y516669D01*
X724213Y515145D01*
X723208Y513761D01*
X721999Y512552D01*
X720615Y511547D01*
X719091Y510770D01*
X717464Y510242D01*
X717459Y510241D01*
X717459Y518301D01*
G37*
%LPD*%
%LPC*%
G36*
X1098459Y518301D02*
X1098459Y518301D01*
X1106519Y518301D01*
X1106518Y518296D01*
X1105990Y516669D01*
X1105213Y515145D01*
X1104208Y513761D01*
X1102999Y512552D01*
X1101615Y511547D01*
X1100091Y510770D01*
X1098464Y510242D01*
X1098459Y510241D01*
X1098459Y518301D01*
G37*
%LPD*%
%LPC*%
G36*
X920659Y518301D02*
X920659Y518301D01*
X928719Y518301D01*
X928718Y518296D01*
X928190Y516669D01*
X927413Y515145D01*
X926408Y513761D01*
X925199Y512552D01*
X923815Y511547D01*
X922291Y510770D01*
X920664Y510242D01*
X920659Y510241D01*
X920659Y518301D01*
G37*
%LPD*%
%LPC*%
G36*
X971459Y543701D02*
X971459Y543701D01*
X979519Y543701D01*
X979518Y543696D01*
X978990Y542069D01*
X978213Y540545D01*
X977208Y539161D01*
X975999Y537952D01*
X974615Y536947D01*
X973091Y536170D01*
X971464Y535642D01*
X971459Y535641D01*
X971459Y543701D01*
G37*
%LPD*%
%LPC*%
G36*
X1022259Y543701D02*
X1022259Y543701D01*
X1030319Y543701D01*
X1030318Y543696D01*
X1029790Y542069D01*
X1029013Y540545D01*
X1028008Y539161D01*
X1026799Y537952D01*
X1025415Y536947D01*
X1023891Y536170D01*
X1022264Y535642D01*
X1022259Y535641D01*
X1022259Y543701D01*
G37*
%LPD*%
%LPC*%
G36*
X768259Y543701D02*
X768259Y543701D01*
X776319Y543701D01*
X776318Y543696D01*
X775790Y542069D01*
X775013Y540545D01*
X774008Y539161D01*
X772799Y537952D01*
X771415Y536947D01*
X769891Y536170D01*
X768264Y535642D01*
X768259Y535641D01*
X768259Y543701D01*
G37*
%LPD*%
%LPC*%
G36*
X653521Y548779D02*
X653521Y548779D01*
X653522Y548784D01*
X654050Y550411D01*
X654827Y551935D01*
X655832Y553319D01*
X657041Y554528D01*
X658425Y555533D01*
X659949Y556310D01*
X661576Y556838D01*
X661581Y556839D01*
X661581Y548779D01*
X653521Y548779D01*
G37*
%LPD*%
%LPC*%
G36*
X915576Y510242D02*
X915576Y510242D01*
X913949Y510770D01*
X912425Y511547D01*
X911041Y512552D01*
X909832Y513761D01*
X908827Y515145D01*
X908050Y516669D01*
X907522Y518296D01*
X907521Y518301D01*
X915581Y518301D01*
X915581Y510241D01*
X915576Y510242D01*
G37*
%LPD*%
%LPC*%
G36*
X966376Y535642D02*
X966376Y535642D01*
X964749Y536170D01*
X963225Y536947D01*
X961841Y537952D01*
X960632Y539161D01*
X959627Y540545D01*
X958850Y542069D01*
X958322Y543696D01*
X958321Y543701D01*
X966381Y543701D01*
X966381Y535641D01*
X966376Y535642D01*
G37*
%LPD*%
%LPC*%
G36*
X1017176Y535642D02*
X1017176Y535642D01*
X1015549Y536170D01*
X1014025Y536947D01*
X1012641Y537952D01*
X1011432Y539161D01*
X1010427Y540545D01*
X1009650Y542069D01*
X1009122Y543696D01*
X1009121Y543701D01*
X1017181Y543701D01*
X1017181Y535641D01*
X1017176Y535642D01*
G37*
%LPD*%
%LPC*%
G36*
X661576Y535642D02*
X661576Y535642D01*
X659949Y536170D01*
X658425Y536947D01*
X657041Y537952D01*
X655832Y539161D01*
X654827Y540545D01*
X654050Y542069D01*
X653522Y543696D01*
X653521Y543701D01*
X661581Y543701D01*
X661581Y535641D01*
X661576Y535642D01*
G37*
%LPD*%
%LPC*%
G36*
X763176Y535642D02*
X763176Y535642D01*
X761549Y536170D01*
X760025Y536947D01*
X758641Y537952D01*
X757432Y539161D01*
X756427Y540545D01*
X755650Y542069D01*
X755122Y543696D01*
X755121Y543701D01*
X763181Y543701D01*
X763181Y535641D01*
X763176Y535642D01*
G37*
%LPD*%
%LPC*%
G36*
X712376Y510242D02*
X712376Y510242D01*
X710749Y510770D01*
X709225Y511547D01*
X707841Y512552D01*
X706632Y513761D01*
X705627Y515145D01*
X704850Y516669D01*
X704322Y518296D01*
X704321Y518301D01*
X712381Y518301D01*
X712381Y510241D01*
X712376Y510242D01*
G37*
%LPD*%
%LPC*%
G36*
X1093376Y510242D02*
X1093376Y510242D01*
X1091749Y510770D01*
X1090225Y511547D01*
X1088841Y512552D01*
X1087632Y513761D01*
X1086627Y515145D01*
X1085850Y516669D01*
X1085322Y518296D01*
X1085321Y518301D01*
X1093381Y518301D01*
X1093381Y510241D01*
X1093376Y510242D01*
G37*
%LPD*%
%LPC*%
G36*
X1129759Y376649D02*
X1129759Y376649D01*
X1129759Y383527D01*
X1129886Y383507D01*
X1131246Y383065D01*
X1132519Y382417D01*
X1133676Y381576D01*
X1134686Y380566D01*
X1135527Y379409D01*
X1136175Y378136D01*
X1136617Y376776D01*
X1136637Y376649D01*
X1129759Y376649D01*
G37*
%LPD*%
%LPC*%
G36*
X1118883Y376649D02*
X1118883Y376649D01*
X1118903Y376776D01*
X1119345Y378136D01*
X1119993Y379409D01*
X1120834Y380566D01*
X1121844Y381576D01*
X1123001Y382417D01*
X1124274Y383065D01*
X1125634Y383507D01*
X1125761Y383527D01*
X1125761Y376649D01*
X1118883Y376649D01*
G37*
%LPD*%
%LPC*%
G36*
X1129759Y372651D02*
X1129759Y372651D01*
X1136637Y372651D01*
X1136617Y372524D01*
X1136175Y371164D01*
X1135527Y369891D01*
X1134686Y368734D01*
X1133676Y367724D01*
X1132519Y366883D01*
X1131246Y366235D01*
X1129886Y365793D01*
X1129759Y365773D01*
X1129759Y372651D01*
G37*
%LPD*%
%LPC*%
G36*
X1125634Y365793D02*
X1125634Y365793D01*
X1124274Y366235D01*
X1123001Y366883D01*
X1121844Y367724D01*
X1120834Y368734D01*
X1119993Y369891D01*
X1119345Y371164D01*
X1118903Y372524D01*
X1118883Y372651D01*
X1125761Y372651D01*
X1125761Y365773D01*
X1125634Y365793D01*
G37*
%LPD*%
%LPC*%
G36*
X1155382Y428624D02*
X1155382Y428624D01*
X1155382Y433388D01*
X1160146Y433388D01*
X1160146Y431795D01*
X1159897Y430867D01*
X1159416Y430034D01*
X1158736Y429354D01*
X1157903Y428873D01*
X1156975Y428624D01*
X1155382Y428624D01*
G37*
%LPD*%
%LPC*%
G36*
X1149345Y428624D02*
X1149345Y428624D01*
X1148417Y428873D01*
X1147584Y429354D01*
X1146904Y430034D01*
X1146423Y430867D01*
X1146174Y431795D01*
X1146174Y433388D01*
X1150938Y433388D01*
X1150938Y428624D01*
X1149345Y428624D01*
G37*
%LPD*%
%LPC*%
G36*
X714919Y520839D02*
X714919Y520839D01*
X714919Y520841D01*
X714921Y520841D01*
X714921Y520839D01*
X714919Y520839D01*
G37*
%LPD*%
%LPC*%
G36*
X1095919Y520839D02*
X1095919Y520839D01*
X1095919Y520841D01*
X1095921Y520841D01*
X1095921Y520839D01*
X1095919Y520839D01*
G37*
%LPD*%
%LPC*%
G36*
X918119Y520839D02*
X918119Y520839D01*
X918119Y520841D01*
X918121Y520841D01*
X918121Y520839D01*
X918119Y520839D01*
G37*
%LPD*%
%LPC*%
G36*
X1019719Y546239D02*
X1019719Y546239D01*
X1019719Y546241D01*
X1019721Y546241D01*
X1019721Y546239D01*
X1019719Y546239D01*
G37*
%LPD*%
%LPC*%
G36*
X968919Y546239D02*
X968919Y546239D01*
X968919Y546241D01*
X968921Y546241D01*
X968921Y546239D01*
X968919Y546239D01*
G37*
%LPD*%
%LPC*%
G36*
X765719Y546239D02*
X765719Y546239D01*
X765719Y546241D01*
X765721Y546241D01*
X765721Y546239D01*
X765719Y546239D01*
G37*
%LPD*%
%LPC*%
G36*
X664119Y546239D02*
X664119Y546239D01*
X664119Y546241D01*
X664121Y546241D01*
X664121Y546239D01*
X664119Y546239D01*
G37*
%LPD*%
D10*
X648970Y487680D03*
D11*
X674370Y487680D03*
X699770Y487680D03*
X725170Y487680D03*
D12*
X613320Y520840D03*
X613320Y546240D03*
X638720Y520840D03*
X638720Y546240D03*
X664120Y520840D03*
X664120Y546240D03*
X689520Y520840D03*
X689520Y546240D03*
X714920Y520840D03*
X714920Y546240D03*
X740320Y520840D03*
X740320Y546240D03*
X765720Y520840D03*
X765720Y546240D03*
X791120Y520840D03*
X791120Y546240D03*
X816520Y520840D03*
X816520Y546240D03*
X841920Y520840D03*
X841920Y546240D03*
X867320Y520840D03*
X867320Y546240D03*
X892720Y520840D03*
X892720Y546240D03*
X918120Y520840D03*
X918120Y546240D03*
X943520Y520840D03*
X943520Y546240D03*
X968920Y520840D03*
X968920Y546240D03*
X994320Y520840D03*
X994320Y546240D03*
X1019720Y520840D03*
X1019720Y546240D03*
X1045120Y520840D03*
X1045120Y546240D03*
X1070520Y520840D03*
X1070520Y546240D03*
X1095920Y520840D03*
X1095920Y546240D03*
X1095920Y495440D03*
X1070520Y495440D03*
X1070520Y470040D03*
X1095920Y470040D03*
D13*
X1051560Y374650D03*
D14*
X1076960Y374650D03*
X1102360Y374650D03*
X1127760Y374650D03*
D15*
X1137444Y432276D02*
X1137444Y438944D01*
X1137444Y432276D02*
X1130776Y432276D01*
X1130776Y438944D01*
X1137444Y438944D01*
X1137444Y434388D02*
X1130776Y434388D01*
X1130776Y436500D02*
X1137444Y436500D01*
X1137444Y438612D02*
X1130776Y438612D01*
X1137444Y447516D02*
X1137444Y454184D01*
X1137444Y447516D02*
X1130776Y447516D01*
X1130776Y454184D01*
X1137444Y454184D01*
X1137444Y449628D02*
X1130776Y449628D01*
X1130776Y451740D02*
X1137444Y451740D01*
X1137444Y453852D02*
X1130776Y453852D01*
X1149826Y454184D02*
X1149826Y447516D01*
X1149826Y454184D02*
X1156494Y454184D01*
X1156494Y447516D01*
X1149826Y447516D01*
X1149826Y449628D02*
X1156494Y449628D01*
X1156494Y451740D02*
X1149826Y451740D01*
X1149826Y453852D02*
X1156494Y453852D01*
X1149826Y438944D02*
X1149826Y432276D01*
X1149826Y438944D02*
X1156494Y438944D01*
X1156494Y432276D01*
X1149826Y432276D01*
X1149826Y434388D02*
X1156494Y434388D01*
X1156494Y436500D02*
X1149826Y436500D01*
X1149826Y438612D02*
X1156494Y438612D01*
D16*
X893800Y322580D03*
D17*
X858800Y322580D03*
D16*
X972540Y322580D03*
D17*
X937540Y322580D03*
D18*
X850270Y429790D03*
X870270Y429790D03*
X890270Y429790D03*
X910270Y429790D03*
X930270Y429790D03*
X977270Y429790D03*
X997270Y429790D03*
X1017270Y429790D03*
X1037270Y429790D03*
X1057270Y429790D03*
D19*
X1127760Y374650D02*
X1153160Y400050D01*
X1153160Y435610D01*
D20*
X1095920Y520840D02*
X1083360Y533400D01*
X1032510Y533400D01*
X1019720Y546190D01*
X1019720Y546240D01*
X981760Y533400D02*
X968920Y546240D01*
X930680Y533400D02*
X918120Y520840D01*
X956080Y533400D02*
X968920Y546240D01*
X956080Y533400D02*
X930680Y533400D01*
X981760Y533400D02*
X1006930Y533400D01*
X1019720Y546190D01*
X778788Y559308D02*
X765720Y546240D01*
X828852Y559308D02*
X841920Y546240D01*
X828852Y559308D02*
X778788Y559308D01*
X727480Y533400D02*
X714920Y520840D01*
X752880Y533400D02*
X765720Y546240D01*
X752880Y533400D02*
X727480Y533400D01*
X676960Y533400D02*
X664120Y546240D01*
X702360Y533400D02*
X714920Y520840D01*
X702360Y533400D02*
X676960Y533400D01*
X905510Y533450D02*
X905510Y554990D01*
X901192Y559308D01*
X849630Y559308D01*
X841920Y551598D01*
X841920Y546240D01*
X905510Y533450D02*
X918120Y520840D01*
D19*
X682040Y502920D02*
X664120Y520840D01*
X682040Y502920D02*
X688340Y502920D01*
X699770Y491490D01*
X699770Y487680D01*
D21*
X631240Y502920D02*
X613320Y520840D01*
X670560Y487680D02*
X674370Y487680D01*
X655320Y502920D02*
X631240Y502920D01*
X655320Y502920D02*
X670560Y487680D01*
D19*
X1134110Y450850D02*
X1153160Y450850D01*
X1134110Y450850D02*
X1126490Y450850D01*
X1120140Y444500D01*
X1120140Y414020D02*
X1109980Y403860D01*
X1069340Y403860D02*
X1051560Y386080D01*
X1051560Y374650D01*
X1120140Y414020D02*
X1120140Y444500D01*
X1109980Y403860D02*
X1069340Y403860D01*
D21*
X690880Y471170D02*
X674370Y487680D01*
X782320Y500380D02*
X812800Y500380D01*
X816520Y504100D01*
X816520Y520840D01*
X753110Y471170D02*
X690880Y471170D01*
X753110Y471170D02*
X782320Y500380D01*
X997270Y429790D02*
X997270Y397190D01*
X1019810Y374650D01*
X1051560Y374650D01*
X870270Y429790D02*
X870270Y437830D01*
X816520Y491580D02*
X816520Y504100D01*
X816520Y491580D02*
X870270Y437830D01*
D19*
X1134110Y435610D02*
X1134110Y412750D01*
X1115060Y393700D02*
X1089660Y393700D01*
X1076960Y381000D01*
X1076960Y374650D01*
X1115060Y393700D02*
X1134110Y412750D01*
X821740Y541020D02*
X816520Y546240D01*
X821740Y541020D02*
X828040Y541020D01*
X835660Y533400D01*
X848360Y533400D01*
X854710Y527050D01*
X854710Y504190D01*
X932180Y480060D02*
X955040Y457200D01*
X955040Y382270D01*
X989330Y347980D01*
X1065530Y347980D02*
X1076960Y359410D01*
X1076960Y374650D01*
X878840Y480060D02*
X854710Y504190D01*
X878840Y480060D02*
X932180Y480060D01*
X989330Y347980D02*
X1065530Y347980D01*
X803960Y533400D02*
X791120Y546240D01*
X829310Y528320D02*
X829310Y513080D01*
X824230Y533400D02*
X803960Y533400D01*
X824230Y533400D02*
X829310Y528320D01*
X871220Y471170D02*
X932180Y471170D01*
X946150Y457200D01*
X972540Y346990D02*
X972540Y322580D01*
X871220Y471170D02*
X829310Y513080D01*
X946150Y457200D02*
X946150Y373380D01*
X972540Y346990D01*
D21*
X638720Y546240D02*
X613320Y546240D01*
X603390Y546240D01*
X593542Y536392D02*
X593542Y497022D01*
X660774Y429790D01*
X850270Y429790D01*
X603390Y546240D02*
X593542Y536392D01*
M02*
