G04 EAGLE Gerber RS-274X export*
G75*
%MOMM*%
%FSLAX34Y34*%
%LPD*%
%INBottom Copper*%
%IPPOS*%
%AMOC8*
5,1,8,0,0,1.08239X$1,22.5*%
G01*
%ADD10R,1.508000X1.508000*%
%ADD11C,1.508000*%
%ADD12C,1.665000*%
%ADD13R,1.308000X1.308000*%
%ADD14C,1.308000*%
%ADD15R,1.850000X1.850000*%
%ADD16C,1.850000*%
%ADD17C,1.600000*%
%ADD18C,0.254000*%
%ADD19C,0.406400*%
%ADD20C,0.304800*%

G36*
X902974Y282720D02*
X902974Y282720D01*
X903113Y282733D01*
X903132Y282740D01*
X903152Y282743D01*
X903281Y282794D01*
X903412Y282841D01*
X903429Y282852D01*
X903447Y282860D01*
X903560Y282941D01*
X903675Y283019D01*
X903688Y283035D01*
X903705Y283046D01*
X903793Y283154D01*
X903885Y283258D01*
X903895Y283276D01*
X903908Y283291D01*
X903967Y283417D01*
X904030Y283541D01*
X904035Y283561D01*
X904043Y283579D01*
X904069Y283715D01*
X904100Y283851D01*
X904099Y283872D01*
X904103Y283891D01*
X904094Y284030D01*
X904090Y284169D01*
X904084Y284189D01*
X904083Y284209D01*
X904040Y284341D01*
X904002Y284475D01*
X903991Y284492D01*
X903985Y284511D01*
X903911Y284629D01*
X903840Y284749D01*
X903822Y284770D01*
X903815Y284780D01*
X903800Y284794D01*
X903734Y284869D01*
X892278Y296326D01*
X889227Y299376D01*
X889227Y309012D01*
X889212Y309130D01*
X889205Y309249D01*
X889192Y309287D01*
X889187Y309328D01*
X889144Y309438D01*
X889107Y309551D01*
X889085Y309586D01*
X889070Y309623D01*
X889001Y309719D01*
X888937Y309820D01*
X888907Y309848D01*
X888884Y309881D01*
X888792Y309957D01*
X888705Y310038D01*
X888670Y310058D01*
X888639Y310083D01*
X888531Y310134D01*
X888427Y310192D01*
X888387Y310202D01*
X888351Y310219D01*
X888234Y310241D01*
X888119Y310271D01*
X888059Y310275D01*
X888039Y310279D01*
X888018Y310277D01*
X887958Y310281D01*
X883287Y310281D01*
X881501Y312067D01*
X881501Y333093D01*
X883287Y334879D01*
X904313Y334879D01*
X906099Y333093D01*
X906099Y312067D01*
X904313Y310281D01*
X899642Y310281D01*
X899524Y310266D01*
X899405Y310259D01*
X899367Y310246D01*
X899326Y310241D01*
X899216Y310198D01*
X899103Y310161D01*
X899068Y310139D01*
X899031Y310124D01*
X898935Y310055D01*
X898834Y309991D01*
X898806Y309961D01*
X898773Y309938D01*
X898697Y309846D01*
X898616Y309759D01*
X898596Y309724D01*
X898571Y309693D01*
X898520Y309585D01*
X898462Y309481D01*
X898452Y309441D01*
X898435Y309405D01*
X898413Y309288D01*
X898383Y309173D01*
X898379Y309113D01*
X898375Y309093D01*
X898377Y309072D01*
X898373Y309012D01*
X898373Y303690D01*
X898385Y303592D01*
X898388Y303493D01*
X898405Y303434D01*
X898413Y303374D01*
X898449Y303282D01*
X898477Y303187D01*
X898507Y303135D01*
X898530Y303079D01*
X898588Y302999D01*
X898638Y302913D01*
X898704Y302838D01*
X898716Y302821D01*
X898726Y302813D01*
X898744Y302792D01*
X910842Y290694D01*
X910921Y290634D01*
X910993Y290566D01*
X911046Y290537D01*
X911094Y290500D01*
X911185Y290460D01*
X911271Y290412D01*
X911330Y290397D01*
X911385Y290373D01*
X911483Y290358D01*
X911579Y290333D01*
X911679Y290327D01*
X911700Y290323D01*
X911712Y290325D01*
X911740Y290323D01*
X1083430Y290323D01*
X1083528Y290335D01*
X1083627Y290338D01*
X1083686Y290355D01*
X1083746Y290363D01*
X1083838Y290399D01*
X1083933Y290427D01*
X1083985Y290457D01*
X1084041Y290480D01*
X1084121Y290538D01*
X1084207Y290588D01*
X1084282Y290654D01*
X1084299Y290666D01*
X1084307Y290676D01*
X1084328Y290694D01*
X1136786Y343152D01*
X1136846Y343231D01*
X1136914Y343303D01*
X1136943Y343356D01*
X1136980Y343404D01*
X1137020Y343495D01*
X1137068Y343581D01*
X1137083Y343640D01*
X1137107Y343695D01*
X1137122Y343793D01*
X1137147Y343889D01*
X1137153Y343989D01*
X1137157Y344010D01*
X1137155Y344022D01*
X1137157Y344050D01*
X1137157Y368229D01*
X1137147Y368308D01*
X1137147Y368388D01*
X1137127Y368465D01*
X1137117Y368544D01*
X1137088Y368618D01*
X1137068Y368696D01*
X1137030Y368766D01*
X1137000Y368840D01*
X1136954Y368904D01*
X1136915Y368974D01*
X1136861Y369033D01*
X1136814Y369097D01*
X1136752Y369148D01*
X1136698Y369206D01*
X1136630Y369249D01*
X1136569Y369300D01*
X1136497Y369334D01*
X1136429Y369377D01*
X1136353Y369402D01*
X1136281Y369436D01*
X1136203Y369451D01*
X1136127Y369475D01*
X1136047Y369480D01*
X1135969Y369496D01*
X1135889Y369491D01*
X1135809Y369496D01*
X1135731Y369481D01*
X1135651Y369476D01*
X1135575Y369451D01*
X1135497Y369436D01*
X1135425Y369402D01*
X1135349Y369378D01*
X1135281Y369335D01*
X1135209Y369301D01*
X1135148Y369250D01*
X1135080Y369208D01*
X1135025Y369149D01*
X1134964Y369099D01*
X1134863Y368977D01*
X1134862Y368976D01*
X1134861Y368975D01*
X1134686Y368734D01*
X1133676Y367724D01*
X1132519Y366883D01*
X1131246Y366235D01*
X1129886Y365793D01*
X1129759Y365773D01*
X1129759Y373920D01*
X1129744Y374038D01*
X1129737Y374157D01*
X1129724Y374195D01*
X1129719Y374235D01*
X1129676Y374346D01*
X1129639Y374459D01*
X1129617Y374493D01*
X1129602Y374531D01*
X1129533Y374627D01*
X1129522Y374644D01*
X1129536Y374668D01*
X1129561Y374700D01*
X1129612Y374807D01*
X1129670Y374912D01*
X1129680Y374951D01*
X1129697Y374987D01*
X1129719Y375104D01*
X1129749Y375220D01*
X1129753Y375280D01*
X1129757Y375300D01*
X1129755Y375320D01*
X1129759Y375380D01*
X1129759Y383527D01*
X1129886Y383507D01*
X1131246Y383065D01*
X1132519Y382417D01*
X1133676Y381576D01*
X1134686Y380566D01*
X1134861Y380325D01*
X1134916Y380267D01*
X1134962Y380203D01*
X1135024Y380152D01*
X1135079Y380093D01*
X1135146Y380051D01*
X1135207Y380000D01*
X1135280Y379966D01*
X1135347Y379923D01*
X1135423Y379898D01*
X1135495Y379864D01*
X1135574Y379849D01*
X1135650Y379824D01*
X1135729Y379819D01*
X1135808Y379804D01*
X1135887Y379809D01*
X1135967Y379804D01*
X1136045Y379819D01*
X1136125Y379824D01*
X1136201Y379849D01*
X1136280Y379864D01*
X1136352Y379898D01*
X1136427Y379922D01*
X1136495Y379965D01*
X1136567Y379999D01*
X1136629Y380050D01*
X1136696Y380092D01*
X1136751Y380151D01*
X1136813Y380202D01*
X1136859Y380266D01*
X1136914Y380324D01*
X1136953Y380394D01*
X1137000Y380459D01*
X1137029Y380533D01*
X1137068Y380603D01*
X1137088Y380680D01*
X1137117Y380754D01*
X1137127Y380833D01*
X1137147Y380910D01*
X1137157Y381068D01*
X1137157Y381070D01*
X1137157Y381071D01*
X1137157Y498010D01*
X1137145Y498108D01*
X1137142Y498207D01*
X1137125Y498266D01*
X1137117Y498326D01*
X1137081Y498418D01*
X1137053Y498513D01*
X1137023Y498565D01*
X1137000Y498621D01*
X1136942Y498701D01*
X1136892Y498787D01*
X1136826Y498862D01*
X1136814Y498879D01*
X1136804Y498887D01*
X1136786Y498908D01*
X1106135Y529558D01*
X1106088Y529595D01*
X1106047Y529638D01*
X1105963Y529692D01*
X1105884Y529753D01*
X1105829Y529777D01*
X1105778Y529809D01*
X1105684Y529840D01*
X1105592Y529879D01*
X1105533Y529889D01*
X1105476Y529907D01*
X1105377Y529913D01*
X1105278Y529929D01*
X1105218Y529923D01*
X1105159Y529927D01*
X1105061Y529909D01*
X1104981Y529901D01*
X1104987Y529919D01*
X1104991Y529979D01*
X1105004Y530037D01*
X1105001Y530137D01*
X1105007Y530236D01*
X1104996Y530295D01*
X1104994Y530355D01*
X1104967Y530451D01*
X1104948Y530549D01*
X1104923Y530603D01*
X1104906Y530660D01*
X1104855Y530746D01*
X1104813Y530837D01*
X1104775Y530883D01*
X1104744Y530934D01*
X1104638Y531055D01*
X1100652Y535041D01*
X1100629Y535059D01*
X1100610Y535082D01*
X1100504Y535156D01*
X1100401Y535236D01*
X1100374Y535248D01*
X1100350Y535265D01*
X1100228Y535311D01*
X1100109Y535362D01*
X1100080Y535367D01*
X1100052Y535378D01*
X1099923Y535392D01*
X1099795Y535412D01*
X1099765Y535410D01*
X1099736Y535413D01*
X1099608Y535395D01*
X1099478Y535382D01*
X1099450Y535372D01*
X1099421Y535368D01*
X1099269Y535316D01*
X1098182Y534866D01*
X1093658Y534866D01*
X1089477Y536598D01*
X1086278Y539797D01*
X1084546Y543978D01*
X1084546Y548502D01*
X1086278Y552683D01*
X1089477Y555882D01*
X1093658Y557614D01*
X1098182Y557614D01*
X1102363Y555882D01*
X1105562Y552683D01*
X1107294Y548502D01*
X1107294Y543978D01*
X1106844Y542891D01*
X1106836Y542863D01*
X1106822Y542836D01*
X1106794Y542710D01*
X1106760Y542584D01*
X1106759Y542555D01*
X1106753Y542526D01*
X1106757Y542396D01*
X1106755Y542266D01*
X1106762Y542238D01*
X1106762Y542208D01*
X1106799Y542084D01*
X1106829Y541957D01*
X1106843Y541931D01*
X1106851Y541903D01*
X1106917Y541791D01*
X1106978Y541676D01*
X1106997Y541654D01*
X1107012Y541629D01*
X1107119Y541508D01*
X1118540Y530087D01*
X1118595Y530044D01*
X1118644Y529994D01*
X1118720Y529947D01*
X1118791Y529892D01*
X1118855Y529864D01*
X1118915Y529828D01*
X1119000Y529801D01*
X1119083Y529766D01*
X1119152Y529755D01*
X1119219Y529734D01*
X1119308Y529730D01*
X1119397Y529716D01*
X1119467Y529722D01*
X1119536Y529719D01*
X1119624Y529737D01*
X1119714Y529746D01*
X1119780Y529769D01*
X1119848Y529783D01*
X1119928Y529823D01*
X1120013Y529853D01*
X1120071Y529892D01*
X1120133Y529923D01*
X1120202Y529981D01*
X1120276Y530032D01*
X1120322Y530084D01*
X1120375Y530129D01*
X1120427Y530203D01*
X1120487Y530270D01*
X1120518Y530332D01*
X1120559Y530389D01*
X1120590Y530473D01*
X1120631Y530553D01*
X1120647Y530621D01*
X1120671Y530687D01*
X1120681Y530776D01*
X1120701Y530864D01*
X1120699Y530933D01*
X1120707Y531003D01*
X1120694Y531092D01*
X1120691Y531182D01*
X1120672Y531249D01*
X1120662Y531318D01*
X1120610Y531470D01*
X1120459Y531834D01*
X1120459Y541446D01*
X1124137Y550326D01*
X1130934Y557123D01*
X1133379Y558135D01*
X1133440Y558170D01*
X1133505Y558196D01*
X1133578Y558248D01*
X1133656Y558293D01*
X1133706Y558341D01*
X1133762Y558382D01*
X1133820Y558452D01*
X1133884Y558514D01*
X1133921Y558574D01*
X1133965Y558627D01*
X1134003Y558709D01*
X1134050Y558785D01*
X1134071Y558852D01*
X1134101Y558915D01*
X1134117Y559003D01*
X1134144Y559089D01*
X1134147Y559159D01*
X1134160Y559228D01*
X1134155Y559317D01*
X1134159Y559407D01*
X1134145Y559475D01*
X1134141Y559545D01*
X1134113Y559630D01*
X1134095Y559718D01*
X1134064Y559781D01*
X1134043Y559847D01*
X1133995Y559923D01*
X1133955Y560004D01*
X1133910Y560057D01*
X1133872Y560116D01*
X1133807Y560178D01*
X1133749Y560246D01*
X1133692Y560286D01*
X1133641Y560334D01*
X1133562Y560377D01*
X1133489Y560429D01*
X1133423Y560454D01*
X1133362Y560488D01*
X1133275Y560510D01*
X1133191Y560542D01*
X1133122Y560550D01*
X1133054Y560567D01*
X1132894Y560577D01*
X576346Y560577D01*
X576277Y560569D01*
X576207Y560570D01*
X576120Y560549D01*
X576031Y560537D01*
X575966Y560512D01*
X575898Y560495D01*
X575819Y560453D01*
X575735Y560420D01*
X575679Y560379D01*
X575617Y560347D01*
X575550Y560286D01*
X575478Y560234D01*
X575433Y560180D01*
X575382Y560133D01*
X575332Y560058D01*
X575275Y559989D01*
X575245Y559925D01*
X575207Y559867D01*
X575178Y559782D01*
X575139Y559701D01*
X575126Y559632D01*
X575104Y559566D01*
X575096Y559477D01*
X575080Y559389D01*
X575084Y559319D01*
X575078Y559249D01*
X575094Y559161D01*
X575099Y559071D01*
X575121Y559005D01*
X575133Y558936D01*
X575170Y558854D01*
X575197Y558769D01*
X575235Y558710D01*
X575263Y558646D01*
X575319Y558576D01*
X575368Y558500D01*
X575418Y558452D01*
X575462Y558398D01*
X575534Y558343D01*
X575599Y558282D01*
X575660Y558248D01*
X575716Y558206D01*
X575861Y558135D01*
X578306Y557123D01*
X585103Y550326D01*
X588781Y541446D01*
X588781Y531834D01*
X585103Y522954D01*
X578306Y516157D01*
X569426Y512479D01*
X559814Y512479D01*
X550934Y516157D01*
X544137Y522954D01*
X542955Y525810D01*
X542920Y525870D01*
X542894Y525935D01*
X542842Y526008D01*
X542797Y526086D01*
X542749Y526136D01*
X542708Y526193D01*
X542638Y526250D01*
X542576Y526314D01*
X542516Y526351D01*
X542463Y526395D01*
X542381Y526434D01*
X542305Y526481D01*
X542238Y526501D01*
X542175Y526531D01*
X542087Y526548D01*
X542001Y526574D01*
X541931Y526578D01*
X541862Y526591D01*
X541773Y526585D01*
X541683Y526589D01*
X541615Y526575D01*
X541545Y526571D01*
X541460Y526543D01*
X541372Y526525D01*
X541309Y526494D01*
X541243Y526473D01*
X541167Y526425D01*
X541086Y526385D01*
X541033Y526340D01*
X540974Y526303D01*
X540912Y526237D01*
X540844Y526179D01*
X540804Y526122D01*
X540756Y526071D01*
X540713Y525993D01*
X540661Y525919D01*
X540636Y525854D01*
X540602Y525793D01*
X540580Y525706D01*
X540548Y525622D01*
X540540Y525552D01*
X540523Y525485D01*
X540513Y525324D01*
X540513Y317956D01*
X540521Y317887D01*
X540520Y317817D01*
X540541Y317729D01*
X540553Y317640D01*
X540578Y317575D01*
X540595Y317508D01*
X540637Y317428D01*
X540670Y317345D01*
X540711Y317288D01*
X540743Y317226D01*
X540804Y317160D01*
X540856Y317087D01*
X540910Y317043D01*
X540957Y316991D01*
X541032Y316942D01*
X541101Y316885D01*
X541165Y316855D01*
X541223Y316816D01*
X541308Y316787D01*
X541389Y316749D01*
X541458Y316736D01*
X541524Y316713D01*
X541613Y316706D01*
X541701Y316689D01*
X541771Y316694D01*
X541841Y316688D01*
X541929Y316703D01*
X542019Y316709D01*
X542085Y316730D01*
X542154Y316742D01*
X542236Y316779D01*
X542321Y316807D01*
X542380Y316844D01*
X542444Y316873D01*
X542514Y316929D01*
X542590Y316977D01*
X542638Y317028D01*
X542692Y317072D01*
X542747Y317143D01*
X542808Y317209D01*
X542842Y317270D01*
X542884Y317326D01*
X542955Y317470D01*
X544137Y320326D01*
X550934Y327123D01*
X559814Y330801D01*
X569426Y330801D01*
X578306Y327123D01*
X585103Y320326D01*
X588781Y311446D01*
X588781Y301834D01*
X585103Y292954D01*
X578306Y286157D01*
X575861Y285145D01*
X575800Y285110D01*
X575735Y285084D01*
X575662Y285032D01*
X575584Y284987D01*
X575534Y284939D01*
X575478Y284898D01*
X575420Y284828D01*
X575356Y284766D01*
X575319Y284706D01*
X575275Y284653D01*
X575237Y284571D01*
X575190Y284495D01*
X575169Y284428D01*
X575139Y284365D01*
X575122Y284277D01*
X575096Y284191D01*
X575093Y284121D01*
X575080Y284052D01*
X575085Y283963D01*
X575081Y283873D01*
X575095Y283805D01*
X575099Y283735D01*
X575127Y283650D01*
X575145Y283562D01*
X575176Y283499D01*
X575197Y283433D01*
X575245Y283357D01*
X575285Y283276D01*
X575330Y283223D01*
X575368Y283164D01*
X575433Y283102D01*
X575491Y283034D01*
X575548Y282994D01*
X575599Y282946D01*
X575678Y282903D01*
X575751Y282851D01*
X575817Y282826D01*
X575878Y282792D01*
X575964Y282770D01*
X576049Y282738D01*
X576118Y282730D01*
X576186Y282713D01*
X576346Y282703D01*
X902836Y282703D01*
X902974Y282720D01*
G37*
%LPC*%
G36*
X796936Y400557D02*
X796936Y400557D01*
X752347Y445146D01*
X752347Y471290D01*
X752335Y471388D01*
X752332Y471487D01*
X752315Y471546D01*
X752307Y471606D01*
X752271Y471698D01*
X752243Y471793D01*
X752213Y471845D01*
X752190Y471901D01*
X752132Y471981D01*
X752082Y472067D01*
X752016Y472142D01*
X752004Y472159D01*
X751994Y472167D01*
X751976Y472188D01*
X737925Y486238D01*
X737816Y486323D01*
X737709Y486412D01*
X737690Y486420D01*
X737674Y486433D01*
X737546Y486488D01*
X737421Y486547D01*
X737401Y486551D01*
X737382Y486559D01*
X737244Y486581D01*
X737108Y486607D01*
X737088Y486606D01*
X737068Y486609D01*
X736929Y486596D01*
X736791Y486587D01*
X736772Y486581D01*
X736752Y486579D01*
X736620Y486532D01*
X736489Y486489D01*
X736471Y486478D01*
X736452Y486471D01*
X736337Y486393D01*
X736220Y486319D01*
X736206Y486304D01*
X736189Y486293D01*
X736097Y486189D01*
X736002Y486087D01*
X735992Y486070D01*
X735979Y486054D01*
X735915Y485931D01*
X735848Y485809D01*
X735843Y485789D01*
X735834Y485771D01*
X735827Y485738D01*
X734147Y481682D01*
X731168Y478703D01*
X727276Y477091D01*
X723064Y477091D01*
X719172Y478703D01*
X716193Y481682D01*
X714581Y485574D01*
X714581Y489786D01*
X714847Y490428D01*
X714855Y490457D01*
X714868Y490483D01*
X714897Y490609D01*
X714931Y490735D01*
X714932Y490764D01*
X714938Y490793D01*
X714934Y490923D01*
X714936Y491053D01*
X714929Y491081D01*
X714928Y491111D01*
X714892Y491236D01*
X714862Y491362D01*
X714848Y491388D01*
X714840Y491416D01*
X714774Y491528D01*
X714713Y491643D01*
X714693Y491665D01*
X714678Y491690D01*
X714572Y491811D01*
X710948Y495436D01*
X710869Y495496D01*
X710797Y495564D01*
X710744Y495593D01*
X710696Y495630D01*
X710605Y495670D01*
X710519Y495718D01*
X710460Y495733D01*
X710405Y495757D01*
X710307Y495772D01*
X710211Y495797D01*
X710111Y495803D01*
X710090Y495807D01*
X710078Y495805D01*
X710050Y495807D01*
X709682Y495807D01*
X709544Y495790D01*
X709405Y495777D01*
X709386Y495770D01*
X709366Y495767D01*
X709237Y495716D01*
X709106Y495669D01*
X709089Y495658D01*
X709070Y495650D01*
X708958Y495569D01*
X708843Y495491D01*
X708829Y495475D01*
X708813Y495464D01*
X708724Y495356D01*
X708632Y495252D01*
X708623Y495234D01*
X708610Y495219D01*
X708551Y495093D01*
X708488Y494969D01*
X708483Y494949D01*
X708475Y494931D01*
X708449Y494795D01*
X708418Y494659D01*
X708419Y494638D01*
X708415Y494619D01*
X708424Y494480D01*
X708428Y494341D01*
X708433Y494321D01*
X708435Y494301D01*
X708478Y494169D01*
X708516Y494035D01*
X708527Y494018D01*
X708533Y493999D01*
X708607Y493881D01*
X708678Y493761D01*
X708696Y493740D01*
X708703Y493730D01*
X708718Y493716D01*
X708743Y493688D01*
X710359Y489786D01*
X710359Y485574D01*
X708747Y481682D01*
X705768Y478703D01*
X701876Y477091D01*
X697664Y477091D01*
X693772Y478703D01*
X690793Y481682D01*
X689181Y485574D01*
X689181Y489786D01*
X690803Y493701D01*
X690841Y493750D01*
X690930Y493857D01*
X690938Y493876D01*
X690951Y493892D01*
X691006Y494020D01*
X691065Y494145D01*
X691069Y494165D01*
X691077Y494184D01*
X691099Y494321D01*
X691125Y494458D01*
X691124Y494478D01*
X691127Y494498D01*
X691114Y494636D01*
X691105Y494775D01*
X691099Y494794D01*
X691097Y494814D01*
X691050Y494946D01*
X691007Y495077D01*
X690996Y495094D01*
X690990Y495114D01*
X690911Y495229D01*
X690837Y495346D01*
X690822Y495360D01*
X690811Y495377D01*
X690707Y495469D01*
X690605Y495564D01*
X690588Y495574D01*
X690573Y495587D01*
X690449Y495650D01*
X690327Y495718D01*
X690307Y495723D01*
X690289Y495732D01*
X690153Y495762D01*
X690019Y495797D01*
X689991Y495799D01*
X689979Y495802D01*
X689959Y495801D01*
X689858Y495807D01*
X684282Y495807D01*
X684144Y495790D01*
X684005Y495777D01*
X683986Y495770D01*
X683966Y495767D01*
X683837Y495716D01*
X683706Y495669D01*
X683689Y495658D01*
X683670Y495650D01*
X683558Y495569D01*
X683443Y495491D01*
X683429Y495475D01*
X683413Y495464D01*
X683324Y495356D01*
X683232Y495252D01*
X683223Y495234D01*
X683210Y495219D01*
X683151Y495093D01*
X683088Y494969D01*
X683083Y494949D01*
X683075Y494931D01*
X683049Y494795D01*
X683018Y494659D01*
X683019Y494638D01*
X683015Y494619D01*
X683024Y494480D01*
X683028Y494341D01*
X683033Y494321D01*
X683035Y494301D01*
X683078Y494169D01*
X683116Y494035D01*
X683127Y494018D01*
X683133Y493999D01*
X683207Y493881D01*
X683278Y493761D01*
X683296Y493740D01*
X683303Y493730D01*
X683318Y493716D01*
X683343Y493688D01*
X684959Y489786D01*
X684959Y485574D01*
X683347Y481682D01*
X680368Y478703D01*
X676476Y477091D01*
X672264Y477091D01*
X668372Y478703D01*
X665393Y481682D01*
X663781Y485574D01*
X663781Y489786D01*
X665403Y493701D01*
X665441Y493750D01*
X665530Y493857D01*
X665538Y493876D01*
X665551Y493892D01*
X665606Y494020D01*
X665665Y494145D01*
X665669Y494165D01*
X665677Y494184D01*
X665699Y494321D01*
X665725Y494458D01*
X665724Y494478D01*
X665727Y494498D01*
X665714Y494636D01*
X665705Y494775D01*
X665699Y494794D01*
X665697Y494814D01*
X665650Y494946D01*
X665607Y495077D01*
X665596Y495094D01*
X665590Y495114D01*
X665511Y495229D01*
X665437Y495346D01*
X665422Y495360D01*
X665411Y495377D01*
X665307Y495469D01*
X665205Y495564D01*
X665188Y495574D01*
X665173Y495587D01*
X665077Y495636D01*
X648237Y512477D01*
X648142Y512550D01*
X648053Y512628D01*
X648017Y512647D01*
X647985Y512672D01*
X647876Y512719D01*
X647770Y512773D01*
X647731Y512782D01*
X647693Y512798D01*
X647576Y512817D01*
X647460Y512843D01*
X647419Y512841D01*
X647379Y512848D01*
X647261Y512837D01*
X647142Y512833D01*
X647103Y512822D01*
X647063Y512818D01*
X646951Y512778D01*
X646836Y512745D01*
X646801Y512724D01*
X646763Y512710D01*
X646665Y512643D01*
X646562Y512583D01*
X646517Y512543D01*
X646500Y512532D01*
X646487Y512517D01*
X646442Y512477D01*
X645163Y511198D01*
X640982Y509466D01*
X636458Y509466D01*
X632277Y511198D01*
X629078Y514397D01*
X627346Y518578D01*
X627346Y523102D01*
X629078Y527283D01*
X632277Y530482D01*
X636458Y532214D01*
X640982Y532214D01*
X645163Y530482D01*
X648362Y527283D01*
X649678Y524105D01*
X649683Y524097D01*
X649686Y524088D01*
X649762Y523959D01*
X649836Y523829D01*
X649842Y523822D01*
X649847Y523814D01*
X649954Y523693D01*
X650758Y522889D01*
X650797Y522858D01*
X650831Y522821D01*
X650923Y522761D01*
X651009Y522694D01*
X651055Y522674D01*
X651097Y522647D01*
X651201Y522611D01*
X651301Y522567D01*
X651350Y522560D01*
X651397Y522543D01*
X651507Y522535D01*
X651615Y522518D01*
X651665Y522522D01*
X651714Y522518D01*
X651823Y522537D01*
X651932Y522547D01*
X651979Y522564D01*
X652028Y522573D01*
X652128Y522618D01*
X652231Y522655D01*
X652273Y522683D01*
X652318Y522703D01*
X652403Y522772D01*
X652494Y522834D01*
X652527Y522871D01*
X652566Y522902D01*
X652632Y522990D01*
X652705Y523072D01*
X652727Y523116D01*
X652757Y523156D01*
X652828Y523300D01*
X654478Y527283D01*
X657677Y530482D01*
X661858Y532214D01*
X666382Y532214D01*
X670563Y530482D01*
X673762Y527283D01*
X675494Y523102D01*
X675494Y518578D01*
X673762Y514397D01*
X670563Y511198D01*
X666580Y509548D01*
X666537Y509524D01*
X666491Y509507D01*
X666400Y509445D01*
X666304Y509391D01*
X666268Y509356D01*
X666227Y509328D01*
X666155Y509246D01*
X666076Y509169D01*
X666050Y509127D01*
X666017Y509090D01*
X665967Y508992D01*
X665910Y508898D01*
X665895Y508851D01*
X665872Y508807D01*
X665848Y508699D01*
X665816Y508594D01*
X665814Y508545D01*
X665803Y508496D01*
X665806Y508386D01*
X665801Y508277D01*
X665811Y508228D01*
X665812Y508178D01*
X665843Y508073D01*
X665865Y507965D01*
X665887Y507921D01*
X665901Y507873D01*
X665956Y507778D01*
X666005Y507680D01*
X666037Y507642D01*
X666062Y507599D01*
X666169Y507478D01*
X668322Y505324D01*
X668401Y505264D01*
X668473Y505196D01*
X668526Y505167D01*
X668574Y505130D01*
X668665Y505090D01*
X668751Y505042D01*
X668810Y505027D01*
X668865Y505003D01*
X668963Y504988D01*
X669059Y504963D01*
X669159Y504957D01*
X669180Y504953D01*
X669192Y504955D01*
X669220Y504953D01*
X702176Y504953D01*
X702314Y504970D01*
X702453Y504983D01*
X702472Y504990D01*
X702492Y504993D01*
X702621Y505044D01*
X702752Y505091D01*
X702769Y505102D01*
X702787Y505110D01*
X702900Y505191D01*
X703015Y505269D01*
X703028Y505285D01*
X703045Y505296D01*
X703134Y505404D01*
X703225Y505508D01*
X703235Y505526D01*
X703248Y505541D01*
X703307Y505667D01*
X703370Y505791D01*
X703375Y505811D01*
X703383Y505829D01*
X703409Y505965D01*
X703440Y506101D01*
X703439Y506122D01*
X703443Y506141D01*
X703434Y506280D01*
X703430Y506419D01*
X703424Y506439D01*
X703423Y506459D01*
X703380Y506591D01*
X703342Y506725D01*
X703331Y506742D01*
X703325Y506761D01*
X703251Y506879D01*
X703180Y506999D01*
X703162Y507020D01*
X703155Y507030D01*
X703140Y507044D01*
X703074Y507119D01*
X698377Y511817D01*
X698282Y511890D01*
X698193Y511968D01*
X698157Y511987D01*
X698125Y512012D01*
X698016Y512059D01*
X697910Y512113D01*
X697871Y512122D01*
X697833Y512138D01*
X697716Y512157D01*
X697600Y512183D01*
X697559Y512181D01*
X697519Y512188D01*
X697401Y512177D01*
X697282Y512173D01*
X697243Y512162D01*
X697203Y512158D01*
X697091Y512118D01*
X696976Y512085D01*
X696941Y512064D01*
X696903Y512050D01*
X696805Y511984D01*
X696702Y511923D01*
X696657Y511883D01*
X696640Y511872D01*
X696627Y511856D01*
X696582Y511817D01*
X695963Y511198D01*
X691782Y509466D01*
X687258Y509466D01*
X683077Y511198D01*
X679878Y514397D01*
X678146Y518578D01*
X678146Y523102D01*
X679878Y527283D01*
X683077Y530482D01*
X687258Y532214D01*
X691782Y532214D01*
X694930Y530910D01*
X694997Y530892D01*
X695061Y530864D01*
X695150Y530850D01*
X695237Y530826D01*
X695306Y530825D01*
X695375Y530814D01*
X695465Y530822D01*
X695555Y530821D01*
X695622Y530837D01*
X695692Y530844D01*
X695776Y530874D01*
X695864Y530895D01*
X695926Y530928D01*
X695991Y530951D01*
X696066Y531002D01*
X696145Y531044D01*
X696197Y531091D01*
X696254Y531130D01*
X696314Y531197D01*
X696380Y531258D01*
X696419Y531316D01*
X696465Y531368D01*
X696506Y531448D01*
X696555Y531523D01*
X696578Y531589D01*
X696609Y531652D01*
X696629Y531739D01*
X696658Y531824D01*
X696664Y531894D01*
X696679Y531962D01*
X696676Y532052D01*
X696683Y532141D01*
X696672Y532210D01*
X696669Y532280D01*
X696644Y532366D01*
X696629Y532455D01*
X696600Y532518D01*
X696581Y532585D01*
X696535Y532663D01*
X696498Y532745D01*
X696455Y532799D01*
X696419Y532859D01*
X696313Y532980D01*
X694252Y535041D01*
X694229Y535059D01*
X694210Y535082D01*
X694104Y535156D01*
X694001Y535236D01*
X693974Y535248D01*
X693950Y535265D01*
X693828Y535311D01*
X693709Y535362D01*
X693680Y535367D01*
X693652Y535378D01*
X693523Y535392D01*
X693395Y535412D01*
X693365Y535410D01*
X693336Y535413D01*
X693208Y535395D01*
X693078Y535382D01*
X693050Y535372D01*
X693021Y535368D01*
X692869Y535316D01*
X691782Y534866D01*
X687258Y534866D01*
X683077Y536598D01*
X679878Y539797D01*
X678146Y543978D01*
X678146Y548502D01*
X679878Y552683D01*
X683077Y555882D01*
X687258Y557614D01*
X691782Y557614D01*
X695963Y555882D01*
X699162Y552683D01*
X700894Y548502D01*
X700894Y543978D01*
X700444Y542891D01*
X700436Y542863D01*
X700422Y542836D01*
X700394Y542710D01*
X700360Y542584D01*
X700359Y542555D01*
X700353Y542526D01*
X700357Y542396D01*
X700355Y542266D01*
X700362Y542238D01*
X700362Y542208D01*
X700399Y542084D01*
X700429Y541957D01*
X700443Y541931D01*
X700451Y541903D01*
X700517Y541791D01*
X700578Y541676D01*
X700597Y541654D01*
X700612Y541629D01*
X700719Y541508D01*
X702780Y539447D01*
X702835Y539404D01*
X702884Y539354D01*
X702912Y539337D01*
X702914Y539334D01*
X702927Y539327D01*
X702960Y539307D01*
X703031Y539252D01*
X703095Y539224D01*
X703155Y539188D01*
X703240Y539161D01*
X703323Y539126D01*
X703392Y539115D01*
X703459Y539094D01*
X703548Y539090D01*
X703637Y539076D01*
X703707Y539082D01*
X703776Y539079D01*
X703864Y539097D01*
X703954Y539106D01*
X704019Y539129D01*
X704088Y539143D01*
X704169Y539183D01*
X704253Y539213D01*
X704311Y539252D01*
X704373Y539283D01*
X704442Y539341D01*
X704516Y539392D01*
X704562Y539444D01*
X704615Y539489D01*
X704667Y539563D01*
X704727Y539630D01*
X704758Y539692D01*
X704799Y539749D01*
X704830Y539833D01*
X704871Y539913D01*
X704886Y539982D01*
X704911Y540047D01*
X704921Y540136D01*
X704941Y540224D01*
X704939Y540293D01*
X704946Y540363D01*
X704934Y540452D01*
X704931Y540542D01*
X704918Y540586D01*
X704918Y540597D01*
X704910Y540621D01*
X704902Y540678D01*
X704850Y540830D01*
X703546Y543978D01*
X703546Y548502D01*
X705278Y552683D01*
X708477Y555882D01*
X712658Y557614D01*
X717182Y557614D01*
X721363Y555882D01*
X724562Y552683D01*
X726294Y548502D01*
X726294Y543978D01*
X725844Y542891D01*
X725836Y542863D01*
X725822Y542836D01*
X725794Y542710D01*
X725760Y542584D01*
X725759Y542555D01*
X725753Y542526D01*
X725757Y542396D01*
X725755Y542266D01*
X725762Y542238D01*
X725762Y542208D01*
X725799Y542084D01*
X725829Y541957D01*
X725843Y541931D01*
X725851Y541903D01*
X725917Y541791D01*
X725978Y541676D01*
X725997Y541654D01*
X726012Y541629D01*
X726119Y541508D01*
X728180Y539447D01*
X728235Y539404D01*
X728284Y539354D01*
X728312Y539337D01*
X728314Y539334D01*
X728327Y539327D01*
X728360Y539307D01*
X728431Y539252D01*
X728495Y539224D01*
X728555Y539188D01*
X728640Y539161D01*
X728723Y539126D01*
X728792Y539115D01*
X728859Y539094D01*
X728948Y539090D01*
X729037Y539076D01*
X729107Y539082D01*
X729176Y539079D01*
X729264Y539097D01*
X729354Y539106D01*
X729419Y539129D01*
X729488Y539143D01*
X729569Y539183D01*
X729653Y539213D01*
X729711Y539252D01*
X729773Y539283D01*
X729842Y539341D01*
X729916Y539392D01*
X729962Y539444D01*
X730015Y539489D01*
X730067Y539563D01*
X730127Y539630D01*
X730158Y539692D01*
X730199Y539749D01*
X730230Y539833D01*
X730271Y539913D01*
X730286Y539982D01*
X730311Y540047D01*
X730321Y540136D01*
X730341Y540224D01*
X730339Y540293D01*
X730346Y540363D01*
X730334Y540452D01*
X730331Y540542D01*
X730318Y540586D01*
X730318Y540597D01*
X730310Y540621D01*
X730302Y540678D01*
X730250Y540830D01*
X728946Y543978D01*
X728946Y548502D01*
X730678Y552683D01*
X733877Y555882D01*
X738058Y557614D01*
X742582Y557614D01*
X746763Y555882D01*
X749962Y552683D01*
X751694Y548502D01*
X751694Y543978D01*
X751244Y542891D01*
X751236Y542863D01*
X751222Y542836D01*
X751194Y542710D01*
X751160Y542584D01*
X751159Y542555D01*
X751153Y542526D01*
X751157Y542396D01*
X751155Y542266D01*
X751162Y542238D01*
X751162Y542208D01*
X751199Y542084D01*
X751229Y541957D01*
X751243Y541931D01*
X751251Y541903D01*
X751317Y541791D01*
X751378Y541676D01*
X751397Y541654D01*
X751412Y541629D01*
X751519Y541508D01*
X754632Y538394D01*
X755505Y537522D01*
X755552Y537485D01*
X755593Y537442D01*
X755677Y537388D01*
X755756Y537327D01*
X755811Y537303D01*
X755862Y537271D01*
X755956Y537240D01*
X756048Y537201D01*
X756107Y537191D01*
X756164Y537173D01*
X756263Y537167D01*
X756362Y537151D01*
X756422Y537157D01*
X756481Y537153D01*
X756579Y537171D01*
X756659Y537179D01*
X756653Y537161D01*
X756649Y537101D01*
X756636Y537043D01*
X756639Y536943D01*
X756633Y536844D01*
X756644Y536785D01*
X756646Y536725D01*
X756673Y536629D01*
X756692Y536531D01*
X756717Y536477D01*
X756734Y536420D01*
X756785Y536334D01*
X756827Y536243D01*
X756865Y536197D01*
X756896Y536146D01*
X757002Y536025D01*
X757683Y535344D01*
X757683Y531721D01*
X757689Y531672D01*
X757687Y531622D01*
X757709Y531515D01*
X757723Y531406D01*
X757741Y531359D01*
X757751Y531311D01*
X757799Y531212D01*
X757840Y531110D01*
X757869Y531070D01*
X757891Y531025D01*
X757962Y530942D01*
X758026Y530853D01*
X758065Y530821D01*
X758097Y530783D01*
X758187Y530720D01*
X758271Y530650D01*
X758316Y530629D01*
X758357Y530600D01*
X758460Y530561D01*
X758559Y530514D01*
X758608Y530505D01*
X758654Y530487D01*
X758764Y530475D01*
X758871Y530455D01*
X758921Y530458D01*
X758970Y530452D01*
X759079Y530467D01*
X759189Y530474D01*
X759236Y530490D01*
X759285Y530497D01*
X759438Y530549D01*
X763458Y532214D01*
X767982Y532214D01*
X772163Y530482D01*
X775362Y527283D01*
X777094Y523102D01*
X777094Y518578D01*
X775362Y514397D01*
X774434Y513469D01*
X774350Y513360D01*
X774260Y513253D01*
X774252Y513234D01*
X774239Y513218D01*
X774184Y513091D01*
X774125Y512965D01*
X774121Y512945D01*
X774113Y512926D01*
X774091Y512788D01*
X774065Y512652D01*
X774066Y512632D01*
X774063Y512612D01*
X774076Y512473D01*
X774085Y512335D01*
X774091Y512316D01*
X774093Y512296D01*
X774140Y512164D01*
X774183Y512033D01*
X774194Y512015D01*
X774201Y511996D01*
X774279Y511881D01*
X774353Y511764D01*
X774368Y511750D01*
X774379Y511733D01*
X774483Y511641D01*
X774585Y511546D01*
X774602Y511536D01*
X774618Y511523D01*
X774741Y511460D01*
X774863Y511392D01*
X774883Y511387D01*
X774901Y511378D01*
X775037Y511348D01*
X775171Y511313D01*
X775199Y511311D01*
X775211Y511308D01*
X775232Y511309D01*
X775332Y511303D01*
X781508Y511303D01*
X781646Y511320D01*
X781785Y511333D01*
X781804Y511340D01*
X781824Y511343D01*
X781953Y511394D01*
X782084Y511441D01*
X782101Y511452D01*
X782119Y511460D01*
X782232Y511541D01*
X782347Y511619D01*
X782360Y511635D01*
X782377Y511646D01*
X782466Y511754D01*
X782557Y511858D01*
X782567Y511876D01*
X782580Y511891D01*
X782639Y512017D01*
X782702Y512141D01*
X782706Y512161D01*
X782715Y512179D01*
X782741Y512316D01*
X782772Y512451D01*
X782771Y512472D01*
X782775Y512491D01*
X782766Y512630D01*
X782762Y512769D01*
X782756Y512789D01*
X782755Y512809D01*
X782712Y512941D01*
X782674Y513075D01*
X782663Y513092D01*
X782657Y513111D01*
X782583Y513229D01*
X782512Y513349D01*
X782493Y513370D01*
X782487Y513380D01*
X782472Y513394D01*
X782406Y513469D01*
X781478Y514397D01*
X779746Y518578D01*
X779746Y523102D01*
X781478Y527283D01*
X784677Y530482D01*
X788858Y532214D01*
X793382Y532214D01*
X797563Y530482D01*
X800762Y527283D01*
X802494Y523102D01*
X802494Y518578D01*
X800762Y514397D01*
X799834Y513469D01*
X799750Y513360D01*
X799660Y513253D01*
X799652Y513234D01*
X799639Y513218D01*
X799584Y513091D01*
X799525Y512965D01*
X799521Y512945D01*
X799513Y512926D01*
X799491Y512788D01*
X799465Y512652D01*
X799466Y512632D01*
X799463Y512612D01*
X799476Y512473D01*
X799485Y512335D01*
X799491Y512316D01*
X799493Y512296D01*
X799540Y512164D01*
X799583Y512033D01*
X799594Y512015D01*
X799601Y511996D01*
X799679Y511881D01*
X799753Y511764D01*
X799768Y511750D01*
X799779Y511733D01*
X799883Y511641D01*
X799985Y511546D01*
X800002Y511536D01*
X800018Y511523D01*
X800141Y511460D01*
X800263Y511392D01*
X800283Y511387D01*
X800301Y511378D01*
X800437Y511348D01*
X800571Y511313D01*
X800599Y511311D01*
X800611Y511308D01*
X800632Y511309D01*
X800732Y511303D01*
X806908Y511303D01*
X807046Y511320D01*
X807185Y511333D01*
X807204Y511340D01*
X807224Y511343D01*
X807353Y511394D01*
X807484Y511441D01*
X807501Y511452D01*
X807519Y511460D01*
X807632Y511541D01*
X807747Y511619D01*
X807760Y511635D01*
X807777Y511646D01*
X807866Y511754D01*
X807957Y511858D01*
X807967Y511876D01*
X807980Y511891D01*
X808039Y512017D01*
X808102Y512141D01*
X808106Y512161D01*
X808115Y512179D01*
X808141Y512316D01*
X808172Y512451D01*
X808171Y512472D01*
X808175Y512491D01*
X808166Y512630D01*
X808162Y512769D01*
X808156Y512789D01*
X808155Y512809D01*
X808112Y512941D01*
X808074Y513075D01*
X808063Y513092D01*
X808057Y513111D01*
X807983Y513229D01*
X807912Y513349D01*
X807893Y513370D01*
X807887Y513380D01*
X807872Y513394D01*
X807806Y513469D01*
X806878Y514397D01*
X805146Y518578D01*
X805146Y523102D01*
X806878Y527283D01*
X810077Y530482D01*
X814258Y532214D01*
X818782Y532214D01*
X822963Y530482D01*
X826162Y527283D01*
X827894Y523102D01*
X827894Y518578D01*
X826162Y514397D01*
X825234Y513469D01*
X825150Y513360D01*
X825060Y513253D01*
X825052Y513234D01*
X825039Y513218D01*
X824984Y513091D01*
X824925Y512965D01*
X824921Y512945D01*
X824913Y512926D01*
X824891Y512788D01*
X824865Y512652D01*
X824866Y512632D01*
X824863Y512612D01*
X824876Y512473D01*
X824885Y512335D01*
X824891Y512316D01*
X824893Y512296D01*
X824940Y512164D01*
X824983Y512033D01*
X824994Y512015D01*
X825001Y511996D01*
X825079Y511881D01*
X825153Y511764D01*
X825168Y511750D01*
X825179Y511733D01*
X825283Y511641D01*
X825385Y511546D01*
X825402Y511536D01*
X825418Y511523D01*
X825541Y511460D01*
X825663Y511392D01*
X825683Y511387D01*
X825701Y511378D01*
X825837Y511348D01*
X825971Y511313D01*
X825999Y511311D01*
X826011Y511308D01*
X826032Y511309D01*
X826132Y511303D01*
X827394Y511303D01*
X863852Y474844D01*
X863931Y474784D01*
X864003Y474716D01*
X864056Y474687D01*
X864104Y474650D01*
X864195Y474610D01*
X864281Y474562D01*
X864340Y474547D01*
X864395Y474523D01*
X864493Y474508D01*
X864589Y474483D01*
X864689Y474477D01*
X864710Y474473D01*
X864722Y474475D01*
X864750Y474473D01*
X1011544Y474473D01*
X1014594Y471423D01*
X1014594Y471422D01*
X1039112Y446904D01*
X1042163Y443854D01*
X1042163Y440570D01*
X1042166Y440541D01*
X1042164Y440512D01*
X1042186Y440384D01*
X1042203Y440255D01*
X1042213Y440228D01*
X1042218Y440198D01*
X1042272Y440080D01*
X1042320Y439959D01*
X1042337Y439935D01*
X1042349Y439908D01*
X1042430Y439807D01*
X1042506Y439702D01*
X1042529Y439683D01*
X1042548Y439660D01*
X1042651Y439582D01*
X1042751Y439499D01*
X1042778Y439487D01*
X1042802Y439469D01*
X1042946Y439398D01*
X1043529Y439157D01*
X1046804Y435882D01*
X1046812Y435873D01*
X1046914Y435765D01*
X1046922Y435759D01*
X1046929Y435752D01*
X1047057Y435674D01*
X1047182Y435594D01*
X1047192Y435591D01*
X1047201Y435586D01*
X1047344Y435542D01*
X1047484Y435496D01*
X1047495Y435495D01*
X1047505Y435492D01*
X1047654Y435485D01*
X1047802Y435475D01*
X1047812Y435477D01*
X1047822Y435477D01*
X1047968Y435507D01*
X1048114Y435535D01*
X1048123Y435539D01*
X1048134Y435541D01*
X1048268Y435607D01*
X1048402Y435670D01*
X1048410Y435676D01*
X1048419Y435681D01*
X1048533Y435777D01*
X1048647Y435872D01*
X1048656Y435883D01*
X1048661Y435887D01*
X1048670Y435899D01*
X1048750Y435996D01*
X1049230Y436657D01*
X1050403Y437830D01*
X1051746Y438805D01*
X1053224Y439558D01*
X1054802Y440071D01*
X1055521Y440185D01*
X1055521Y430270D01*
X1055536Y430152D01*
X1055543Y430033D01*
X1055555Y429995D01*
X1055561Y429955D01*
X1055604Y429844D01*
X1055620Y429796D01*
X1055610Y429778D01*
X1055600Y429739D01*
X1055583Y429703D01*
X1055561Y429586D01*
X1055531Y429470D01*
X1055527Y429410D01*
X1055523Y429390D01*
X1055525Y429370D01*
X1055521Y429310D01*
X1055521Y419395D01*
X1054802Y419509D01*
X1053224Y420022D01*
X1051746Y420775D01*
X1050403Y421750D01*
X1049230Y422923D01*
X1048750Y423584D01*
X1048649Y423692D01*
X1048548Y423802D01*
X1048539Y423808D01*
X1048532Y423816D01*
X1048408Y423895D01*
X1048282Y423977D01*
X1048272Y423981D01*
X1048264Y423986D01*
X1048123Y424032D01*
X1047982Y424080D01*
X1047971Y424081D01*
X1047961Y424084D01*
X1047813Y424094D01*
X1047665Y424106D01*
X1047654Y424104D01*
X1047644Y424105D01*
X1047498Y424077D01*
X1047351Y424051D01*
X1047342Y424047D01*
X1047332Y424045D01*
X1047197Y423982D01*
X1047061Y423921D01*
X1047053Y423914D01*
X1047044Y423910D01*
X1046929Y423815D01*
X1046813Y423722D01*
X1046807Y423714D01*
X1046799Y423707D01*
X1046761Y423656D01*
X1043529Y420423D01*
X1039468Y418741D01*
X1035072Y418741D01*
X1031011Y420423D01*
X1028167Y423267D01*
X1028073Y423340D01*
X1028068Y423345D01*
X1028067Y423346D01*
X1028066Y423346D01*
X1027984Y423419D01*
X1027948Y423437D01*
X1027916Y423462D01*
X1027807Y423510D01*
X1027701Y423564D01*
X1027662Y423572D01*
X1027624Y423589D01*
X1027507Y423607D01*
X1027391Y423633D01*
X1027350Y423632D01*
X1027310Y423638D01*
X1027192Y423627D01*
X1027073Y423624D01*
X1027034Y423612D01*
X1026994Y423609D01*
X1026881Y423568D01*
X1026767Y423535D01*
X1026732Y423515D01*
X1026694Y423501D01*
X1026596Y423434D01*
X1026493Y423374D01*
X1026448Y423334D01*
X1026431Y423322D01*
X1026418Y423307D01*
X1026372Y423267D01*
X1023529Y420423D01*
X1019468Y418741D01*
X1015072Y418741D01*
X1011011Y420423D01*
X1008167Y423267D01*
X1008073Y423340D01*
X1008068Y423345D01*
X1008067Y423346D01*
X1008066Y423346D01*
X1007984Y423419D01*
X1007948Y423437D01*
X1007916Y423462D01*
X1007807Y423510D01*
X1007701Y423564D01*
X1007662Y423572D01*
X1007624Y423589D01*
X1007507Y423607D01*
X1007391Y423633D01*
X1007350Y423632D01*
X1007310Y423638D01*
X1007192Y423627D01*
X1007073Y423624D01*
X1007034Y423612D01*
X1006994Y423609D01*
X1006881Y423568D01*
X1006767Y423535D01*
X1006732Y423515D01*
X1006694Y423501D01*
X1006596Y423434D01*
X1006493Y423374D01*
X1006448Y423334D01*
X1006431Y423322D01*
X1006418Y423307D01*
X1006372Y423267D01*
X1003529Y420423D01*
X999468Y418741D01*
X995072Y418741D01*
X994678Y418905D01*
X994649Y418912D01*
X994623Y418926D01*
X994497Y418954D01*
X994371Y418989D01*
X994342Y418989D01*
X994313Y418995D01*
X994183Y418992D01*
X994053Y418994D01*
X994025Y418987D01*
X993995Y418986D01*
X993870Y418950D01*
X993744Y418919D01*
X993718Y418906D01*
X993690Y418897D01*
X993578Y418831D01*
X993463Y418771D01*
X993441Y418751D01*
X993416Y418736D01*
X993295Y418629D01*
X981838Y407173D01*
X979971Y406399D01*
X960379Y406399D01*
X958512Y407173D01*
X946923Y418762D01*
X946149Y420629D01*
X946149Y431710D01*
X946137Y431808D01*
X946134Y431907D01*
X946117Y431965D01*
X946109Y432025D01*
X946073Y432117D01*
X946045Y432212D01*
X946015Y432265D01*
X945992Y432321D01*
X945934Y432401D01*
X945884Y432486D01*
X945818Y432562D01*
X945806Y432578D01*
X945796Y432586D01*
X945778Y432607D01*
X940633Y437752D01*
X940585Y437789D01*
X940544Y437832D01*
X940460Y437886D01*
X940381Y437947D01*
X940326Y437971D01*
X940276Y438003D01*
X940181Y438034D01*
X940090Y438073D01*
X940030Y438083D01*
X939973Y438101D01*
X939874Y438107D01*
X939776Y438123D01*
X939716Y438117D01*
X939656Y438121D01*
X939558Y438103D01*
X939459Y438093D01*
X939402Y438073D01*
X939344Y438062D01*
X939254Y438019D01*
X939160Y437986D01*
X939110Y437952D01*
X939056Y437927D01*
X938979Y437863D01*
X938897Y437807D01*
X938857Y437762D01*
X938811Y437724D01*
X938752Y437643D01*
X938686Y437569D01*
X938659Y437515D01*
X938624Y437467D01*
X938587Y437374D01*
X938541Y437285D01*
X938528Y437227D01*
X938506Y437171D01*
X938494Y437072D01*
X938472Y436975D01*
X938474Y436915D01*
X938466Y436856D01*
X938478Y436757D01*
X938481Y436657D01*
X938498Y436600D01*
X938506Y436540D01*
X938542Y436448D01*
X938570Y436352D01*
X938600Y436300D01*
X938622Y436244D01*
X938708Y436108D01*
X939285Y435315D01*
X940038Y433836D01*
X940551Y432258D01*
X940665Y431539D01*
X930750Y431539D01*
X930632Y431524D01*
X930513Y431517D01*
X930475Y431504D01*
X930435Y431499D01*
X930324Y431456D01*
X930211Y431419D01*
X930177Y431397D01*
X930139Y431382D01*
X930043Y431313D01*
X929942Y431249D01*
X929914Y431219D01*
X929882Y431196D01*
X929806Y431104D01*
X929724Y431017D01*
X929705Y430982D01*
X929679Y430951D01*
X929628Y430843D01*
X929571Y430739D01*
X929561Y430699D01*
X929543Y430663D01*
X929521Y430546D01*
X929515Y430544D01*
X929474Y430539D01*
X929364Y430495D01*
X929251Y430459D01*
X929216Y430437D01*
X929179Y430422D01*
X929082Y430352D01*
X928982Y430289D01*
X928954Y430259D01*
X928921Y430235D01*
X928845Y430144D01*
X928764Y430057D01*
X928744Y430022D01*
X928719Y429990D01*
X928668Y429883D01*
X928610Y429778D01*
X928600Y429739D01*
X928583Y429703D01*
X928561Y429586D01*
X928531Y429470D01*
X928527Y429410D01*
X928523Y429390D01*
X928525Y429370D01*
X928521Y429310D01*
X928521Y419395D01*
X927802Y419509D01*
X926224Y420022D01*
X924746Y420775D01*
X923403Y421750D01*
X922230Y422923D01*
X921750Y423584D01*
X921648Y423693D01*
X921548Y423803D01*
X921539Y423808D01*
X921532Y423816D01*
X921407Y423896D01*
X921282Y423977D01*
X921272Y423981D01*
X921264Y423986D01*
X921122Y424032D01*
X920981Y424081D01*
X920971Y424081D01*
X920961Y424084D01*
X920813Y424094D01*
X920664Y424106D01*
X920654Y424104D01*
X920644Y424105D01*
X920498Y424077D01*
X920351Y424051D01*
X920341Y424047D01*
X920332Y424045D01*
X920198Y423982D01*
X920061Y423920D01*
X920053Y423914D01*
X920044Y423910D01*
X919929Y423815D01*
X919812Y423722D01*
X919806Y423714D01*
X919799Y423707D01*
X919761Y423656D01*
X916529Y420423D01*
X912468Y418741D01*
X912144Y418741D01*
X912046Y418729D01*
X911947Y418726D01*
X911888Y418709D01*
X911828Y418701D01*
X911736Y418665D01*
X911641Y418637D01*
X911589Y418607D01*
X911533Y418584D01*
X911453Y418526D01*
X911367Y418476D01*
X911292Y418410D01*
X911275Y418398D01*
X911267Y418388D01*
X911246Y418370D01*
X893434Y400557D01*
X796936Y400557D01*
G37*
%LPD*%
%LPC*%
G36*
X578920Y456089D02*
X578920Y456089D01*
X571510Y459159D01*
X565839Y464830D01*
X562769Y472240D01*
X562769Y480260D01*
X565839Y487670D01*
X571510Y493341D01*
X578920Y496411D01*
X586940Y496411D01*
X594350Y493341D01*
X600021Y487670D01*
X603091Y480260D01*
X603091Y472240D01*
X600021Y464830D01*
X594350Y459159D01*
X586940Y456089D01*
X578920Y456089D01*
G37*
%LPD*%
%LPC*%
G36*
X962027Y310281D02*
X962027Y310281D01*
X960241Y312067D01*
X960241Y333093D01*
X962027Y334879D01*
X983053Y334879D01*
X984839Y333093D01*
X984839Y312067D01*
X983053Y310281D01*
X962027Y310281D01*
G37*
%LPD*%
%LPC*%
G36*
X636458Y534866D02*
X636458Y534866D01*
X632277Y536598D01*
X629078Y539797D01*
X627346Y543978D01*
X627346Y548502D01*
X629078Y552683D01*
X632277Y555882D01*
X636458Y557614D01*
X640982Y557614D01*
X645163Y555882D01*
X648362Y552683D01*
X650094Y548502D01*
X650094Y543978D01*
X648362Y539797D01*
X645163Y536598D01*
X640982Y534866D01*
X636458Y534866D01*
G37*
%LPD*%
%LPC*%
G36*
X611058Y534866D02*
X611058Y534866D01*
X606877Y536598D01*
X603678Y539797D01*
X601946Y543978D01*
X601946Y548502D01*
X603678Y552683D01*
X606877Y555882D01*
X611058Y557614D01*
X615582Y557614D01*
X619763Y555882D01*
X622962Y552683D01*
X624694Y548502D01*
X624694Y543978D01*
X622962Y539797D01*
X619763Y536598D01*
X615582Y534866D01*
X611058Y534866D01*
G37*
%LPD*%
%LPC*%
G36*
X788858Y534866D02*
X788858Y534866D01*
X784677Y536598D01*
X781478Y539797D01*
X779746Y543978D01*
X779746Y548502D01*
X781478Y552683D01*
X784677Y555882D01*
X788858Y557614D01*
X793382Y557614D01*
X797563Y555882D01*
X800762Y552683D01*
X802494Y548502D01*
X802494Y543978D01*
X800762Y539797D01*
X797563Y536598D01*
X793382Y534866D01*
X788858Y534866D01*
G37*
%LPD*%
%LPC*%
G36*
X814258Y534866D02*
X814258Y534866D01*
X810077Y536598D01*
X806878Y539797D01*
X805146Y543978D01*
X805146Y548502D01*
X806878Y552683D01*
X810077Y555882D01*
X814258Y557614D01*
X818782Y557614D01*
X822963Y555882D01*
X826162Y552683D01*
X827894Y548502D01*
X827894Y543978D01*
X826162Y539797D01*
X822963Y536598D01*
X818782Y534866D01*
X814258Y534866D01*
G37*
%LPD*%
%LPC*%
G36*
X865058Y534866D02*
X865058Y534866D01*
X860877Y536598D01*
X857678Y539797D01*
X855946Y543978D01*
X855946Y548502D01*
X857678Y552683D01*
X860877Y555882D01*
X865058Y557614D01*
X869582Y557614D01*
X873763Y555882D01*
X876962Y552683D01*
X878694Y548502D01*
X878694Y543978D01*
X876962Y539797D01*
X873763Y536598D01*
X869582Y534866D01*
X865058Y534866D01*
G37*
%LPD*%
%LPC*%
G36*
X1042858Y534866D02*
X1042858Y534866D01*
X1038677Y536598D01*
X1035478Y539797D01*
X1033746Y543978D01*
X1033746Y548502D01*
X1035478Y552683D01*
X1038677Y555882D01*
X1042858Y557614D01*
X1047382Y557614D01*
X1051563Y555882D01*
X1054762Y552683D01*
X1056494Y548502D01*
X1056494Y543978D01*
X1054762Y539797D01*
X1051563Y536598D01*
X1047382Y534866D01*
X1042858Y534866D01*
G37*
%LPD*%
%LPC*%
G36*
X915858Y534866D02*
X915858Y534866D01*
X911677Y536598D01*
X908478Y539797D01*
X906746Y543978D01*
X906746Y548502D01*
X908478Y552683D01*
X911677Y555882D01*
X915858Y557614D01*
X920382Y557614D01*
X924563Y555882D01*
X927762Y552683D01*
X929494Y548502D01*
X929494Y543978D01*
X927762Y539797D01*
X924563Y536598D01*
X920382Y534866D01*
X915858Y534866D01*
G37*
%LPD*%
%LPC*%
G36*
X941258Y534866D02*
X941258Y534866D01*
X937077Y536598D01*
X933878Y539797D01*
X932146Y543978D01*
X932146Y548502D01*
X933878Y552683D01*
X937077Y555882D01*
X941258Y557614D01*
X945782Y557614D01*
X949963Y555882D01*
X953162Y552683D01*
X954894Y548502D01*
X954894Y543978D01*
X953162Y539797D01*
X949963Y536598D01*
X945782Y534866D01*
X941258Y534866D01*
G37*
%LPD*%
%LPC*%
G36*
X992058Y534866D02*
X992058Y534866D01*
X987877Y536598D01*
X984678Y539797D01*
X982946Y543978D01*
X982946Y548502D01*
X984678Y552683D01*
X987877Y555882D01*
X992058Y557614D01*
X996582Y557614D01*
X1000763Y555882D01*
X1003962Y552683D01*
X1005694Y548502D01*
X1005694Y543978D01*
X1003962Y539797D01*
X1000763Y536598D01*
X996582Y534866D01*
X992058Y534866D01*
G37*
%LPD*%
%LPC*%
G36*
X1068258Y534866D02*
X1068258Y534866D01*
X1064077Y536598D01*
X1060878Y539797D01*
X1059146Y543978D01*
X1059146Y548502D01*
X1060878Y552683D01*
X1064077Y555882D01*
X1068258Y557614D01*
X1072782Y557614D01*
X1076963Y555882D01*
X1080162Y552683D01*
X1081894Y548502D01*
X1081894Y543978D01*
X1080162Y539797D01*
X1076963Y536598D01*
X1072782Y534866D01*
X1068258Y534866D01*
G37*
%LPD*%
%LPC*%
G36*
X890458Y534866D02*
X890458Y534866D01*
X886277Y536598D01*
X883078Y539797D01*
X881346Y543978D01*
X881346Y548502D01*
X883078Y552683D01*
X886277Y555882D01*
X890458Y557614D01*
X894982Y557614D01*
X899163Y555882D01*
X902362Y552683D01*
X904094Y548502D01*
X904094Y543978D01*
X902362Y539797D01*
X899163Y536598D01*
X894982Y534866D01*
X890458Y534866D01*
G37*
%LPD*%
%LPC*%
G36*
X966658Y509466D02*
X966658Y509466D01*
X962477Y511198D01*
X959278Y514397D01*
X957546Y518578D01*
X957546Y523102D01*
X959278Y527283D01*
X962477Y530482D01*
X966658Y532214D01*
X971182Y532214D01*
X975363Y530482D01*
X978562Y527283D01*
X980294Y523102D01*
X980294Y518578D01*
X978562Y514397D01*
X975363Y511198D01*
X971182Y509466D01*
X966658Y509466D01*
G37*
%LPD*%
%LPC*%
G36*
X941258Y509466D02*
X941258Y509466D01*
X937077Y511198D01*
X933878Y514397D01*
X932146Y518578D01*
X932146Y523102D01*
X933878Y527283D01*
X937077Y530482D01*
X941258Y532214D01*
X945782Y532214D01*
X949963Y530482D01*
X953162Y527283D01*
X954894Y523102D01*
X954894Y518578D01*
X953162Y514397D01*
X949963Y511198D01*
X945782Y509466D01*
X941258Y509466D01*
G37*
%LPD*%
%LPC*%
G36*
X890458Y509466D02*
X890458Y509466D01*
X886277Y511198D01*
X883078Y514397D01*
X881346Y518578D01*
X881346Y523102D01*
X883078Y527283D01*
X886277Y530482D01*
X890458Y532214D01*
X894982Y532214D01*
X899163Y530482D01*
X902362Y527283D01*
X904094Y523102D01*
X904094Y518578D01*
X902362Y514397D01*
X899163Y511198D01*
X894982Y509466D01*
X890458Y509466D01*
G37*
%LPD*%
%LPC*%
G36*
X1042858Y509466D02*
X1042858Y509466D01*
X1038677Y511198D01*
X1035478Y514397D01*
X1033746Y518578D01*
X1033746Y523102D01*
X1035478Y527283D01*
X1038677Y530482D01*
X1042858Y532214D01*
X1047382Y532214D01*
X1051563Y530482D01*
X1054762Y527283D01*
X1056494Y523102D01*
X1056494Y518578D01*
X1054762Y514397D01*
X1051563Y511198D01*
X1047382Y509466D01*
X1042858Y509466D01*
G37*
%LPD*%
%LPC*%
G36*
X1017458Y509466D02*
X1017458Y509466D01*
X1013277Y511198D01*
X1010078Y514397D01*
X1008346Y518578D01*
X1008346Y523102D01*
X1010078Y527283D01*
X1013277Y530482D01*
X1017458Y532214D01*
X1021982Y532214D01*
X1026163Y530482D01*
X1029362Y527283D01*
X1031094Y523102D01*
X1031094Y518578D01*
X1029362Y514397D01*
X1026163Y511198D01*
X1021982Y509466D01*
X1017458Y509466D01*
G37*
%LPD*%
%LPC*%
G36*
X992058Y509466D02*
X992058Y509466D01*
X987877Y511198D01*
X984678Y514397D01*
X982946Y518578D01*
X982946Y523102D01*
X984678Y527283D01*
X987877Y530482D01*
X992058Y532214D01*
X996582Y532214D01*
X1000763Y530482D01*
X1003962Y527283D01*
X1005694Y523102D01*
X1005694Y518578D01*
X1003962Y514397D01*
X1000763Y511198D01*
X996582Y509466D01*
X992058Y509466D01*
G37*
%LPD*%
%LPC*%
G36*
X865058Y509466D02*
X865058Y509466D01*
X860877Y511198D01*
X857678Y514397D01*
X855946Y518578D01*
X855946Y523102D01*
X857678Y527283D01*
X860877Y530482D01*
X865058Y532214D01*
X869582Y532214D01*
X873763Y530482D01*
X876962Y527283D01*
X878694Y523102D01*
X878694Y518578D01*
X876962Y514397D01*
X873763Y511198D01*
X869582Y509466D01*
X865058Y509466D01*
G37*
%LPD*%
%LPC*%
G36*
X1093658Y458666D02*
X1093658Y458666D01*
X1089477Y460398D01*
X1086278Y463597D01*
X1084546Y467778D01*
X1084546Y472302D01*
X1086278Y476483D01*
X1089477Y479682D01*
X1093658Y481414D01*
X1098182Y481414D01*
X1102363Y479682D01*
X1105562Y476483D01*
X1107294Y472302D01*
X1107294Y467778D01*
X1105562Y463597D01*
X1102363Y460398D01*
X1098182Y458666D01*
X1093658Y458666D01*
G37*
%LPD*%
%LPC*%
G36*
X1068258Y458666D02*
X1068258Y458666D01*
X1064077Y460398D01*
X1060878Y463597D01*
X1059146Y467778D01*
X1059146Y472302D01*
X1060878Y476483D01*
X1064077Y479682D01*
X1068258Y481414D01*
X1072782Y481414D01*
X1076963Y479682D01*
X1080162Y476483D01*
X1081894Y472302D01*
X1081894Y467778D01*
X1080162Y463597D01*
X1076963Y460398D01*
X1072782Y458666D01*
X1068258Y458666D01*
G37*
%LPD*%
%LPC*%
G36*
X1093658Y484066D02*
X1093658Y484066D01*
X1089477Y485798D01*
X1086278Y488997D01*
X1084546Y493178D01*
X1084546Y497702D01*
X1086278Y501883D01*
X1089477Y505082D01*
X1093658Y506814D01*
X1098182Y506814D01*
X1102363Y505082D01*
X1105562Y501883D01*
X1107294Y497702D01*
X1107294Y493178D01*
X1105562Y488997D01*
X1102363Y485798D01*
X1098182Y484066D01*
X1093658Y484066D01*
G37*
%LPD*%
%LPC*%
G36*
X1068258Y484066D02*
X1068258Y484066D01*
X1064077Y485798D01*
X1060878Y488997D01*
X1059146Y493178D01*
X1059146Y497702D01*
X1060878Y501883D01*
X1064077Y505082D01*
X1068258Y506814D01*
X1072782Y506814D01*
X1076963Y505082D01*
X1080162Y501883D01*
X1081894Y497702D01*
X1081894Y493178D01*
X1080162Y488997D01*
X1076963Y485798D01*
X1072782Y484066D01*
X1068258Y484066D01*
G37*
%LPD*%
%LPC*%
G36*
X611058Y509466D02*
X611058Y509466D01*
X606877Y511198D01*
X603678Y514397D01*
X601946Y518578D01*
X601946Y523102D01*
X603678Y527283D01*
X606877Y530482D01*
X611058Y532214D01*
X615582Y532214D01*
X619763Y530482D01*
X622962Y527283D01*
X624694Y523102D01*
X624694Y518578D01*
X622962Y514397D01*
X619763Y511198D01*
X615582Y509466D01*
X611058Y509466D01*
G37*
%LPD*%
%LPC*%
G36*
X1068258Y509466D02*
X1068258Y509466D01*
X1064077Y511198D01*
X1060878Y514397D01*
X1059146Y518578D01*
X1059146Y523102D01*
X1060878Y527283D01*
X1064077Y530482D01*
X1068258Y532214D01*
X1072782Y532214D01*
X1076963Y530482D01*
X1080162Y527283D01*
X1081894Y523102D01*
X1081894Y518578D01*
X1080162Y514397D01*
X1076963Y511198D01*
X1072782Y509466D01*
X1068258Y509466D01*
G37*
%LPD*%
%LPC*%
G36*
X839658Y509466D02*
X839658Y509466D01*
X835477Y511198D01*
X832278Y514397D01*
X830546Y518578D01*
X830546Y523102D01*
X832278Y527283D01*
X835477Y530482D01*
X839658Y532214D01*
X844182Y532214D01*
X848363Y530482D01*
X851562Y527283D01*
X853294Y523102D01*
X853294Y518578D01*
X851562Y514397D01*
X848363Y511198D01*
X844182Y509466D01*
X839658Y509466D01*
G37*
%LPD*%
%LPC*%
G36*
X1043757Y365061D02*
X1043757Y365061D01*
X1041971Y366847D01*
X1041971Y382453D01*
X1043757Y384239D01*
X1059363Y384239D01*
X1061149Y382453D01*
X1061149Y366847D01*
X1059363Y365061D01*
X1043757Y365061D01*
G37*
%LPD*%
%LPC*%
G36*
X1075053Y365061D02*
X1075053Y365061D01*
X1071528Y366521D01*
X1068831Y369218D01*
X1067371Y372743D01*
X1067371Y376557D01*
X1068831Y380082D01*
X1071528Y382779D01*
X1075053Y384239D01*
X1078867Y384239D01*
X1082392Y382779D01*
X1085089Y380082D01*
X1086549Y376557D01*
X1086549Y372743D01*
X1085089Y369218D01*
X1082392Y366521D01*
X1078867Y365061D01*
X1075053Y365061D01*
G37*
%LPD*%
%LPC*%
G36*
X1100453Y365061D02*
X1100453Y365061D01*
X1096928Y366521D01*
X1094231Y369218D01*
X1092771Y372743D01*
X1092771Y376557D01*
X1094231Y380082D01*
X1096928Y382779D01*
X1100453Y384239D01*
X1104267Y384239D01*
X1107792Y382779D01*
X1110489Y380082D01*
X1111949Y376557D01*
X1111949Y372743D01*
X1110489Y369218D01*
X1107792Y366521D01*
X1104267Y365061D01*
X1100453Y365061D01*
G37*
%LPD*%
G36*
X716308Y520856D02*
X716308Y520856D01*
X716427Y520863D01*
X716465Y520876D01*
X716505Y520881D01*
X716616Y520925D01*
X716729Y520961D01*
X716764Y520983D01*
X716801Y520998D01*
X716897Y521068D01*
X716998Y521131D01*
X717026Y521161D01*
X717059Y521185D01*
X717134Y521276D01*
X717216Y521363D01*
X717236Y521398D01*
X717261Y521430D01*
X717312Y521537D01*
X717370Y521642D01*
X717380Y521681D01*
X717397Y521717D01*
X717419Y521834D01*
X717449Y521949D01*
X717453Y522010D01*
X717457Y522030D01*
X717455Y522050D01*
X717459Y522110D01*
X717459Y531439D01*
X717464Y531438D01*
X719091Y530910D01*
X720615Y530133D01*
X721122Y529765D01*
X721157Y529746D01*
X721187Y529720D01*
X721296Y529669D01*
X721401Y529612D01*
X721439Y529602D01*
X721475Y529585D01*
X721592Y529562D01*
X721709Y529532D01*
X721749Y529532D01*
X721788Y529525D01*
X721907Y529532D01*
X722027Y529532D01*
X722065Y529542D01*
X722105Y529545D01*
X722219Y529582D01*
X722335Y529611D01*
X722370Y529630D01*
X722407Y529643D01*
X722509Y529707D01*
X722614Y529764D01*
X722643Y529792D01*
X722676Y529813D01*
X722758Y529900D01*
X722845Y529982D01*
X722867Y530015D01*
X722894Y530045D01*
X722952Y530149D01*
X723016Y530250D01*
X723028Y530288D01*
X723048Y530323D01*
X723077Y530439D01*
X723115Y530553D01*
X723117Y530592D01*
X723127Y530631D01*
X723137Y530792D01*
X723137Y531030D01*
X723125Y531128D01*
X723122Y531227D01*
X723105Y531286D01*
X723097Y531346D01*
X723061Y531438D01*
X723033Y531533D01*
X723003Y531585D01*
X722980Y531641D01*
X722922Y531721D01*
X722872Y531807D01*
X722806Y531882D01*
X722794Y531899D01*
X722784Y531907D01*
X722766Y531928D01*
X719652Y535041D01*
X719629Y535059D01*
X719610Y535082D01*
X719504Y535156D01*
X719401Y535236D01*
X719374Y535248D01*
X719350Y535265D01*
X719228Y535311D01*
X719109Y535362D01*
X719080Y535367D01*
X719052Y535378D01*
X718923Y535392D01*
X718795Y535412D01*
X718765Y535410D01*
X718736Y535413D01*
X718608Y535395D01*
X718478Y535382D01*
X718450Y535372D01*
X718421Y535368D01*
X718269Y535316D01*
X717182Y534866D01*
X712658Y534866D01*
X708638Y536531D01*
X708590Y536545D01*
X708545Y536566D01*
X708437Y536586D01*
X708331Y536615D01*
X708281Y536616D01*
X708232Y536625D01*
X708123Y536619D01*
X708013Y536620D01*
X707965Y536609D01*
X707915Y536606D01*
X707811Y536572D01*
X707704Y536546D01*
X707660Y536523D01*
X707613Y536508D01*
X707520Y536449D01*
X707423Y536398D01*
X707386Y536364D01*
X707344Y536338D01*
X707269Y536258D01*
X707187Y536184D01*
X707160Y536142D01*
X707126Y536106D01*
X707073Y536010D01*
X707013Y535918D01*
X706996Y535871D01*
X706972Y535827D01*
X706945Y535721D01*
X706909Y535617D01*
X706905Y535568D01*
X706893Y535519D01*
X706883Y535359D01*
X706883Y530922D01*
X706888Y530883D01*
X706885Y530843D01*
X706908Y530726D01*
X706923Y530607D01*
X706937Y530570D01*
X706945Y530531D01*
X706996Y530422D01*
X707040Y530311D01*
X707063Y530279D01*
X707080Y530243D01*
X707156Y530151D01*
X707226Y530054D01*
X707257Y530028D01*
X707282Y529998D01*
X707379Y529927D01*
X707471Y529851D01*
X707507Y529834D01*
X707540Y529811D01*
X707651Y529766D01*
X707759Y529715D01*
X707798Y529708D01*
X707835Y529693D01*
X707954Y529678D01*
X708071Y529656D01*
X708111Y529658D01*
X708151Y529653D01*
X708270Y529668D01*
X708389Y529675D01*
X708427Y529688D01*
X708466Y529693D01*
X708578Y529737D01*
X708691Y529773D01*
X708725Y529795D01*
X708762Y529809D01*
X708898Y529896D01*
X709225Y530133D01*
X710749Y530910D01*
X712376Y531438D01*
X712381Y531439D01*
X712381Y522110D01*
X712396Y521992D01*
X712403Y521873D01*
X712416Y521835D01*
X712421Y521795D01*
X712464Y521684D01*
X712501Y521571D01*
X712523Y521537D01*
X712538Y521499D01*
X712608Y521403D01*
X712671Y521302D01*
X712701Y521274D01*
X712724Y521242D01*
X712816Y521166D01*
X712903Y521084D01*
X712938Y521065D01*
X712969Y521039D01*
X713077Y520988D01*
X713181Y520931D01*
X713221Y520920D01*
X713257Y520903D01*
X713374Y520881D01*
X713489Y520851D01*
X713550Y520847D01*
X713570Y520843D01*
X713590Y520845D01*
X713650Y520841D01*
X716190Y520841D01*
X716308Y520856D01*
G37*
%LPC*%
G36*
X940039Y325079D02*
X940039Y325079D01*
X940039Y334122D01*
X940301Y334080D01*
X942066Y333507D01*
X943720Y332664D01*
X945221Y331574D01*
X946534Y330261D01*
X947624Y328760D01*
X948467Y327106D01*
X949040Y325341D01*
X949082Y325079D01*
X940039Y325079D01*
G37*
%LPD*%
%LPC*%
G36*
X861299Y325079D02*
X861299Y325079D01*
X861299Y334122D01*
X861561Y334080D01*
X863326Y333507D01*
X864980Y332664D01*
X866481Y331574D01*
X867794Y330261D01*
X868884Y328760D01*
X869727Y327106D01*
X870300Y325341D01*
X870342Y325079D01*
X861299Y325079D01*
G37*
%LPD*%
%LPC*%
G36*
X940039Y320081D02*
X940039Y320081D01*
X949082Y320081D01*
X949040Y319819D01*
X948467Y318054D01*
X947624Y316400D01*
X946534Y314899D01*
X945221Y313586D01*
X943720Y312496D01*
X942066Y311653D01*
X940301Y311080D01*
X940039Y311038D01*
X940039Y320081D01*
G37*
%LPD*%
%LPC*%
G36*
X847258Y325079D02*
X847258Y325079D01*
X847300Y325341D01*
X847873Y327106D01*
X848716Y328760D01*
X849806Y330261D01*
X851119Y331574D01*
X852620Y332664D01*
X854274Y333507D01*
X856039Y334080D01*
X856301Y334122D01*
X856301Y325079D01*
X847258Y325079D01*
G37*
%LPD*%
%LPC*%
G36*
X925998Y325079D02*
X925998Y325079D01*
X926040Y325341D01*
X926613Y327106D01*
X927456Y328760D01*
X928546Y330261D01*
X929859Y331574D01*
X931360Y332664D01*
X933014Y333507D01*
X934779Y334080D01*
X935041Y334122D01*
X935041Y325079D01*
X925998Y325079D01*
G37*
%LPD*%
%LPC*%
G36*
X861299Y320081D02*
X861299Y320081D01*
X870342Y320081D01*
X870300Y319819D01*
X869727Y318054D01*
X868884Y316400D01*
X867794Y314899D01*
X866481Y313586D01*
X864980Y312496D01*
X863326Y311653D01*
X861561Y311080D01*
X861299Y311038D01*
X861299Y320081D01*
G37*
%LPD*%
%LPC*%
G36*
X934779Y311080D02*
X934779Y311080D01*
X933014Y311653D01*
X931360Y312496D01*
X929859Y313586D01*
X928546Y314899D01*
X927456Y316400D01*
X926613Y318054D01*
X926040Y319819D01*
X925998Y320081D01*
X935041Y320081D01*
X935041Y311038D01*
X934779Y311080D01*
G37*
%LPD*%
%LPC*%
G36*
X856039Y311080D02*
X856039Y311080D01*
X854274Y311653D01*
X852620Y312496D01*
X851119Y313586D01*
X849806Y314899D01*
X848716Y316400D01*
X847873Y318054D01*
X847300Y319819D01*
X847258Y320081D01*
X856301Y320081D01*
X856301Y311038D01*
X856039Y311080D01*
G37*
%LPD*%
%LPC*%
G36*
X651469Y490179D02*
X651469Y490179D01*
X651469Y497761D01*
X656844Y497761D01*
X657491Y497588D01*
X658070Y497253D01*
X658543Y496780D01*
X658878Y496201D01*
X659051Y495554D01*
X659051Y490179D01*
X651469Y490179D01*
G37*
%LPD*%
%LPC*%
G36*
X638889Y490179D02*
X638889Y490179D01*
X638889Y495554D01*
X639062Y496201D01*
X639397Y496780D01*
X639870Y497253D01*
X640449Y497588D01*
X641096Y497761D01*
X646471Y497761D01*
X646471Y490179D01*
X638889Y490179D01*
G37*
%LPD*%
%LPC*%
G36*
X651469Y477599D02*
X651469Y477599D01*
X651469Y485181D01*
X659051Y485181D01*
X659051Y479806D01*
X658878Y479159D01*
X658543Y478580D01*
X658070Y478107D01*
X657491Y477772D01*
X656844Y477599D01*
X651469Y477599D01*
G37*
%LPD*%
%LPC*%
G36*
X641096Y477599D02*
X641096Y477599D01*
X640449Y477772D01*
X639870Y478107D01*
X639397Y478580D01*
X639062Y479159D01*
X638889Y479806D01*
X638889Y485181D01*
X646471Y485181D01*
X646471Y477599D01*
X641096Y477599D01*
G37*
%LPD*%
%LPC*%
G36*
X1059019Y431539D02*
X1059019Y431539D01*
X1059019Y440185D01*
X1059738Y440071D01*
X1061316Y439558D01*
X1062794Y438805D01*
X1064137Y437830D01*
X1065310Y436657D01*
X1066285Y435314D01*
X1067038Y433836D01*
X1067551Y432258D01*
X1067665Y431539D01*
X1059019Y431539D01*
G37*
%LPD*%
%LPC*%
G36*
X1059019Y428041D02*
X1059019Y428041D01*
X1067665Y428041D01*
X1067551Y427322D01*
X1067038Y425744D01*
X1066285Y424266D01*
X1065310Y422923D01*
X1064137Y421750D01*
X1062794Y420775D01*
X1061316Y420022D01*
X1059738Y419509D01*
X1059019Y419395D01*
X1059019Y428041D01*
G37*
%LPD*%
%LPC*%
G36*
X932019Y428041D02*
X932019Y428041D01*
X940665Y428041D01*
X940551Y427322D01*
X940038Y425744D01*
X939285Y424266D01*
X938310Y422923D01*
X937137Y421750D01*
X935794Y420775D01*
X934316Y420022D01*
X932738Y419509D01*
X932019Y419395D01*
X932019Y428041D01*
G37*
%LPD*%
%LPC*%
G36*
X1098459Y523379D02*
X1098459Y523379D01*
X1098459Y531439D01*
X1098464Y531438D01*
X1100091Y530910D01*
X1101615Y530133D01*
X1102994Y529131D01*
X1103047Y529102D01*
X1103094Y529065D01*
X1103186Y529026D01*
X1103273Y528978D01*
X1103331Y528963D01*
X1103386Y528939D01*
X1103485Y528923D01*
X1103581Y528899D01*
X1103641Y528899D01*
X1103700Y528889D01*
X1103800Y528898D01*
X1103899Y528898D01*
X1103957Y528913D01*
X1104001Y528917D01*
X1103996Y528878D01*
X1103974Y528781D01*
X1103976Y528721D01*
X1103968Y528662D01*
X1103981Y528563D01*
X1103984Y528463D01*
X1104001Y528406D01*
X1104008Y528346D01*
X1104045Y528253D01*
X1104072Y528158D01*
X1104103Y528106D01*
X1104125Y528050D01*
X1104211Y527914D01*
X1105213Y526535D01*
X1105990Y525011D01*
X1106518Y523384D01*
X1106519Y523379D01*
X1098459Y523379D01*
G37*
%LPD*%
%LPC*%
G36*
X763176Y535642D02*
X763176Y535642D01*
X761549Y536170D01*
X760025Y536947D01*
X758646Y537949D01*
X758593Y537978D01*
X758546Y538015D01*
X758454Y538054D01*
X758367Y538102D01*
X758309Y538117D01*
X758254Y538141D01*
X758156Y538157D01*
X758059Y538181D01*
X757999Y538181D01*
X757940Y538191D01*
X757840Y538182D01*
X757741Y538182D01*
X757683Y538167D01*
X757639Y538163D01*
X757644Y538201D01*
X757666Y538299D01*
X757664Y538359D01*
X757672Y538418D01*
X757659Y538517D01*
X757656Y538617D01*
X757639Y538674D01*
X757632Y538734D01*
X757595Y538827D01*
X757568Y538922D01*
X757537Y538974D01*
X757515Y539030D01*
X757429Y539166D01*
X756427Y540545D01*
X755650Y542069D01*
X755122Y543696D01*
X755121Y543701D01*
X763181Y543701D01*
X763181Y535641D01*
X763176Y535642D01*
G37*
%LPD*%
%LPC*%
G36*
X920659Y523379D02*
X920659Y523379D01*
X920659Y531439D01*
X920664Y531438D01*
X922291Y530910D01*
X923815Y530133D01*
X925199Y529128D01*
X926408Y527919D01*
X927413Y526535D01*
X928190Y525011D01*
X928718Y523384D01*
X928719Y523379D01*
X920659Y523379D01*
G37*
%LPD*%
%LPC*%
G36*
X844459Y548779D02*
X844459Y548779D01*
X844459Y556839D01*
X844464Y556838D01*
X846091Y556310D01*
X847615Y555533D01*
X848999Y554528D01*
X850208Y553319D01*
X851213Y551935D01*
X851990Y550411D01*
X852518Y548784D01*
X852519Y548779D01*
X844459Y548779D01*
G37*
%LPD*%
%LPC*%
G36*
X971459Y548779D02*
X971459Y548779D01*
X971459Y556839D01*
X971464Y556838D01*
X973091Y556310D01*
X974615Y555533D01*
X975999Y554528D01*
X977208Y553319D01*
X978213Y551935D01*
X978990Y550411D01*
X979518Y548784D01*
X979519Y548779D01*
X971459Y548779D01*
G37*
%LPD*%
%LPC*%
G36*
X768259Y548779D02*
X768259Y548779D01*
X768259Y556839D01*
X768264Y556838D01*
X769891Y556310D01*
X771415Y555533D01*
X772799Y554528D01*
X774008Y553319D01*
X775013Y551935D01*
X775790Y550411D01*
X776318Y548784D01*
X776319Y548779D01*
X768259Y548779D01*
G37*
%LPD*%
%LPC*%
G36*
X1022259Y548779D02*
X1022259Y548779D01*
X1022259Y556839D01*
X1022264Y556838D01*
X1023891Y556310D01*
X1025415Y555533D01*
X1026799Y554528D01*
X1028008Y553319D01*
X1029013Y551935D01*
X1029790Y550411D01*
X1030318Y548784D01*
X1030319Y548779D01*
X1022259Y548779D01*
G37*
%LPD*%
%LPC*%
G36*
X666659Y548779D02*
X666659Y548779D01*
X666659Y556839D01*
X666664Y556838D01*
X668291Y556310D01*
X669815Y555533D01*
X671199Y554528D01*
X672408Y553319D01*
X673413Y551935D01*
X674190Y550411D01*
X674718Y548784D01*
X674719Y548779D01*
X666659Y548779D01*
G37*
%LPD*%
%LPC*%
G36*
X666659Y543701D02*
X666659Y543701D01*
X674719Y543701D01*
X674718Y543696D01*
X674190Y542069D01*
X673413Y540545D01*
X672408Y539161D01*
X671199Y537952D01*
X669815Y536947D01*
X668291Y536170D01*
X666664Y535642D01*
X666659Y535641D01*
X666659Y543701D01*
G37*
%LPD*%
%LPC*%
G36*
X1022259Y543701D02*
X1022259Y543701D01*
X1030319Y543701D01*
X1030318Y543696D01*
X1029790Y542069D01*
X1029013Y540545D01*
X1028008Y539161D01*
X1026799Y537952D01*
X1025415Y536947D01*
X1023891Y536170D01*
X1022264Y535642D01*
X1022259Y535641D01*
X1022259Y543701D01*
G37*
%LPD*%
%LPC*%
G36*
X1085321Y523379D02*
X1085321Y523379D01*
X1085322Y523384D01*
X1085850Y525011D01*
X1086627Y526535D01*
X1087632Y527919D01*
X1088841Y529128D01*
X1090225Y530133D01*
X1091749Y530910D01*
X1093376Y531438D01*
X1093381Y531439D01*
X1093381Y523379D01*
X1085321Y523379D01*
G37*
%LPD*%
%LPC*%
G36*
X907521Y523379D02*
X907521Y523379D01*
X907522Y523384D01*
X908050Y525011D01*
X908827Y526535D01*
X909832Y527919D01*
X911041Y529128D01*
X912425Y530133D01*
X913949Y530910D01*
X915576Y531438D01*
X915581Y531439D01*
X915581Y523379D01*
X907521Y523379D01*
G37*
%LPD*%
%LPC*%
G36*
X1098459Y518301D02*
X1098459Y518301D01*
X1106519Y518301D01*
X1106518Y518296D01*
X1105990Y516669D01*
X1105213Y515145D01*
X1104208Y513761D01*
X1102999Y512552D01*
X1101615Y511547D01*
X1100091Y510770D01*
X1098464Y510242D01*
X1098459Y510241D01*
X1098459Y518301D01*
G37*
%LPD*%
%LPC*%
G36*
X920659Y518301D02*
X920659Y518301D01*
X928719Y518301D01*
X928718Y518296D01*
X928190Y516669D01*
X927413Y515145D01*
X926408Y513761D01*
X925199Y512552D01*
X923815Y511547D01*
X922291Y510770D01*
X920664Y510242D01*
X920659Y510241D01*
X920659Y518301D01*
G37*
%LPD*%
%LPC*%
G36*
X768259Y543701D02*
X768259Y543701D01*
X776319Y543701D01*
X776318Y543696D01*
X775790Y542069D01*
X775013Y540545D01*
X774008Y539161D01*
X772799Y537952D01*
X771415Y536947D01*
X769891Y536170D01*
X768264Y535642D01*
X768259Y535641D01*
X768259Y543701D01*
G37*
%LPD*%
%LPC*%
G36*
X1009121Y548779D02*
X1009121Y548779D01*
X1009122Y548784D01*
X1009650Y550411D01*
X1010427Y551935D01*
X1011432Y553319D01*
X1012641Y554528D01*
X1014025Y555533D01*
X1015549Y556310D01*
X1017176Y556838D01*
X1017181Y556839D01*
X1017181Y548779D01*
X1009121Y548779D01*
G37*
%LPD*%
%LPC*%
G36*
X755121Y548779D02*
X755121Y548779D01*
X755122Y548784D01*
X755650Y550411D01*
X756427Y551935D01*
X757432Y553319D01*
X758641Y554528D01*
X760025Y555533D01*
X761549Y556310D01*
X763176Y556838D01*
X763181Y556839D01*
X763181Y548779D01*
X755121Y548779D01*
G37*
%LPD*%
%LPC*%
G36*
X653521Y548779D02*
X653521Y548779D01*
X653522Y548784D01*
X654050Y550411D01*
X654827Y551935D01*
X655832Y553319D01*
X657041Y554528D01*
X658425Y555533D01*
X659949Y556310D01*
X661576Y556838D01*
X661581Y556839D01*
X661581Y548779D01*
X653521Y548779D01*
G37*
%LPD*%
%LPC*%
G36*
X844459Y543701D02*
X844459Y543701D01*
X852519Y543701D01*
X852518Y543696D01*
X851990Y542069D01*
X851213Y540545D01*
X850208Y539161D01*
X848999Y537952D01*
X847615Y536947D01*
X846091Y536170D01*
X844464Y535642D01*
X844459Y535641D01*
X844459Y543701D01*
G37*
%LPD*%
%LPC*%
G36*
X958321Y548779D02*
X958321Y548779D01*
X958322Y548784D01*
X958850Y550411D01*
X959627Y551935D01*
X960632Y553319D01*
X961841Y554528D01*
X963225Y555533D01*
X964749Y556310D01*
X966376Y556838D01*
X966381Y556839D01*
X966381Y548779D01*
X958321Y548779D01*
G37*
%LPD*%
%LPC*%
G36*
X831321Y548779D02*
X831321Y548779D01*
X831322Y548784D01*
X831850Y550411D01*
X832627Y551935D01*
X833632Y553319D01*
X834841Y554528D01*
X836225Y555533D01*
X837749Y556310D01*
X839376Y556838D01*
X839381Y556839D01*
X839381Y548779D01*
X831321Y548779D01*
G37*
%LPD*%
%LPC*%
G36*
X971459Y543701D02*
X971459Y543701D01*
X979519Y543701D01*
X979518Y543696D01*
X978990Y542069D01*
X978213Y540545D01*
X977208Y539161D01*
X975999Y537952D01*
X974615Y536947D01*
X973091Y536170D01*
X971464Y535642D01*
X971459Y535641D01*
X971459Y543701D01*
G37*
%LPD*%
%LPC*%
G36*
X966376Y535642D02*
X966376Y535642D01*
X964749Y536170D01*
X963225Y536947D01*
X961841Y537952D01*
X960632Y539161D01*
X959627Y540545D01*
X958850Y542069D01*
X958322Y543696D01*
X958321Y543701D01*
X966381Y543701D01*
X966381Y535641D01*
X966376Y535642D01*
G37*
%LPD*%
%LPC*%
G36*
X661576Y535642D02*
X661576Y535642D01*
X659949Y536170D01*
X658425Y536947D01*
X657041Y537952D01*
X655832Y539161D01*
X654827Y540545D01*
X654050Y542069D01*
X653522Y543696D01*
X653521Y543701D01*
X661581Y543701D01*
X661581Y535641D01*
X661576Y535642D01*
G37*
%LPD*%
%LPC*%
G36*
X1093376Y510242D02*
X1093376Y510242D01*
X1091749Y510770D01*
X1090225Y511547D01*
X1088841Y512552D01*
X1087632Y513761D01*
X1086627Y515145D01*
X1085850Y516669D01*
X1085322Y518296D01*
X1085321Y518301D01*
X1093381Y518301D01*
X1093381Y510241D01*
X1093376Y510242D01*
G37*
%LPD*%
%LPC*%
G36*
X915576Y510242D02*
X915576Y510242D01*
X913949Y510770D01*
X912425Y511547D01*
X911041Y512552D01*
X909832Y513761D01*
X908827Y515145D01*
X908050Y516669D01*
X907522Y518296D01*
X907521Y518301D01*
X915581Y518301D01*
X915581Y510241D01*
X915576Y510242D01*
G37*
%LPD*%
%LPC*%
G36*
X1017176Y535642D02*
X1017176Y535642D01*
X1015549Y536170D01*
X1014025Y536947D01*
X1012641Y537952D01*
X1011432Y539161D01*
X1010427Y540545D01*
X1009650Y542069D01*
X1009122Y543696D01*
X1009121Y543701D01*
X1017181Y543701D01*
X1017181Y535641D01*
X1017176Y535642D01*
G37*
%LPD*%
%LPC*%
G36*
X839376Y535642D02*
X839376Y535642D01*
X837749Y536170D01*
X836225Y536947D01*
X834841Y537952D01*
X833632Y539161D01*
X832627Y540545D01*
X831850Y542069D01*
X831322Y543696D01*
X831321Y543701D01*
X839381Y543701D01*
X839381Y535641D01*
X839376Y535642D01*
G37*
%LPD*%
%LPC*%
G36*
X1118883Y376649D02*
X1118883Y376649D01*
X1118903Y376776D01*
X1119345Y378136D01*
X1119993Y379409D01*
X1120834Y380566D01*
X1121844Y381576D01*
X1123001Y382417D01*
X1124274Y383065D01*
X1125634Y383507D01*
X1125761Y383527D01*
X1125761Y376649D01*
X1118883Y376649D01*
G37*
%LPD*%
%LPC*%
G36*
X1125634Y365793D02*
X1125634Y365793D01*
X1124274Y366235D01*
X1123001Y366883D01*
X1121844Y367724D01*
X1120834Y368734D01*
X1119993Y369891D01*
X1119345Y371164D01*
X1118903Y372524D01*
X1118883Y372651D01*
X1125761Y372651D01*
X1125761Y365773D01*
X1125634Y365793D01*
G37*
%LPD*%
%LPC*%
G36*
X1095919Y520839D02*
X1095919Y520839D01*
X1095919Y520841D01*
X1095921Y520841D01*
X1095921Y520839D01*
X1095919Y520839D01*
G37*
%LPD*%
%LPC*%
G36*
X765719Y546239D02*
X765719Y546239D01*
X765719Y546241D01*
X765721Y546241D01*
X765721Y546239D01*
X765719Y546239D01*
G37*
%LPD*%
%LPC*%
G36*
X1019719Y546239D02*
X1019719Y546239D01*
X1019719Y546241D01*
X1019721Y546241D01*
X1019721Y546239D01*
X1019719Y546239D01*
G37*
%LPD*%
%LPC*%
G36*
X968919Y546239D02*
X968919Y546239D01*
X968919Y546241D01*
X968921Y546241D01*
X968921Y546239D01*
X968919Y546239D01*
G37*
%LPD*%
%LPC*%
G36*
X841919Y546239D02*
X841919Y546239D01*
X841919Y546241D01*
X841921Y546241D01*
X841921Y546239D01*
X841919Y546239D01*
G37*
%LPD*%
%LPC*%
G36*
X918119Y520839D02*
X918119Y520839D01*
X918119Y520841D01*
X918121Y520841D01*
X918121Y520839D01*
X918119Y520839D01*
G37*
%LPD*%
%LPC*%
G36*
X664119Y546239D02*
X664119Y546239D01*
X664119Y546241D01*
X664121Y546241D01*
X664121Y546239D01*
X664119Y546239D01*
G37*
%LPD*%
D10*
X648970Y487680D03*
D11*
X674370Y487680D03*
X699770Y487680D03*
X725170Y487680D03*
D12*
X613320Y520840D03*
X613320Y546240D03*
X638720Y520840D03*
X638720Y546240D03*
X664120Y520840D03*
X664120Y546240D03*
X689520Y520840D03*
X689520Y546240D03*
X714920Y520840D03*
X714920Y546240D03*
X740320Y520840D03*
X740320Y546240D03*
X765720Y520840D03*
X765720Y546240D03*
X791120Y520840D03*
X791120Y546240D03*
X816520Y520840D03*
X816520Y546240D03*
X841920Y520840D03*
X841920Y546240D03*
X867320Y520840D03*
X867320Y546240D03*
X892720Y520840D03*
X892720Y546240D03*
X918120Y520840D03*
X918120Y546240D03*
X943520Y520840D03*
X943520Y546240D03*
X968920Y520840D03*
X968920Y546240D03*
X994320Y520840D03*
X994320Y546240D03*
X1019720Y520840D03*
X1019720Y546240D03*
X1045120Y520840D03*
X1045120Y546240D03*
X1070520Y520840D03*
X1070520Y546240D03*
X1095920Y520840D03*
X1095920Y546240D03*
X1095920Y495440D03*
X1070520Y495440D03*
X1070520Y470040D03*
X1095920Y470040D03*
D13*
X1051560Y374650D03*
D14*
X1076960Y374650D03*
X1102360Y374650D03*
X1127760Y374650D03*
D15*
X893800Y322580D03*
D16*
X858800Y322580D03*
D15*
X972540Y322580D03*
D16*
X937540Y322580D03*
D17*
X850270Y429790D03*
X870270Y429790D03*
X890270Y429790D03*
X910270Y429790D03*
X930270Y429790D03*
X977270Y429790D03*
X997270Y429790D03*
X1017270Y429790D03*
X1037270Y429790D03*
X1057270Y429790D03*
D18*
X664120Y546240D02*
X664120Y553048D01*
X657860Y559308D01*
X596900Y559308D01*
X591820Y554228D01*
X591820Y505460D01*
X609600Y487680D01*
X648970Y487680D01*
D19*
X1057270Y429790D02*
X1090820Y396240D01*
X1118870Y396240D02*
X1127760Y387350D01*
X1127760Y374650D01*
X1118870Y396240D02*
X1090820Y396240D01*
D18*
X1115060Y501700D02*
X1095920Y520840D01*
X1115060Y501700D02*
X1115060Y457200D01*
X1087650Y429790D01*
X1057270Y429790D01*
X937540Y422520D02*
X930270Y429790D01*
X937540Y422520D02*
X937540Y346710D01*
X937540Y322580D01*
X858800Y322580D02*
X858800Y333020D01*
X872490Y346710D02*
X937540Y346710D01*
X872490Y346710D02*
X858800Y333020D01*
D19*
X648970Y368300D02*
X648970Y487680D01*
X694690Y322580D02*
X858800Y322580D01*
X694690Y322580D02*
X648970Y368300D01*
D20*
X666800Y500380D02*
X646340Y520840D01*
X638720Y520840D01*
X712470Y500380D02*
X725170Y487680D01*
X712470Y500380D02*
X666800Y500380D01*
D19*
X870270Y437200D02*
X870270Y429790D01*
X870270Y437200D02*
X877570Y444500D01*
X941070Y444500D01*
X951230Y434340D02*
X951230Y421640D01*
X961390Y411480D01*
X978960Y411480D02*
X997270Y429790D01*
X951230Y434340D02*
X941070Y444500D01*
X961390Y411480D02*
X978960Y411480D01*
D20*
X765810Y520750D02*
X765720Y520840D01*
X765810Y520750D02*
X765810Y513080D01*
X772160Y506730D01*
X1009650Y469900D02*
X1037590Y441960D01*
X1037590Y430110D01*
X1037270Y429790D01*
X825500Y506730D02*
X772160Y506730D01*
X825500Y506730D02*
X862330Y469900D01*
X1009650Y469900D01*
X753110Y533450D02*
X740320Y546240D01*
X753110Y533450D02*
X753110Y506730D01*
X760730Y499110D01*
X989330Y462280D02*
X1017270Y434340D01*
X1017270Y429790D01*
X820420Y499110D02*
X760730Y499110D01*
X820420Y499110D02*
X857250Y462280D01*
X989330Y462280D01*
X727710Y533450D02*
X714920Y546240D01*
X727710Y533450D02*
X727710Y514350D01*
X765810Y476250D01*
X802640Y412750D02*
X883920Y412750D01*
X890270Y419100D01*
X890270Y429790D01*
X765810Y449580D02*
X765810Y476250D01*
X765810Y449580D02*
X802640Y412750D01*
X702310Y533450D02*
X689520Y546240D01*
X702310Y533450D02*
X702310Y514350D01*
X709930Y506730D01*
X723900Y506730D01*
X891540Y405130D02*
X910270Y423860D01*
X910270Y429790D01*
X756920Y473710D02*
X723900Y506730D01*
X756920Y473710D02*
X756920Y447040D01*
X798830Y405130D01*
X891540Y405130D01*
X1095920Y546240D02*
X1141730Y500430D01*
X1085850Y285750D02*
X909320Y285750D01*
X893800Y301270D01*
X893800Y322580D01*
X1141730Y341630D02*
X1141730Y500430D01*
X1141730Y341630D02*
X1085850Y285750D01*
D19*
X850270Y429790D02*
X850270Y437520D01*
X866140Y453390D01*
X953670Y453390D01*
X977270Y429790D01*
M02*
