G04 EAGLE Gerber RS-274X export*
G75*
%MOMM*%
%FSLAX34Y34*%
%LPD*%
%IN*%
%IPPOS*%
%AMOC8*
5,1,8,0,0,1.08239X$1,22.5*%
G01*
%ADD10C,0.254000*%


D10*
X529590Y295910D02*
X529682Y293807D01*
X529957Y291720D01*
X530412Y289665D01*
X531045Y287657D01*
X531851Y285712D01*
X532823Y283845D01*
X533954Y282070D01*
X535235Y280400D01*
X536658Y278848D01*
X538210Y277425D01*
X539880Y276144D01*
X541655Y275013D01*
X543522Y274041D01*
X545467Y273235D01*
X547475Y272602D01*
X549530Y272147D01*
X551617Y271872D01*
X553720Y271780D01*
X1155700Y271780D01*
X1157803Y271872D01*
X1159890Y272147D01*
X1161945Y272602D01*
X1163953Y273235D01*
X1165898Y274041D01*
X1167765Y275013D01*
X1169540Y276144D01*
X1171210Y277425D01*
X1172763Y278848D01*
X1174185Y280400D01*
X1175466Y282070D01*
X1176597Y283845D01*
X1177569Y285712D01*
X1178375Y287657D01*
X1179008Y289665D01*
X1179463Y291720D01*
X1179738Y293807D01*
X1179830Y295910D01*
X1179830Y547370D01*
X1179738Y549473D01*
X1179463Y551560D01*
X1179008Y553615D01*
X1178375Y555623D01*
X1177569Y557568D01*
X1176597Y559435D01*
X1175466Y561210D01*
X1174185Y562880D01*
X1172763Y564433D01*
X1171210Y565855D01*
X1169540Y567136D01*
X1167765Y568267D01*
X1165898Y569239D01*
X1163953Y570045D01*
X1161945Y570678D01*
X1159890Y571133D01*
X1157803Y571408D01*
X1155700Y571500D01*
X552450Y571500D01*
X550458Y571413D01*
X548480Y571153D01*
X546533Y570721D01*
X544631Y570121D01*
X542789Y569358D01*
X541020Y568437D01*
X539338Y567366D01*
X537756Y566152D01*
X536286Y564804D01*
X534938Y563334D01*
X533724Y561752D01*
X532653Y560070D01*
X531732Y558301D01*
X530969Y556459D01*
X530369Y554557D01*
X529937Y552610D01*
X529677Y550632D01*
X529590Y548640D01*
X529590Y295910D01*
X592930Y475813D02*
X592854Y474944D01*
X592702Y474084D01*
X592476Y473240D01*
X592178Y472420D01*
X591809Y471628D01*
X591372Y470872D01*
X590871Y470157D01*
X590310Y469488D01*
X589692Y468870D01*
X589023Y468309D01*
X588308Y467808D01*
X587552Y467371D01*
X586760Y467002D01*
X585940Y466704D01*
X585096Y466478D01*
X584237Y466326D01*
X583367Y466250D01*
X582493Y466250D01*
X581624Y466326D01*
X580764Y466478D01*
X579920Y466704D01*
X579100Y467002D01*
X578308Y467371D01*
X577552Y467808D01*
X576837Y468309D01*
X576168Y468870D01*
X575550Y469488D01*
X574989Y470157D01*
X574488Y470872D01*
X574051Y471628D01*
X573682Y472420D01*
X573384Y473240D01*
X573158Y474084D01*
X573006Y474944D01*
X572930Y475813D01*
X572930Y476687D01*
X573006Y477557D01*
X573158Y478416D01*
X573384Y479260D01*
X573682Y480080D01*
X574051Y480872D01*
X574488Y481628D01*
X574989Y482343D01*
X575550Y483012D01*
X576168Y483630D01*
X576837Y484191D01*
X577552Y484692D01*
X578308Y485129D01*
X579100Y485498D01*
X579920Y485796D01*
X580764Y486022D01*
X581624Y486174D01*
X582493Y486250D01*
X583367Y486250D01*
X584237Y486174D01*
X585096Y486022D01*
X585940Y485796D01*
X586760Y485498D01*
X587552Y485129D01*
X588308Y484692D01*
X589023Y484191D01*
X589692Y483630D01*
X590310Y483012D01*
X590871Y482343D01*
X591372Y481628D01*
X591809Y480872D01*
X592178Y480080D01*
X592476Y479260D01*
X592702Y478416D01*
X592854Y477557D01*
X592930Y476687D01*
X592930Y475813D01*
X801210Y475813D02*
X801134Y474944D01*
X800982Y474084D01*
X800756Y473240D01*
X800458Y472420D01*
X800089Y471628D01*
X799652Y470872D01*
X799151Y470157D01*
X798590Y469488D01*
X797972Y468870D01*
X797303Y468309D01*
X796588Y467808D01*
X795832Y467371D01*
X795040Y467002D01*
X794220Y466704D01*
X793376Y466478D01*
X792517Y466326D01*
X791647Y466250D01*
X790773Y466250D01*
X789904Y466326D01*
X789044Y466478D01*
X788200Y466704D01*
X787380Y467002D01*
X786588Y467371D01*
X785832Y467808D01*
X785117Y468309D01*
X784448Y468870D01*
X783830Y469488D01*
X783269Y470157D01*
X782768Y470872D01*
X782331Y471628D01*
X781962Y472420D01*
X781664Y473240D01*
X781438Y474084D01*
X781286Y474944D01*
X781210Y475813D01*
X781210Y476687D01*
X781286Y477557D01*
X781438Y478416D01*
X781664Y479260D01*
X781962Y480080D01*
X782331Y480872D01*
X782768Y481628D01*
X783269Y482343D01*
X783830Y483012D01*
X784448Y483630D01*
X785117Y484191D01*
X785832Y484692D01*
X786588Y485129D01*
X787380Y485498D01*
X788200Y485796D01*
X789044Y486022D01*
X789904Y486174D01*
X790773Y486250D01*
X791647Y486250D01*
X792517Y486174D01*
X793376Y486022D01*
X794220Y485796D01*
X795040Y485498D01*
X795832Y485129D01*
X796588Y484692D01*
X797303Y484191D01*
X797972Y483630D01*
X798590Y483012D01*
X799151Y482343D01*
X799652Y481628D01*
X800089Y480872D01*
X800458Y480080D01*
X800756Y479260D01*
X800982Y478416D01*
X801134Y477557D01*
X801210Y476687D01*
X801210Y475813D01*
X801210Y244673D02*
X801134Y243804D01*
X800982Y242944D01*
X800756Y242100D01*
X800458Y241280D01*
X800089Y240488D01*
X799652Y239732D01*
X799151Y239017D01*
X798590Y238348D01*
X797972Y237730D01*
X797303Y237169D01*
X796588Y236668D01*
X795832Y236231D01*
X795040Y235862D01*
X794220Y235564D01*
X793376Y235338D01*
X792517Y235186D01*
X791647Y235110D01*
X790773Y235110D01*
X789904Y235186D01*
X789044Y235338D01*
X788200Y235564D01*
X787380Y235862D01*
X786588Y236231D01*
X785832Y236668D01*
X785117Y237169D01*
X784448Y237730D01*
X783830Y238348D01*
X783269Y239017D01*
X782768Y239732D01*
X782331Y240488D01*
X781962Y241280D01*
X781664Y242100D01*
X781438Y242944D01*
X781286Y243804D01*
X781210Y244673D01*
X781210Y245547D01*
X781286Y246417D01*
X781438Y247276D01*
X781664Y248120D01*
X781962Y248940D01*
X782331Y249732D01*
X782768Y250488D01*
X783269Y251203D01*
X783830Y251872D01*
X784448Y252490D01*
X785117Y253051D01*
X785832Y253552D01*
X786588Y253989D01*
X787380Y254358D01*
X788200Y254656D01*
X789044Y254882D01*
X789904Y255034D01*
X790773Y255110D01*
X791647Y255110D01*
X792517Y255034D01*
X793376Y254882D01*
X794220Y254656D01*
X795040Y254358D01*
X795832Y253989D01*
X796588Y253552D01*
X797303Y253051D01*
X797972Y252490D01*
X798590Y251872D01*
X799151Y251203D01*
X799652Y250488D01*
X800089Y249732D01*
X800458Y248940D01*
X800756Y248120D01*
X800982Y247276D01*
X801134Y246417D01*
X801210Y245547D01*
X801210Y244673D01*
X592930Y244673D02*
X592854Y243804D01*
X592702Y242944D01*
X592476Y242100D01*
X592178Y241280D01*
X591809Y240488D01*
X591372Y239732D01*
X590871Y239017D01*
X590310Y238348D01*
X589692Y237730D01*
X589023Y237169D01*
X588308Y236668D01*
X587552Y236231D01*
X586760Y235862D01*
X585940Y235564D01*
X585096Y235338D01*
X584237Y235186D01*
X583367Y235110D01*
X582493Y235110D01*
X581624Y235186D01*
X580764Y235338D01*
X579920Y235564D01*
X579100Y235862D01*
X578308Y236231D01*
X577552Y236668D01*
X576837Y237169D01*
X576168Y237730D01*
X575550Y238348D01*
X574989Y239017D01*
X574488Y239732D01*
X574051Y240488D01*
X573682Y241280D01*
X573384Y242100D01*
X573158Y242944D01*
X573006Y243804D01*
X572930Y244673D01*
X572930Y245547D01*
X573006Y246417D01*
X573158Y247276D01*
X573384Y248120D01*
X573682Y248940D01*
X574051Y249732D01*
X574488Y250488D01*
X574989Y251203D01*
X575550Y251872D01*
X576168Y252490D01*
X576837Y253051D01*
X577552Y253552D01*
X578308Y253989D01*
X579100Y254358D01*
X579920Y254656D01*
X580764Y254882D01*
X581624Y255034D01*
X582493Y255110D01*
X583367Y255110D01*
X584237Y255034D01*
X585096Y254882D01*
X585940Y254656D01*
X586760Y254358D01*
X587552Y253989D01*
X588308Y253552D01*
X589023Y253051D01*
X589692Y252490D01*
X590310Y251872D01*
X590871Y251203D01*
X591372Y250488D01*
X591809Y249732D01*
X592178Y248940D01*
X592476Y248120D01*
X592702Y247276D01*
X592854Y246417D01*
X592930Y245547D01*
X592930Y244673D01*
X578620Y536140D02*
X578549Y535143D01*
X578406Y534153D01*
X578194Y533176D01*
X577912Y532216D01*
X577563Y531279D01*
X577147Y530369D01*
X576668Y529492D01*
X576127Y528650D01*
X575528Y527850D01*
X574873Y527094D01*
X574166Y526387D01*
X573410Y525732D01*
X572610Y525133D01*
X571768Y524592D01*
X570891Y524113D01*
X569981Y523697D01*
X569044Y523348D01*
X568085Y523066D01*
X567107Y522854D01*
X566118Y522711D01*
X565120Y522640D01*
X564120Y522640D01*
X563123Y522711D01*
X562133Y522854D01*
X561156Y523066D01*
X560196Y523348D01*
X559259Y523697D01*
X558349Y524113D01*
X557472Y524592D01*
X556630Y525133D01*
X555830Y525732D01*
X555074Y526387D01*
X554367Y527094D01*
X553712Y527850D01*
X553113Y528650D01*
X552572Y529492D01*
X552093Y530369D01*
X551677Y531279D01*
X551328Y532216D01*
X551046Y533176D01*
X550834Y534153D01*
X550691Y535143D01*
X550620Y536140D01*
X550620Y537140D01*
X550691Y538138D01*
X550834Y539127D01*
X551046Y540105D01*
X551328Y541064D01*
X551677Y542001D01*
X552093Y542911D01*
X552572Y543788D01*
X553113Y544630D01*
X553712Y545430D01*
X554367Y546186D01*
X555074Y546893D01*
X555830Y547548D01*
X556630Y548147D01*
X557472Y548688D01*
X558349Y549167D01*
X559259Y549583D01*
X560196Y549932D01*
X561156Y550214D01*
X562133Y550426D01*
X563123Y550569D01*
X564120Y550640D01*
X565120Y550640D01*
X566118Y550569D01*
X567107Y550426D01*
X568085Y550214D01*
X569044Y549932D01*
X569981Y549583D01*
X570891Y549167D01*
X571768Y548688D01*
X572610Y548147D01*
X573410Y547548D01*
X574166Y546893D01*
X574873Y546186D01*
X575528Y545430D01*
X576127Y544630D01*
X576668Y543788D01*
X577147Y542911D01*
X577563Y542001D01*
X577912Y541064D01*
X578194Y540105D01*
X578406Y539127D01*
X578549Y538138D01*
X578620Y537140D01*
X578620Y536140D01*
X578620Y306140D02*
X578549Y305143D01*
X578406Y304153D01*
X578194Y303176D01*
X577912Y302216D01*
X577563Y301279D01*
X577147Y300369D01*
X576668Y299492D01*
X576127Y298650D01*
X575528Y297850D01*
X574873Y297094D01*
X574166Y296387D01*
X573410Y295732D01*
X572610Y295133D01*
X571768Y294592D01*
X570891Y294113D01*
X569981Y293697D01*
X569044Y293348D01*
X568085Y293066D01*
X567107Y292854D01*
X566118Y292711D01*
X565120Y292640D01*
X564120Y292640D01*
X563123Y292711D01*
X562133Y292854D01*
X561156Y293066D01*
X560196Y293348D01*
X559259Y293697D01*
X558349Y294113D01*
X557472Y294592D01*
X556630Y295133D01*
X555830Y295732D01*
X555074Y296387D01*
X554367Y297094D01*
X553712Y297850D01*
X553113Y298650D01*
X552572Y299492D01*
X552093Y300369D01*
X551677Y301279D01*
X551328Y302216D01*
X551046Y303176D01*
X550834Y304153D01*
X550691Y305143D01*
X550620Y306140D01*
X550620Y307140D01*
X550691Y308138D01*
X550834Y309127D01*
X551046Y310105D01*
X551328Y311064D01*
X551677Y312001D01*
X552093Y312911D01*
X552572Y313788D01*
X553113Y314630D01*
X553712Y315430D01*
X554367Y316186D01*
X555074Y316893D01*
X555830Y317548D01*
X556630Y318147D01*
X557472Y318688D01*
X558349Y319167D01*
X559259Y319583D01*
X560196Y319932D01*
X561156Y320214D01*
X562133Y320426D01*
X563123Y320569D01*
X564120Y320640D01*
X565120Y320640D01*
X566118Y320569D01*
X567107Y320426D01*
X568085Y320214D01*
X569044Y319932D01*
X569981Y319583D01*
X570891Y319167D01*
X571768Y318688D01*
X572610Y318147D01*
X573410Y317548D01*
X574166Y316893D01*
X574873Y316186D01*
X575528Y315430D01*
X576127Y314630D01*
X576668Y313788D01*
X577147Y312911D01*
X577563Y312001D01*
X577912Y311064D01*
X578194Y310105D01*
X578406Y309127D01*
X578549Y308138D01*
X578620Y307140D01*
X578620Y306140D01*
X1158620Y306140D02*
X1158549Y305143D01*
X1158406Y304153D01*
X1158194Y303176D01*
X1157912Y302216D01*
X1157563Y301279D01*
X1157147Y300369D01*
X1156668Y299492D01*
X1156127Y298650D01*
X1155528Y297850D01*
X1154873Y297094D01*
X1154166Y296387D01*
X1153410Y295732D01*
X1152610Y295133D01*
X1151768Y294592D01*
X1150891Y294113D01*
X1149981Y293697D01*
X1149044Y293348D01*
X1148085Y293066D01*
X1147107Y292854D01*
X1146118Y292711D01*
X1145120Y292640D01*
X1144120Y292640D01*
X1143123Y292711D01*
X1142133Y292854D01*
X1141156Y293066D01*
X1140196Y293348D01*
X1139259Y293697D01*
X1138349Y294113D01*
X1137472Y294592D01*
X1136630Y295133D01*
X1135830Y295732D01*
X1135074Y296387D01*
X1134367Y297094D01*
X1133712Y297850D01*
X1133113Y298650D01*
X1132572Y299492D01*
X1132093Y300369D01*
X1131677Y301279D01*
X1131328Y302216D01*
X1131046Y303176D01*
X1130834Y304153D01*
X1130691Y305143D01*
X1130620Y306140D01*
X1130620Y307140D01*
X1130691Y308138D01*
X1130834Y309127D01*
X1131046Y310105D01*
X1131328Y311064D01*
X1131677Y312001D01*
X1132093Y312911D01*
X1132572Y313788D01*
X1133113Y314630D01*
X1133712Y315430D01*
X1134367Y316186D01*
X1135074Y316893D01*
X1135830Y317548D01*
X1136630Y318147D01*
X1137472Y318688D01*
X1138349Y319167D01*
X1139259Y319583D01*
X1140196Y319932D01*
X1141156Y320214D01*
X1142133Y320426D01*
X1143123Y320569D01*
X1144120Y320640D01*
X1145120Y320640D01*
X1146118Y320569D01*
X1147107Y320426D01*
X1148085Y320214D01*
X1149044Y319932D01*
X1149981Y319583D01*
X1150891Y319167D01*
X1151768Y318688D01*
X1152610Y318147D01*
X1153410Y317548D01*
X1154166Y316893D01*
X1154873Y316186D01*
X1155528Y315430D01*
X1156127Y314630D01*
X1156668Y313788D01*
X1157147Y312911D01*
X1157563Y312001D01*
X1157912Y311064D01*
X1158194Y310105D01*
X1158406Y309127D01*
X1158549Y308138D01*
X1158620Y307140D01*
X1158620Y306140D01*
X1158620Y536140D02*
X1158549Y535143D01*
X1158406Y534153D01*
X1158194Y533176D01*
X1157912Y532216D01*
X1157563Y531279D01*
X1157147Y530369D01*
X1156668Y529492D01*
X1156127Y528650D01*
X1155528Y527850D01*
X1154873Y527094D01*
X1154166Y526387D01*
X1153410Y525732D01*
X1152610Y525133D01*
X1151768Y524592D01*
X1150891Y524113D01*
X1149981Y523697D01*
X1149044Y523348D01*
X1148085Y523066D01*
X1147107Y522854D01*
X1146118Y522711D01*
X1145120Y522640D01*
X1144120Y522640D01*
X1143123Y522711D01*
X1142133Y522854D01*
X1141156Y523066D01*
X1140196Y523348D01*
X1139259Y523697D01*
X1138349Y524113D01*
X1137472Y524592D01*
X1136630Y525133D01*
X1135830Y525732D01*
X1135074Y526387D01*
X1134367Y527094D01*
X1133712Y527850D01*
X1133113Y528650D01*
X1132572Y529492D01*
X1132093Y530369D01*
X1131677Y531279D01*
X1131328Y532216D01*
X1131046Y533176D01*
X1130834Y534153D01*
X1130691Y535143D01*
X1130620Y536140D01*
X1130620Y537140D01*
X1130691Y538138D01*
X1130834Y539127D01*
X1131046Y540105D01*
X1131328Y541064D01*
X1131677Y542001D01*
X1132093Y542911D01*
X1132572Y543788D01*
X1133113Y544630D01*
X1133712Y545430D01*
X1134367Y546186D01*
X1135074Y546893D01*
X1135830Y547548D01*
X1136630Y548147D01*
X1137472Y548688D01*
X1138349Y549167D01*
X1139259Y549583D01*
X1140196Y549932D01*
X1141156Y550214D01*
X1142133Y550426D01*
X1143123Y550569D01*
X1144120Y550640D01*
X1145120Y550640D01*
X1146118Y550569D01*
X1147107Y550426D01*
X1148085Y550214D01*
X1149044Y549932D01*
X1149981Y549583D01*
X1150891Y549167D01*
X1151768Y548688D01*
X1152610Y548147D01*
X1153410Y547548D01*
X1154166Y546893D01*
X1154873Y546186D01*
X1155528Y545430D01*
X1156127Y544630D01*
X1156668Y543788D01*
X1157147Y542911D01*
X1157563Y542001D01*
X1157912Y541064D01*
X1158194Y540105D01*
X1158406Y539127D01*
X1158549Y538138D01*
X1158620Y537140D01*
X1158620Y536140D01*
M02*
