G04 EAGLE Gerber RS-274X export*
G75*
%MOMM*%
%FSLAX34Y34*%
%LPD*%
%INSoldermask Bottom*%
%IPPOS*%
%AMOC8*
5,1,8,0,0,1.08239X$1,22.5*%
G01*
%ADD10R,1.711200X1.711200*%
%ADD11C,1.711200*%
%ADD12C,2.203200*%
%ADD13C,1.868200*%
%ADD14C,3.003200*%
%ADD15R,1.511200X1.511200*%
%ADD16C,1.511200*%
%ADD17R,2.053200X2.053200*%
%ADD18C,2.053200*%
%ADD19C,1.803200*%


D10*
X648970Y487680D03*
D11*
X674370Y487680D03*
X699770Y487680D03*
X725170Y487680D03*
D12*
X582930Y476250D03*
X791210Y476250D03*
X791210Y245110D03*
X582930Y245110D03*
D13*
X613320Y520840D03*
X613320Y546240D03*
X638720Y520840D03*
X638720Y546240D03*
X664120Y520840D03*
X664120Y546240D03*
X689520Y520840D03*
X689520Y546240D03*
X714920Y520840D03*
X714920Y546240D03*
X740320Y520840D03*
X740320Y546240D03*
X765720Y520840D03*
X765720Y546240D03*
X791120Y520840D03*
X791120Y546240D03*
X816520Y520840D03*
X816520Y546240D03*
X841920Y520840D03*
X841920Y546240D03*
X867320Y520840D03*
X867320Y546240D03*
X892720Y520840D03*
X892720Y546240D03*
X918120Y520840D03*
X918120Y546240D03*
X943520Y520840D03*
X943520Y546240D03*
X968920Y520840D03*
X968920Y546240D03*
X994320Y520840D03*
X994320Y546240D03*
X1019720Y520840D03*
X1019720Y546240D03*
X1045120Y520840D03*
X1045120Y546240D03*
X1070520Y520840D03*
X1070520Y546240D03*
X1095920Y520840D03*
X1095920Y546240D03*
X1095920Y495440D03*
X1070520Y495440D03*
X1070520Y470040D03*
X1095920Y470040D03*
D14*
X564620Y536640D03*
X564620Y306640D03*
X1144620Y306640D03*
X1144620Y536640D03*
D15*
X1051560Y374650D03*
D16*
X1076960Y374650D03*
X1102360Y374650D03*
X1127760Y374650D03*
D17*
X893800Y322580D03*
D18*
X858800Y322580D03*
D17*
X972540Y322580D03*
D18*
X937540Y322580D03*
D19*
X850270Y429790D03*
X870270Y429790D03*
X890270Y429790D03*
X910270Y429790D03*
X930270Y429790D03*
X977270Y429790D03*
X997270Y429790D03*
X1017270Y429790D03*
X1037270Y429790D03*
X1057270Y429790D03*
M02*
