G04 EAGLE Gerber RS-274X export*
G75*
%MOMM*%
%FSLAX34Y34*%
%LPD*%
%INSolderpaste Top*%
%IPPOS*%
%AMOC8*
5,1,8,0,0,1.08239X$1,22.5*%
G01*
%ADD10C,0.222250*%


D10*
X1137444Y438944D02*
X1137444Y432276D01*
X1130776Y432276D01*
X1130776Y438944D01*
X1137444Y438944D01*
X1137444Y434388D02*
X1130776Y434388D01*
X1130776Y436500D02*
X1137444Y436500D01*
X1137444Y438612D02*
X1130776Y438612D01*
X1137444Y447516D02*
X1137444Y454184D01*
X1137444Y447516D02*
X1130776Y447516D01*
X1130776Y454184D01*
X1137444Y454184D01*
X1137444Y449628D02*
X1130776Y449628D01*
X1130776Y451740D02*
X1137444Y451740D01*
X1137444Y453852D02*
X1130776Y453852D01*
X1149826Y454184D02*
X1149826Y447516D01*
X1149826Y454184D02*
X1156494Y454184D01*
X1156494Y447516D01*
X1149826Y447516D01*
X1149826Y449628D02*
X1156494Y449628D01*
X1156494Y451740D02*
X1149826Y451740D01*
X1149826Y453852D02*
X1156494Y453852D01*
X1149826Y438944D02*
X1149826Y432276D01*
X1149826Y438944D02*
X1156494Y438944D01*
X1156494Y432276D01*
X1149826Y432276D01*
X1149826Y434388D02*
X1156494Y434388D01*
X1156494Y436500D02*
X1149826Y436500D01*
X1149826Y438612D02*
X1156494Y438612D01*
M02*
